<svg>
<metadata>
Created by FontForge 20110222 at Thu Mar 28 15:33:10 2013 By Orthosie Webmaster Copyright (C) 2006, 2007 Hoefler & Frere-Jones. http://www.typography.com
</metadata>
<defs>
<font id="GothamRoundedMedium" horiz-adv-x="671">
<font-face font-family="GothamRoundedMedium" font-weight="350" font-stretch="normal" units-per-em="1000" panose-1="2 0 0 0 0 0 0 0 0 0" ascent="800" descent="-200" x-height="528" cap-height="705" bbox="-49 -275 1180 1067" underline-thickness="50" underline-position="-50" unicode-range="U+0020-FB04"/>
<missing-glyph horiz-adv-x="500" d="M0 -200v1000h500v-1000h-500zM71 750l179 -390l179 390h-358zM50 -76l172 376l-172 376v-752zM450 676l-172 -376l172 -376v752zM250 240l-179 -390h358z"/>
<glyph glyph-name="f_f" unicode="ff" horiz-adv-x="752" d="M103 55v369h-21q-21 0 -36 14.5t-15 35.5t15 36t36 15h21v39q0 87 43 130q42 42 119 42q33 0 61 -5q17 -2 29.5 -16t12.5 -34q0 -21 -15 -36t-36 -14q-14 2 -25 2q-70 0 -70 -80v-29h94q22 0 36.5 -14.5t14.5 -35.5t-15 -35.5t-36 -14.5h-92v-369q0 -25 -18 -42.5 t-43 -17.5t-42.5 17.5t-17.5 42.5zM479 55v369h-21q-21 0 -36 14.5t-15 35.5t15 36t36 15h21v39q0 87 43 130q42 42 119 42q33 0 61 -5q17 -2 29.5 -16t12.5 -34q0 -21 -15 -36t-36 -14q-14 2 -25 2q-70 0 -70 -80v-29h94q22 0 36.5 -14.5t14.5 -35.5t-15 -35.5t-36 -14.5 h-92v-369q0 -25 -18 -42.5t-43 -17.5t-42.5 17.5t-17.5 42.5z"/>
<glyph glyph-name="fi" unicode="fi" horiz-adv-x="662" d="M450 664v6q0 27 19.5 43t49.5 16t49.5 -16t19.5 -43v-6q0 -27 -19.5 -43.5t-49.5 -16.5t-49.5 16.5t-19.5 43.5zM459 55v418q0 26 17.5 43.5t42.5 17.5t43 -18t18 -43v-418q0 -25 -17.5 -42.5t-43.5 -17.5q-25 0 -42.5 17.5t-17.5 42.5zM103 55v369h-21q-21 0 -36 14.5 t-15 35.5t15 36t36 15h21v39q0 87 43 130q42 42 119 42q33 0 61 -5q17 -2 29.5 -16t12.5 -34q0 -21 -15 -36t-36 -14q-14 2 -25 2q-70 0 -70 -80v-29h94q22 0 36.5 -14.5t14.5 -35.5t-15 -35.5t-36 -14.5h-92v-369q0 -25 -18 -42.5t-43 -17.5t-42.5 17.5t-17.5 42.5z"/>
<glyph glyph-name="fl" unicode="fl" horiz-adv-x="662" d="M459 55v620q0 25 17.5 42.5t42.5 17.5t43 -17.5t18 -42.5v-620q0 -25 -17.5 -42.5t-43.5 -17.5q-25 0 -42.5 17.5t-17.5 42.5zM103 55v369h-21q-21 0 -36 14.5t-15 35.5t15 36t36 15h21v39q0 87 43 130q42 42 119 42q33 0 61 -5q17 -2 29.5 -16t12.5 -34q0 -21 -15 -36 t-36 -14q-14 2 -25 2q-70 0 -70 -80v-29h94q22 0 36.5 -14.5t14.5 -35.5t-15 -35.5t-36 -14.5h-92v-369q0 -25 -18 -42.5t-43 -17.5t-42.5 17.5t-17.5 42.5z"/>
<glyph glyph-name="f_f_i" unicode="ffi" horiz-adv-x="1038" d="M826 664v6q0 27 19.5 43t49.5 16t49.5 -16t19.5 -43v-6q0 -27 -19.5 -43.5t-49.5 -16.5t-49.5 16.5t-19.5 43.5zM835 55v418q0 26 17.5 43.5t42.5 17.5t43 -18t18 -43v-418q0 -25 -17.5 -42.5t-43.5 -17.5q-25 0 -42.5 17.5t-17.5 42.5zM103 55v369h-21q-21 0 -36 14.5 t-15 35.5t15 36t36 15h21v39q0 87 43 130q42 42 119 42q33 0 61 -5q17 -2 29.5 -16t12.5 -34q0 -21 -15 -36t-36 -14q-14 2 -25 2q-70 0 -70 -80v-29h94q22 0 36.5 -14.5t14.5 -35.5t-15 -35.5t-36 -14.5h-92v-369q0 -25 -18 -42.5t-43 -17.5t-42.5 17.5t-17.5 42.5zM479 55 v369h-21q-21 0 -36 14.5t-15 35.5t15 36t36 15h21v39q0 87 43 130q42 42 119 42q33 0 61 -5q17 -2 29.5 -16t12.5 -34q0 -21 -15 -36t-36 -14q-14 2 -25 2q-70 0 -70 -80v-29h94q22 0 36.5 -14.5t14.5 -35.5t-15 -35.5t-36 -14.5h-92v-369q0 -25 -18 -42.5t-43 -17.5 t-42.5 17.5t-17.5 42.5z"/>
<glyph glyph-name="f_f_l" unicode="ffl" horiz-adv-x="1038" d="M103 55v369h-21q-21 0 -36 14.5t-15 35.5t15 36t36 15h21v39q0 87 43 130q42 42 119 42q33 0 61 -5q17 -2 29.5 -16t12.5 -34q0 -21 -15 -36t-36 -14q-14 2 -25 2q-70 0 -70 -80v-29h94q22 0 36.5 -14.5t14.5 -35.5t-15 -35.5t-36 -14.5h-92v-369q0 -25 -18 -42.5 t-43 -17.5t-42.5 17.5t-17.5 42.5zM479 55v369h-21q-21 0 -36 14.5t-15 35.5t15 36t36 15h21v39q0 87 43 130q42 42 119 42q33 0 61 -5q17 -2 29.5 -16t12.5 -34q0 -21 -15 -36t-36 -14q-14 2 -25 2q-70 0 -70 -80v-29h94q22 0 36.5 -14.5t14.5 -35.5t-15 -35.5t-36 -14.5 h-92v-369q0 -25 -18 -42.5t-43 -17.5t-42.5 17.5t-17.5 42.5zM835 55v620q0 25 17.5 42.5t42.5 17.5t43 -17.5t18 -42.5v-620q0 -25 -17.5 -42.5t-43.5 -17.5q-25 0 -42.5 17.5t-17.5 42.5z"/>
<glyph glyph-name=".notdef" horiz-adv-x="500" d="M0 -200v1000h500v-1000h-500zM71 750l179 -390l179 390h-358zM50 -76l172 376l-172 376v-752zM450 676l-172 -376l172 -376v752zM250 240l-179 -390h358z"/>
<glyph glyph-name=".null" horiz-adv-x="0"/>
<glyph glyph-name="nonmarkingreturn" horiz-adv-x="333"/>
<glyph glyph-name="space" unicode=" " horiz-adv-x="300"/>
<glyph glyph-name="exclam" unicode="!" horiz-adv-x="302" d="M115 252l-35 408q-2 18 8 30.5t27 12.5h72q17 0 27.5 -12.5t8.5 -30.5l-35 -408q-1 -16 -11.5 -26t-25.5 -10t-25 10t-11 26zM80 74q0 29 20.5 49t50.5 20q31 0 51 -20t20 -49v-10q0 -29 -20 -49t-51 -20q-30 0 -50.5 20t-20.5 49v10z"/>
<glyph glyph-name="quotedbl" unicode=""" horiz-adv-x="487" d="M282 433l17 214q2 24 17.5 40t39.5 16h40q14 0 23 -9t9 -24q0 -6 -4 -22l-73 -222q-11 -31 -36 -31q-15 0 -24.5 10.5t-8.5 27.5zM62 433l18 214q2 24 17.5 40t39.5 16h39q15 0 24 -9t9 -24q0 -6 -4 -22l-73 -222q-11 -31 -36 -31q-15 0 -25 10.5t-9 27.5z"/>
<glyph glyph-name="numbersign" unicode="#" horiz-adv-x="700" d="M114 56l18 105h-46q-22 0 -37 15t-15 37q0 21 15 36.5t37 15.5h64l30 174h-58q-21 0 -36.5 15.5t-15.5 36.5t15.5 36.5t36.5 15.5h76l20 119q3 19 17.5 31t34.5 12q24 0 39.5 -18.5t12.5 -42.5l-18 -101h157l20 119q3 19 18 31t35 12q24 0 39.5 -19t11.5 -42l-17 -101h46 q21 0 36.5 -15t15.5 -37q0 -21 -15.5 -36.5t-36.5 -15.5h-64l-30 -174h57q22 0 37 -15t15 -37q0 -21 -15 -36.5t-37 -15.5h-75l-21 -123q-3 -19 -17.5 -31t-34.5 -12q-24 0 -40 18.5t-12 42.5l19 105h-157l-21 -123q-3 -18 -17.5 -30.5t-35.5 -12.5q-24 0 -39.5 18t-11.5 43 zM257 265h156l30 174h-156z"/>
<glyph glyph-name="dollar" unicode="$" horiz-adv-x="642" d="M285 720q0 18 13 30.5t31 12.5t30.5 -12.5t12.5 -30.5v-22q83 -10 155 -55q30 -17 30 -48q0 -23 -16.5 -39t-39.5 -16q-15 0 -30 9q-54 33 -103 44v-192q114 -29 165.5 -77.5t51.5 -128.5q0 -81 -58 -133.5t-155 -61.5v-60q0 -18 -12.5 -30.5t-30.5 -12.5t-31 12.5 t-13 30.5v62q-111 12 -205 78q-27 17 -27 48q0 23 16 39t39 16q19 0 33 -11q74 -54 148 -67v197q-112 29 -163 76t-51 130q0 80 58 131.5t152 59.5v21zM467 188q0 34 -21.5 56t-77.5 39v-182q48 5 73.5 28t25.5 59zM193 515q0 -33 20 -54t76 -39v177q-47 -4 -71.5 -27 t-24.5 -57z"/>
<glyph glyph-name="percent" unicode="%" horiz-adv-x="849" d="M212 350q-72 0 -118 51.5t-46 125.5v2q0 75 46.5 127t119.5 52t118.5 -51.5t45.5 -125.5v-2q0 -75 -46.5 -127t-119.5 -52zM154 34q0 13 9 26l459 627q10 18 34 18q17 0 28.5 -11.5t11.5 -27.5q0 -13 -9 -26l-459 -627q-12 -18 -35 -18q-17 0 -28 11.5t-11 27.5zM635 -8 q-72 0 -118 51.5t-46 125.5v2q0 75 46.5 127t119.5 52q72 0 118 -51.5t46 -125.5v-2q0 -74 -46.5 -126.5t-119.5 -52.5zM214 427q34 0 54.5 29t20.5 71v2q0 43 -22 72.5t-55 29.5q-34 0 -54.5 -29t-20.5 -71v-2q0 -43 22 -72.5t55 -29.5zM637 69q34 0 54.5 29t20.5 71v2 q0 43 -22 72.5t-55 29.5q-34 0 -54.5 -29t-20.5 -71v-2q0 -43 22 -72.5t55 -29.5z"/>
<glyph glyph-name="ampersand" unicode="&" horiz-adv-x="696" d="M600 -10q-24 0 -43 19l-73 74q-96 -93 -216 -93q-100 0 -164.5 55t-64.5 145v2q0 132 149 196q-58 74 -58 146v2q0 73 55 124.5t146 51.5q82 0 134 -48.5t52 -120.5v-2q0 -124 -153 -182l119 -121q28 40 58 100q13 29 46 29q22 0 37.5 -15.5t15.5 -36.5q0 -13 -7 -27 q-35 -65 -76 -123l78 -78q19 -19 19 -42t-15.5 -39t-38.5 -16zM298 425q56 20 83 46t27 63v2q0 35 -22 57t-57 22q-37 0 -60.5 -23.5t-23.5 -60.5v-2q0 -46 53 -104zM280 92q68 0 133 62l-156 159q-94 -41 -94 -117v-2q0 -44 33 -73t84 -29z"/>
<glyph glyph-name="quotesingle" unicode="'" horiz-adv-x="269" d="M62 433l18 214q2 24 17.5 40t39.5 16h39q15 0 24.5 -9t9.5 -24q0 -6 -4 -22l-73 -222q-11 -31 -37 -31q-15 0 -25 10.5t-9 27.5z"/>
<glyph glyph-name="parenleft" unicode="(" horiz-adv-x="441" d="M346 -135q-20 0 -29 7q-254 152 -254 415t254 415q9 7 29 7q18 0 32 -15t14 -34q0 -26 -20 -41q-96 -68 -142 -147.5t-46 -184.5t46 -184.5t142 -147.5q20 -15 20 -41q0 -19 -14 -34t-32 -15z"/>
<glyph glyph-name="parenright" unicode=")" horiz-adv-x="441" d="M94 -135q-18 0 -32 15t-14 34q0 25 21 41q96 68 142 147.5t46 184.5t-46 184.5t-142 147.5q-21 16 -21 41q0 19 14 34t32 15q20 0 29 -7q255 -152 255 -415t-255 -415q-9 -7 -29 -7z"/>
<glyph glyph-name="asterisk" unicode="*" horiz-adv-x="430" d="M184 414l10 90l-75 -55q-15 -10 -25 -10q-13 0 -23 10t-10 24q0 21 23 31l88 38l-88 39q-23 10 -23 31q0 13 10 23t24 10q11 0 24 -10l75 -55l-10 89q-2 16 7 27t24 11t24 -10.5t7 -26.5l-10 -90l75 55q13 10 25 10q14 0 23.5 -9.5t9.5 -23.5q0 -21 -23 -31l-88 -39 l88 -38q23 -10 23 -32q0 -13 -10 -23t-24 -10q-9 0 -24 10l-75 55l10 -89q2 -16 -7 -27t-24 -11t-24 10.5t-7 26.5z"/>
<glyph glyph-name="plus" unicode="+" horiz-adv-x="634" d="M260 158v139h-142q-23 0 -39 16t-16 39q0 22 16.5 38.5t38.5 16.5h142v139q0 24 16.5 40.5t40.5 16.5q23 0 40 -16.5t17 -40.5v-139h142q22 0 38.5 -16.5t16.5 -38.5q0 -23 -16 -39t-39 -16h-142v-139q0 -24 -17 -40.5t-40 -16.5q-24 0 -40.5 16.5t-16.5 40.5z"/>
<glyph glyph-name="comma" unicode="," horiz-adv-x="269" d="M30 -117q0 22 23 27q71 23 68 90q-24 7 -40.5 25t-16.5 43v8q0 29 19 48t49 19q34 0 53 -23.5t19 -64.5v-11q0 -95 -49 -146q-45 -43 -94 -43q-31 0 -31 28z"/>
<glyph glyph-name="hyphen" unicode="-" horiz-adv-x="408" d="M110 247q-24 0 -41.5 17.5t-17.5 41.5q0 25 17.5 42.5t41.5 17.5h188q24 0 41.5 -17.5t17.5 -42.5q0 -24 -17.5 -41.5t-41.5 -17.5h-188z"/>
<glyph glyph-name="period" unicode="." horiz-adv-x="269" d="M64 74q0 29 20 49t51 20q30 0 50 -20t20 -49v-10q0 -29 -20 -49t-50 -20q-31 0 -51 20t-20 49v10z"/>
<glyph glyph-name="slash" unicode="/" horiz-adv-x="521" d="M0 -87q0 12 6 24l409 838q14 28 44 28q19 0 33 -13.5t14 -32.5q0 -9 -5 -24l-410 -838q-14 -28 -43 -28q-20 0 -34 13.5t-14 32.5z"/>
<glyph glyph-name="zero" unicode="0" horiz-adv-x="724" d="M361 -12q-135 0 -219.5 103.5t-84.5 256.5v2q0 153 85.5 257.5t220.5 104.5t219.5 -103.5t84.5 -256.5v-2q0 -153 -85.5 -257.5t-220.5 -104.5zM363 99q80 0 128.5 71.5t48.5 177.5v2q0 106 -50 178.5t-129 72.5t-128 -71t-49 -178v-2q0 -106 49.5 -178.5t129.5 -72.5z "/>
<glyph glyph-name="one" unicode="1" horiz-adv-x="396" d="M178 56v528l-72 -22q-11 -3 -22 -3q-22 0 -38 15.5t-16 36.5q0 42 41 53l106 34q38 11 60 11h2q26 0 43.5 -17.5t17.5 -43.5v-592q0 -26 -18 -43.5t-43 -17.5t-43 18t-18 43z"/>
<glyph glyph-name="two" unicode="2" horiz-adv-x="613" d="M43 58q0 35 32 61l215 183q74 62 102.5 102.5t28.5 86.5q0 50 -32 79.5t-81 29.5q-74 0 -138 -78q-17 -19 -43 -19q-23 0 -39.5 16.5t-16.5 39.5q0 21 14 38q46 57 99.5 85t132.5 28q103 0 167 -57.5t64 -151.5v-2q0 -78 -40 -133t-142 -138l-144 -120h284q22 0 38 -16 t16 -38t-16 -38t-38 -16h-397q-29 0 -47.5 15.5t-18.5 42.5z"/>
<glyph glyph-name="three" unicode="3" horiz-adv-x="618" d="M311 -12q-143 0 -237 91q-20 16 -20 44q0 24 17.5 41.5t41.5 17.5q23 0 41 -16q67 -67 159 -67q52 0 86.5 29.5t34.5 76.5v2q0 51 -43.5 79.5t-117.5 28.5h-25q-22 0 -37.5 15.5t-15.5 37.5q0 24 26 50l164 175h-254q-22 0 -38 15.5t-16 37.5t15.5 38t38.5 16h358 q27 0 44 -15t17 -39q0 -32 -35 -67l-165 -171q89 -11 147.5 -58.5t58.5 -137.5v-2q0 -97 -68 -159.5t-177 -62.5z"/>
<glyph glyph-name="four" unicode="4" horiz-adv-x="682" d="M412 53v104h-313q-25 0 -42.5 16.5t-17.5 41.5q0 33 27 65l329 390q18 21 34 30.5t41 9.5t42.5 -17t17.5 -42v-393h54q22 0 36.5 -15t14.5 -36t-14.5 -35.5t-36.5 -14.5h-54v-104q0 -25 -17 -41.5t-42 -16.5t-42 16.5t-17 41.5zM182 258h230v277z"/>
<glyph glyph-name="five" unicode="5" horiz-adv-x="623" d="M308 -12q-126 0 -224 76q-25 20 -25 48q0 24 17.5 41.5t41.5 17.5q21 0 36 -12q73 -59 152 -59q60 0 98 33t38 88v2q0 53 -40 84.5t-105 31.5q-40 0 -78.5 -12t-41.5 -12q-24 0 -58 24q-26 18 -24 54l15 252q1 24 17 39.5t39 15.5h317q23 0 39 -16t16 -39q0 -22 -16 -38 t-39 -16h-263l-11 -164q55 20 111 20q108 0 176 -56.5t68 -163.5v-2q0 -106 -71.5 -171.5t-184.5 -65.5z"/>
<glyph glyph-name="six" unicode="6" horiz-adv-x="656" d="M337 -12q-121 0 -195 74q-42 42 -63.5 104t-21.5 163v2q0 167 78.5 274t221.5 107q101 0 175 -50q31 -20 31 -53q0 -24 -17.5 -40.5t-41.5 -16.5q-15 0 -31 9q-59 39 -120 39q-76 0 -119.5 -61.5t-48.5 -160.5q72 70 168 70q105 0 174.5 -59t69.5 -161v-2 q0 -103 -74.5 -170.5t-185.5 -67.5zM334 95q64 0 102 35.5t38 90.5v2q0 53 -39.5 87.5t-103.5 34.5t-103 -35.5t-39 -87.5v-2q0 -54 40.5 -89.5t104.5 -35.5z"/>
<glyph glyph-name="seven" unicode="7" horiz-adv-x="609" d="M137 50q0 18 11 38l272 504h-303q-23 0 -38.5 16t-15.5 38t15.5 38t38.5 16h393q26 0 41 -14.5t15 -40.5q0 -27 -17 -59l-290 -550q-22 -41 -59 -41q-26 0 -44.5 15t-18.5 40z"/>
<glyph glyph-name="eight" unicode="8" horiz-adv-x="630" d="M315 -10q-116 0 -191.5 55.5t-75.5 145.5v2q0 117 126 170q-102 54 -102 156v2q0 81 69 135t174 54t174 -54t69 -135v-2q0 -102 -102 -156q126 -57 126 -168v-2q0 -92 -75 -147.5t-192 -55.5zM315 404q54 0 89.5 29t35.5 74v2q0 41 -35 69.5t-90 28.5t-90 -28t-35 -69v-2 q0 -46 35.5 -75t89.5 -29zM315 93q67 0 107 30t40 75v2q0 47 -42 76.5t-105 29.5t-104.5 -29.5t-41.5 -76.5v-2q0 -44 39.5 -74.5t106.5 -30.5z"/>
<glyph glyph-name="nine" unicode="9" horiz-adv-x="656" d="M299 -12q-103 0 -189 58q-28 18 -28 51q0 24 17 40t41 16q17 0 34 -10q61 -43 128 -43q76 0 121 60.5t48 159.5q-62 -74 -164 -74q-112 0 -180 60.5t-68 161.5v2q0 104 73 173t188 69q119 0 195 -74q84 -86 84 -267v-2q0 -171 -80 -276t-220 -105zM325 349 q65 0 103.5 36.5t38.5 89.5v2q0 56 -40 92.5t-106 36.5q-64 0 -101.5 -37t-37.5 -93v-2q0 -55 39 -90t104 -35z"/>
<glyph glyph-name="colon" unicode=":" horiz-adv-x="279" d="M69 464q0 30 20 50t51 20q30 0 50 -20t20 -50v-9q0 -30 -20 -50t-50 -20q-31 0 -51 20t-20 50v9zM69 74q0 29 20 49t51 20q30 0 50 -20t20 -49v-10q0 -29 -20 -49t-50 -20q-31 0 -51 20t-20 49v10z"/>
<glyph glyph-name="semicolon" unicode=";" horiz-adv-x="279" d="M69 464q0 30 20 50t51 20q30 0 50 -20t20 -50v-9q0 -30 -20 -50t-50 -20q-31 0 -51 20t-20 50v9zM35 -117q0 22 23 27q71 23 68 90q-24 7 -40.5 25t-16.5 43v8q0 29 19 48t49 19q34 0 53 -23.5t19 -64.5v-11q0 -95 -49 -146q-45 -43 -94 -43q-31 0 -31 28z"/>
<glyph glyph-name="less" unicode="<" horiz-adv-x="634" d="M497 96q-11 0 -27 8l-361 177q-48 22 -48 67v8q0 45 48 67l361 177q16 8 31 8q20 1 34.5 -14t14.5 -37q0 -34 -34 -50l-329 -154l329 -155q34 -16 34 -51q0 -22 -15 -36.5t-38 -14.5z"/>
<glyph glyph-name="equal" unicode="=" horiz-adv-x="634" d="M127 421q-23 0 -39.5 16.5t-16.5 39.5t16.5 39.5t39.5 16.5h380q23 0 39.5 -16.5t16.5 -39.5t-16.5 -39.5t-39.5 -16.5h-380zM127 171q-23 0 -39.5 16.5t-16.5 39.5t16.5 39.5t39.5 16.5h380q23 0 39.5 -16.5t16.5 -39.5t-16.5 -39.5t-39.5 -16.5h-380z"/>
<glyph glyph-name="greater" unicode=">" horiz-adv-x="634" d="M137 608q11 0 27 -8l360 -177q49 -22 49 -67v-8q0 -45 -49 -67l-360 -177q-16 -8 -31 -8q-20 -1 -34.5 14t-14.5 37q0 34 34 49l329 155l-329 155q-34 16 -34 51q0 22 15 36.5t38 14.5z"/>
<glyph glyph-name="question" unicode="?" horiz-adv-x="541" d="M251 216h-6q-17 0 -29 11.5t-14 28.5l-10 86q-3 20 8 34t31 16q146 14 146 108v2q0 43 -31 69t-84 26q-75 0 -136 -55q-18 -14 -37 -14q-23 0 -39.5 16t-16.5 39q0 26 20 43q88 83 212 83q106 0 170.5 -55t64.5 -148v-2q0 -167 -202 -202l-4 -46q-3 -17 -14.5 -28.5 t-28.5 -11.5zM174 74q0 29 20 49t51 20t51 -20t20 -49v-10q0 -29 -20 -49t-51 -20t-51 20t-20 49v10z"/>
<glyph glyph-name="at" unicode="@" horiz-adv-x="980" d="M499 -162q-190 0 -318 127.5t-128 308.5q0 180 127.5 309t310.5 129q90 0 171.5 -33t139 -87.5t91.5 -126.5t34 -149q0 -120 -55.5 -184.5t-138.5 -64.5q-104 0 -148 70q-68 -70 -155 -70q-77 0 -129 52.5t-52 136.5q0 104 69 177t158 73q93 0 141 -74l3 18q9 50 52 50 q23 0 37.5 -17.5t10.5 -43.5l-38 -214q-5 -30 -5 -43q0 -33 21 -52t57 -19q56 0 94 53.5t38 151.5q0 142 -115 250t-281 108q-169 0 -283.5 -117t-114.5 -283q0 -168 115 -283t291 -115q129 0 238 62q5 3 11 3q7 0 11.5 -5.5t4.5 -12.5q0 -11 -9 -15q-118 -70 -256 -70z M457 154q55 0 96.5 47t41.5 111q0 48 -30 78t-75 30q-56 0 -97 -46t-41 -112q0 -51 29 -79.5t76 -28.5z"/>
<glyph glyph-name="A" unicode="A" horiz-adv-x="773" d="M42 52q0 12 8 28l260 580q23 50 74 50h6q50 0 73 -50l260 -580q7 -13 7 -26q0 -25 -16.5 -42t-41.5 -17q-42 0 -60 43l-57 131h-340l-59 -135q-16 -39 -57 -39q-24 0 -40.5 16.5t-16.5 40.5zM262 278h246l-123 283z"/>
<glyph glyph-name="B" unicode="B" horiz-adv-x="722" d="M90 62v576q0 26 18 44t44 18h252q121 0 183 -62q47 -47 47 -116v-2q0 -104 -100 -156q139 -47 139 -170v-2q0 -92 -70 -142t-189 -50h-262q-26 0 -44 18t-18 44zM211 405h168q61 0 96.5 24t35.5 71v2q0 42 -32 65.5t-91 23.5h-177v-186zM211 109h204q64 0 99.5 24.5 t35.5 71.5v2q0 94 -144 94h-195v-192z"/>
<glyph glyph-name="C" unicode="C" horiz-adv-x="738" d="M415 -12q-152 0 -254 104t-102 256v2q0 152 102 257t259 105q137 0 240 -79q24 -18 24 -49q0 -25 -17.5 -42.5t-43.5 -17.5q-21 0 -37 12q-78 63 -167 63q-99 0 -165 -71.5t-66 -175.5v-2q0 -104 66 -176t165 -72q96 0 175 67q16 14 37 14q23 0 40.5 -17t17.5 -40 q0 -26 -20 -44q-107 -94 -254 -94z"/>
<glyph glyph-name="D" unicode="D" horiz-adv-x="782" d="M90 62v576q0 26 18 44t44 18h199q163 0 267.5 -99.5t104.5 -248.5v-2q0 -150 -104.5 -250t-267.5 -100h-199q-26 0 -44 18t-18 44zM213 112h138q109 0 176 66t67 170v2q0 104 -67 171t-176 67h-138v-476z"/>
<glyph glyph-name="E" unicode="E" horiz-adv-x="670" d="M152 0q-26 0 -44 18t-18 44v576q0 26 18 44t44 18h407q23 0 39 -16t16 -39t-16 -39t-39 -16h-346v-182h301q23 0 39 -16.5t16 -39.5q0 -22 -16 -38t-39 -16h-301v-188h351q22 0 38.5 -16t16.5 -39t-16 -39t-39 -16h-412z"/>
<glyph glyph-name="F" unicode="F" horiz-adv-x="656" d="M90 56v582q0 26 18 44t44 18h408q23 0 39.5 -16.5t16.5 -39.5t-16.5 -39.5t-39.5 -16.5h-347v-191h302q23 0 39.5 -16.5t16.5 -39.5t-16.5 -39.5t-39.5 -16.5h-302v-229q0 -26 -17.5 -43.5t-43.5 -17.5t-44 17.5t-18 43.5z"/>
<glyph glyph-name="G" unicode="G" horiz-adv-x="784" d="M422 -12q-162 0 -262.5 102.5t-100.5 257.5v2q0 150 102.5 256t258.5 106q140 0 239 -71q25 -19 25 -50q0 -25 -18 -43t-43 -18q-18 0 -38 14q-75 55 -170 55q-96 0 -161.5 -72.5t-65.5 -174.5v-2q0 -109 66 -179.5t172 -70.5q98 0 169 53v131h-138q-23 0 -39 15.5 t-16 37.5t16 38t39 16h195q26 0 44 -18t18 -44v-187q0 -51 -43 -78q-114 -76 -249 -76z"/>
<glyph glyph-name="H" unicode="H" horiz-adv-x="760" d="M90 56v588q0 26 18 43.5t44 17.5t43.5 -17.5t17.5 -43.5v-235h334v235q0 26 17.5 43.5t43.5 17.5t44 -17.5t18 -43.5v-588q0 -26 -18 -43.5t-44 -17.5t-43.5 17.5t-17.5 43.5v239h-334v-239q0 -26 -17.5 -43.5t-43.5 -17.5t-44 17.5t-18 43.5z"/>
<glyph glyph-name="I" unicode="I" horiz-adv-x="317" d="M97 56v588q0 26 18 43.5t44 17.5q25 0 43 -17.5t18 -43.5v-588q0 -26 -18 -43.5t-43 -17.5q-26 0 -44 17.5t-18 43.5z"/>
<glyph glyph-name="J" unicode="J" horiz-adv-x="560" d="M245 -10q-114 0 -191 77q-21 19 -21 46q0 25 17 42t42 17q21 0 38 -14q52 -54 114 -54q53 0 83 34.5t30 103.5v402q0 25 18 43t44 18t44 -18t18 -43v-406q0 -120 -66 -186q-62 -62 -170 -62z"/>
<glyph glyph-name="K" unicode="K" horiz-adv-x="713" d="M90 56v588q0 26 18 43.5t44 17.5t43.5 -17.5t17.5 -43.5v-296l332 334q21 23 51 23q25 0 41 -17t16 -40q0 -26 -22 -46l-218 -210l236 -293q17 -22 17 -44q0 -25 -18 -42.5t-44 -17.5q-30 0 -52 29l-225 287l-114 -110v-145q0 -26 -17.5 -43.5t-43.5 -17.5t-44 17.5 t-18 43.5z"/>
<glyph glyph-name="L" unicode="L" horiz-adv-x="619" d="M90 62v582q0 26 18 43.5t44 17.5t43.5 -17.5t17.5 -43.5v-532h317q23 0 39.5 -16.5t16.5 -39.5t-16.5 -39.5t-39.5 -16.5h-378q-26 0 -44 18t-18 44z"/>
<glyph glyph-name="M" unicode="M" horiz-adv-x="868" d="M90 55v587q0 26 18 44t44 18h13q36 0 57 -33l212 -332l213 333q20 32 56 32h13q26 0 44 -18t18 -44v-586q0 -26 -18 -43.5t-44 -17.5q-25 0 -43 18t-18 43v420l-171 -257q-21 -32 -52 -32q-30 0 -51 32l-170 255v-419q0 -25 -17.5 -42.5t-43.5 -17.5t-43 17.5t-17 42.5z "/>
<glyph glyph-name="N" unicode="N" horiz-adv-x="790" d="M90 55v587q0 26 18 44t44 18h13q35 0 64 -36l350 -453v430q0 25 17.5 42.5t42.5 17.5t43 -17.5t18 -42.5v-588q0 -26 -17.5 -43.5t-42.5 -17.5h-5q-35 0 -64 37l-360 466v-444q0 -25 -17.5 -42.5t-42.5 -17.5t-43 17.5t-18 42.5z"/>
<glyph glyph-name="O" unicode="O" horiz-adv-x="850" d="M424 -12q-159 0 -262 105t-103 255v2q0 150 104 256t263 106t262 -105t103 -255v-2q0 -150 -104 -256t-263 -106zM426 102q103 0 169.5 71t66.5 175v2q0 104 -67.5 176.5t-170.5 72.5t-169.5 -71.5t-66.5 -175.5v-2q0 -104 67.5 -176t170.5 -72z"/>
<glyph glyph-name="P" unicode="P" horiz-adv-x="668" d="M90 56v582q0 26 18 44t44 18h214q122 0 194 -64t72 -170v-2q0 -113 -79.5 -176t-200.5 -63h-139v-169q0 -26 -17.5 -43.5t-43.5 -17.5t-44 17.5t-18 43.5zM213 336h143q69 0 110 35t41 90v2q0 60 -40.5 92.5t-110.5 32.5h-143v-252z"/>
<glyph glyph-name="Q" unicode="Q" horiz-adv-x="850" d="M424 -12q-159 0 -262 105t-103 255v2q0 150 104 256t263 106t262 -105t103 -255v-2q0 -119 -71 -215l45 -37q23 -20 23 -48q0 -24 -17 -41.5t-41 -17.5q-25 0 -43 18l-50 45q-93 -66 -213 -66zM460 208q-23 20 -23 48q0 24 17 41.5t41 17.5q22 0 43 -18l90 -82 q34 59 34 133v2q0 104 -67.5 176.5t-170.5 72.5t-169.5 -71.5t-66.5 -175.5v-2q0 -104 67.5 -176t170.5 -72q67 0 121 32z"/>
<glyph glyph-name="R" unicode="R" horiz-adv-x="723" d="M90 56v582q0 26 18 44t44 18h250q130 0 202 -70q58 -60 58 -151v-2q0 -81 -42.5 -133.5t-116.5 -75.5l134 -169q20 -25 20 -47q0 -25 -18 -41t-41 -16q-36 0 -60 32l-170 217h-155v-188q0 -26 -17.5 -43.5t-43.5 -17.5t-44 17.5t-18 43.5zM213 353h180q66 0 105 32t39 85 v2q0 56 -38 86t-107 30h-179v-235z"/>
<glyph glyph-name="S" unicode="S" horiz-adv-x="640" d="M335 -10q-145 0 -263 88q-24 17 -24 47q0 24 17 40.5t41 16.5q21 0 36 -11q91 -72 196 -72q57 0 90.5 24.5t33.5 63.5v2q0 39 -32 62t-126 45q-60 15 -100 30t-72 39t-46.5 58.5t-14.5 81.5v2q0 90 67 146.5t172 56.5q125 0 222 -65q27 -15 27 -49q0 -24 -17 -40.5 t-41 -16.5q-17 0 -32 9q-82 53 -161 53q-52 0 -83 -23.5t-31 -59.5v-2q0 -41 33.5 -63.5t133.5 -46.5q116 -28 170 -74.5t54 -130.5v-2q0 -97 -69 -153t-181 -56z"/>
<glyph glyph-name="T" unicode="T" horiz-adv-x="648" d="M262 56v530h-170q-24 0 -40.5 17t-16.5 40t16.5 40t40.5 17h465q23 0 39.5 -17t16.5 -40t-16.5 -40t-39.5 -17h-171v-530q0 -25 -18 -43t-44 -18t-44 18t-18 43z"/>
<glyph glyph-name="U" unicode="U" horiz-adv-x="757" d="M377 -11q-139 0 -218.5 79t-79.5 229v347q0 26 18 43.5t44 17.5q25 0 43 -17.5t18 -43.5v-342q0 -96 46.5 -147.5t130.5 -51.5q83 0 129.5 49.5t46.5 144.5v347q0 26 18 43.5t44 17.5q25 0 43 -17.5t18 -43.5v-341q0 -153 -80 -233.5t-221 -80.5z"/>
<glyph glyph-name="V" unicode="V" horiz-adv-x="733" d="M363 -10q-49 0 -70 50l-245 576q-7 16 -7 29q0 25 18 42.5t44 17.5q46 0 63 -44l202 -505l205 509q6 17 22 28.5t37 11.5q26 0 43.5 -17t17.5 -42q0 -12 -6 -26l-246 -580q-21 -50 -71 -50h-7z"/>
<glyph glyph-name="W" unicode="W" horiz-adv-x="1099" d="M254 41l-207 580q-5 12 -5 24q0 25 18.5 42.5t44.5 17.5q22 0 38.5 -12.5t22.5 -32.5l161 -481l158 479q17 49 62 49h9q47 0 62 -49l158 -479l161 482q16 44 60 44q25 0 43 -17t18 -42q0 -11 -6 -25l-207 -580q-18 -51 -64 -51h-12q-45 0 -63 51l-156 457l-156 -457 q-18 -51 -64 -51h-12q-45 0 -64 51z"/>
<glyph glyph-name="X" unicode="X" horiz-adv-x="714" d="M54 52q0 21 18 46l208 258l-196 243q-19 25 -19 46q0 26 17.5 43t43.5 17q34 0 56 -30l177 -233l175 229q25 34 60 34q22 0 39 -16t17 -40q0 -23 -19 -47l-196 -244l206 -257q19 -25 19 -46q0 -26 -17.5 -43t-43.5 -17q-33 0 -56 30l-188 245l-185 -241q-26 -34 -60 -34 q-22 0 -39 16t-17 41z"/>
<glyph glyph-name="Y" unicode="Y" horiz-adv-x="696" d="M287 56v216l-241 331q-14 21 -14 43q0 25 18 42t44 17q35 0 60 -37l195 -281l198 282q25 37 59 37q26 0 43 -17.5t17 -42.5q0 -21 -17 -44l-239 -327v-219q0 -26 -18 -43.5t-44 -17.5t-43.5 17.5t-17.5 43.5z"/>
<glyph glyph-name="Z" unicode="Z" horiz-adv-x="702" d="M116 0q-22 0 -38.5 16t-16.5 38v3q0 31 23 57l394 477h-351q-22 0 -38 16t-16 38t16 38.5t38 16.5h460q22 0 38.5 -16t16.5 -38v-3q0 -29 -22 -57l-395 -477h364q23 0 39 -16.5t16 -38.5t-16 -38t-39 -16h-473z"/>
<glyph glyph-name="bracketleft" unicode="[" horiz-adv-x="455" d="M88 -70v710q0 25 17 42.5t42 17.5h206q19 0 33.5 -14t14.5 -34q0 -19 -14 -33t-34 -14h-149v-640h149q20 0 34 -14t14 -33q0 -20 -14.5 -34t-33.5 -14h-206q-25 0 -42 17.5t-17 42.5z"/>
<glyph glyph-name="backslash" unicode="\" horiz-adv-x="521" d="M521 -87q0 -19 -14 -32.5t-34 -13.5q-29 0 -43 28l-410 838q-5 15 -5 24q0 19 14 32.5t33 13.5q30 0 44 -28l409 -838q6 -12 6 -24z"/>
<glyph glyph-name="bracketright" unicode="]" horiz-adv-x="455" d="M367 640v-710q0 -25 -17.5 -42.5t-42.5 -17.5h-206q-19 0 -33 14t-14 34t14 33.5t33 13.5h150v640h-150q-19 0 -33 13.5t-14 33.5t14 34t33 14h206q25 0 42.5 -17.5t17.5 -42.5z"/>
<glyph glyph-name="asciicircum" unicode="^" horiz-adv-x="500" d="M249 625l-72 -93q-20 -26 -35 -35t-37 -9q-28 0 -28 20q0 14 12 30l95 130q25 36 61 36h9q35 0 62 -36l95 -130q11 -17 11 -30q0 -20 -28 -20q-23 0 -38 9t-35 35z"/>
<glyph glyph-name="underscore" unicode="_" horiz-adv-x="600" d="M-2 -160q-20 0 -33.5 14t-13.5 33t13.5 33t33.5 14h604q20 0 33.5 -14t13.5 -33t-13.5 -33t-33.5 -14h-604z"/>
<glyph glyph-name="grave" unicode="`" horiz-adv-x="500" d="M293 590q-42 0 -70 27l-68 64q-17 15 -17 30q0 14 23.5 26.5t48.5 12.5q30 0 48 -29l57 -88q9 -13 9 -22q0 -21 -31 -21z"/>
<glyph glyph-name="a" unicode="a" horiz-adv-x="587" d="M228 -11q-78 0 -132.5 43.5t-54.5 119.5v2q0 83 59 126.5t159 43.5q73 0 142 -22v13q0 56 -33.5 85.5t-97.5 29.5t-117 -21q-10 -3 -19 -3q-21 0 -36 14.5t-15 35.5q0 35 33 48q82 31 170 31q118 0 175 -59q57 -56 57 -163v-260q0 -25 -17 -41.5t-42 -16.5 q-26 0 -42.5 15t-16.5 36v20q-64 -77 -172 -77zM262 77q61 0 101 31.5t40 81.5v36q-54 21 -120 21q-58 0 -91 -23.5t-33 -64.5v-2q0 -37 29 -58.5t74 -21.5z"/>
<glyph glyph-name="b" unicode="b" d="M76 55v620q0 25 17 42.5t43 17.5t43.5 -17.5t17.5 -42.5v-235q70 99 180 99q99 0 172 -74t73 -200v-2q0 -125 -72.5 -199.5t-172.5 -74.5q-110 0 -180 93v-27q0 -25 -18 -42.5t-43 -17.5t-42.5 17.5t-17.5 42.5zM348 94q64 0 107.5 46.5t43.5 122.5v2q0 75 -44 122 t-107 47t-108.5 -47.5t-45.5 -121.5v-2q0 -74 45.5 -121.5t108.5 -47.5z"/>
<glyph glyph-name="c" unicode="c" horiz-adv-x="571" d="M320 -12q-117 0 -195 79.5t-78 193.5v2q0 114 78.5 195t196.5 81q109 0 185 -66q19 -17 19 -42q0 -23 -16.5 -39t-39.5 -16q-20 0 -36 12q-54 45 -113 45q-65 0 -109 -49t-44 -119v-2q0 -71 44.5 -120t113.5 -49q63 0 118 47q15 13 33 13q22 0 37 -15.5t15 -37.5 q0 -24 -17 -38q-78 -75 -192 -75z"/>
<glyph glyph-name="d" unicode="d" d="M595 675v-620q0 -25 -17.5 -42.5t-42.5 -17.5q-26 0 -43.5 17.5t-17.5 42.5v33q-70 -99 -180 -99q-99 0 -172 74.5t-73 199.5v2q0 126 72.5 200t172.5 74q109 0 180 -93v229q0 25 17.5 42.5t42.5 17.5q26 0 43.5 -17.5t17.5 -42.5zM323 434q-64 0 -108 -46t-44 -123v-2 q0 -75 44.5 -122t107.5 -47t108 47.5t45 121.5v2q0 74 -45 121.5t-108 47.5z"/>
<glyph glyph-name="e" unicode="e" horiz-adv-x="604" d="M167 301h271q-6 61 -41 100t-93 39q-55 0 -92 -38.5t-45 -100.5zM508 58q-78 -70 -190 -70q-116 0 -193.5 76.5t-77.5 197.5v2q0 115 73 195t185 80q80 0 139 -40.5t85.5 -98t26.5 -121.5q0 -25 -16.5 -41.5t-40.5 -16.5h-331q10 -63 51 -98.5t101 -35.5q69 0 125 46 q14 11 31 11q20 0 34 -14t14 -35t-16 -37z"/>
<glyph glyph-name="f" unicode="f" horiz-adv-x="376" d="M103 55v369h-21q-21 0 -36 14.5t-15 35.5t15 36t36 15h21v39q0 87 43 130q42 42 119 42q33 0 61 -5q17 -2 29.5 -16t12.5 -34q0 -21 -15 -36t-36 -14q-14 2 -25 2q-70 0 -70 -80v-29h94q22 0 36.5 -14.5t14.5 -35.5t-15 -35.5t-36 -14.5h-92v-369q0 -25 -18 -42.5 t-43 -17.5t-42.5 17.5t-17.5 42.5z"/>
<glyph glyph-name="g" unicode="g" d="M311 -162q-107 0 -204 47q-34 13 -34 48q0 20 15 35t36 15q12 0 22 -5q75 -42 162 -42q81 0 124 41.5t43 120.5v41q-75 -97 -186 -97q-98 0 -169 67.5t-71 179.5v2q0 112 71.5 180t168.5 68q110 0 185 -90v25q0 25 17.5 42.5t42.5 17.5q26 0 43.5 -18t17.5 -43v-365 q0 -132 -67 -199q-71 -71 -217 -71zM321 145q64 0 109.5 41t45.5 104v2q0 63 -45.5 104t-109.5 41t-107 -40.5t-43 -104.5v-2q0 -64 43.5 -104.5t106.5 -40.5z"/>
<glyph glyph-name="h" unicode="h" horiz-adv-x="620" d="M76 55v620q0 25 17.5 42.5t42.5 17.5t43 -17.5t18 -42.5v-228q64 92 165 92q88 0 138 -54.5t50 -147.5v-282q0 -25 -17 -42.5t-43 -17.5t-43.5 17.5t-17.5 42.5v245q0 62 -29.5 95.5t-83.5 33.5q-53 0 -86 -35t-33 -96v-243q0 -25 -17.5 -42.5t-43.5 -17.5 q-25 0 -42.5 17.5t-17.5 42.5z"/>
<glyph glyph-name="i" unicode="i" horiz-adv-x="286" d="M74 664v6q0 27 19.5 43t49.5 16t49.5 -16t19.5 -43v-6q0 -27 -19.5 -43.5t-49.5 -16.5t-49.5 16.5t-19.5 43.5zM83 55v418q0 26 17.5 43.5t42.5 17.5t43 -18t18 -43v-418q0 -25 -17.5 -42.5t-43.5 -17.5q-25 0 -42.5 17.5t-17.5 42.5z"/>
<glyph glyph-name="j" unicode="j" horiz-adv-x="286" d="M58 -163h-9q-66 2 -66 50q0 22 14 36t34 14q1 0 4 -1h3q45 0 45 57v480q0 26 17.5 43.5t42.5 17.5t43 -18t18 -43v-480q0 -78 -38.5 -117t-107.5 -39zM74 664v6q0 27 19.5 43t49.5 16t49.5 -16t19.5 -43v-6q0 -27 -19.5 -43.5t-49.5 -16.5t-49.5 16.5t-19.5 43.5z"/>
<glyph glyph-name="k" unicode="k" horiz-adv-x="580" d="M76 55v620q0 25 17.5 42.5t42.5 17.5t43 -17.5t18 -42.5v-390l227 223q26 26 52 26q23 0 38 -16t15 -39q0 -26 -27 -51l-140 -129l160 -209q16 -22 16 -40q0 -24 -16.5 -39.5t-40.5 -15.5q-32 0 -53 27l-151 201l-80 -76v-92q0 -25 -17.5 -42.5t-43.5 -17.5 q-25 0 -42.5 17.5t-17.5 42.5z"/>
<glyph glyph-name="l" unicode="l" horiz-adv-x="286" d="M83 55v620q0 25 17.5 42.5t42.5 17.5t43 -17.5t18 -42.5v-620q0 -25 -17.5 -42.5t-43.5 -17.5q-25 0 -42.5 17.5t-17.5 42.5z"/>
<glyph glyph-name="m" unicode="m" horiz-adv-x="950" d="M76 55v418q0 26 17.5 43.5t42.5 17.5q26 0 43.5 -18t17.5 -43v-25q66 91 161 91q112 0 158 -93q70 93 178 93q87 0 136 -53t49 -149v-282q0 -25 -17.5 -42.5t-42.5 -17.5q-26 0 -43.5 17.5t-17.5 42.5v245q0 63 -28 96t-79 33t-82 -34.5t-31 -96.5v-243 q0 -25 -17.5 -42.5t-42.5 -17.5q-26 0 -43.5 17.5t-17.5 42.5v246q0 61 -28 94.5t-79 33.5t-82 -35.5t-31 -95.5v-243q0 -25 -17.5 -42.5t-43.5 -17.5q-25 0 -42.5 17.5t-17.5 42.5z"/>
<glyph glyph-name="n" unicode="n" horiz-adv-x="620" d="M76 55v418q0 26 17.5 43.5t42.5 17.5q26 0 43.5 -18t17.5 -43v-26q64 92 165 92q88 0 138 -54.5t50 -147.5v-282q0 -25 -17 -42.5t-43 -17.5t-43.5 17.5t-17.5 42.5v245q0 62 -29.5 95.5t-83.5 33.5q-53 0 -86 -35t-33 -96v-243q0 -25 -17.5 -42.5t-43.5 -17.5 q-25 0 -42.5 17.5t-17.5 42.5z"/>
<glyph glyph-name="o" unicode="o" horiz-adv-x="657" d="M327 -12q-120 0 -200 79.5t-80 193.5v2q0 115 81 195.5t201 80.5t200.5 -80t80.5 -194v-2q0 -114 -81 -194.5t-202 -80.5zM329 94q72 0 116 48.5t44 118.5v2q0 71 -46 120.5t-116 49.5q-71 0 -115 -48.5t-44 -119.5v-2q0 -70 46 -119.5t115 -49.5z"/>
<glyph glyph-name="p" unicode="p" d="M76 -105v578q0 26 17.5 43.5t42.5 17.5q26 0 43.5 -18t17.5 -43v-33q70 99 180 99q99 0 172 -74t73 -200v-2q0 -125 -72.5 -199.5t-172.5 -74.5q-110 0 -180 93v-187q0 -25 -17.5 -42.5t-43.5 -17.5q-25 0 -42.5 17.5t-17.5 42.5zM348 94q64 0 107.5 46.5t43.5 122.5v2 q0 75 -44 122t-107 47t-108.5 -47.5t-45.5 -121.5v-2q0 -74 45.5 -121.5t108.5 -47.5z"/>
<glyph glyph-name="q" unicode="q" d="M595 473v-578q0 -25 -17.5 -42.5t-42.5 -17.5q-26 0 -43.5 17.5t-17.5 42.5v193q-70 -99 -180 -99q-99 0 -172 74.5t-73 199.5v2q0 126 72.5 200t172.5 74q109 0 180 -93v28q0 25 17.5 42.5t42.5 17.5q26 0 43.5 -18t17.5 -43zM323 434q-64 0 -108 -46t-44 -123v-2 q0 -75 44.5 -122t107.5 -47t108 47.5t45 121.5v2q0 74 -45 121.5t-108 47.5z"/>
<glyph glyph-name="r" unicode="r" horiz-adv-x="413" d="M76 55v418q0 26 17.5 43.5t42.5 17.5q26 0 43.5 -18t17.5 -43v-54q22 51 58 83.5t75 32.5q28 0 44 -16.5t16 -43.5q0 -23 -13.5 -38.5t-34.5 -19.5q-67 -12 -106 -63.5t-39 -142.5v-156q0 -25 -18 -42.5t-43 -17.5t-42.5 17.5t-17.5 42.5z"/>
<glyph glyph-name="s" unicode="s" horiz-adv-x="501" d="M257 -10q-110 0 -201 63q-23 12 -23 42q0 20 14 34.5t35 14.5q14 0 26 -7q76 -51 152 -51q39 0 60.5 15.5t21.5 41.5v2q0 38 -106 70q-8 3 -12 4q-36 10 -60 20t-51 27.5t-40.5 44.5t-13.5 63v2q0 73 53.5 117t134.5 44q85 0 166 -43q29 -15 29 -46q0 -21 -14.5 -35 t-35.5 -14q-12 0 -24 6q-70 36 -124 36q-34 0 -54 -14.5t-20 -37.5v-2q0 -25 27 -39.5t82 -32.5q7 -2 10 -3q35 -11 59 -21.5t50.5 -28.5t40.5 -44t14 -60v-2q0 -80 -55 -123t-141 -43z"/>
<glyph glyph-name="t" unicode="t" horiz-adv-x="411" d="M253 -9q-152 0 -152 155v278h-20q-22 0 -37 15t-15 37t15 37t37 15h20v90q0 25 18 42.5t43 17.5t42.5 -17.5t17.5 -42.5v-90h95q22 0 37.5 -15t15.5 -37t-15.5 -37t-37.5 -15h-95v-259q0 -66 65 -66q8 0 18.5 1.5t11.5 1.5q21 0 36 -14.5t15 -35.5q0 -34 -32 -47 q-40 -14 -83 -14z"/>
<glyph glyph-name="u" unicode="u" horiz-adv-x="620" d="M545 473v-418q0 -25 -18 -42.5t-43 -17.5t-43 17.5t-18 42.5v27q-63 -93 -165 -93q-88 0 -138 55t-50 148v281q0 25 17.5 43t42.5 18q26 0 43.5 -18t17.5 -43v-245q0 -61 29.5 -94.5t83.5 -33.5q53 0 86 34.5t33 95.5v243q0 25 17.5 43t43.5 18q25 0 43 -18t18 -43z"/>
<glyph glyph-name="v" unicode="v" horiz-adv-x="586" d="M365 43q-24 -53 -69 -53h-6q-46 0 -69 53l-176 403q-7 21 -7 30q0 23 18 40.5t42 17.5q42 0 60 -44l136 -350l138 352q18 42 57 42q25 0 42 -16.5t17 -41.5q0 -15 -7 -29z"/>
<glyph glyph-name="w" unicode="w" horiz-adv-x="853" d="M253 -9q-49 0 -67 54l-142 402q-6 16 -6 31q0 23 16.5 39.5t42.5 16.5q44 0 59 -48l102 -320l103 320q15 48 62 48h7q47 0 62 -48l104 -320l103 321q14 47 59 47q24 0 40.5 -16.5t16.5 -39.5q0 -12 -5 -27l-144 -406q-19 -54 -67 -54h-4q-50 0 -66 52l-103 314l-104 -314 q-16 -52 -65 -52h-4z"/>
<glyph glyph-name="x" unicode="x" horiz-adv-x="573" d="M48 46q0 23 17 42l150 180l-139 165q-20 25 -20 46q0 25 16.5 40.5t39.5 15.5q32 0 56 -30l119 -156l121 155q24 31 52 31q24 0 40.5 -15.5t16.5 -37.5q0 -21 -17 -41l-143 -171l148 -175q20 -25 20 -46q0 -25 -16.5 -40.5t-39.5 -15.5q-33 0 -56 31l-128 165l-128 -165 q-26 -31 -53 -31q-23 0 -39.5 15.5t-16.5 37.5z"/>
<glyph glyph-name="y" unicode="y" horiz-adv-x="587" d="M172 -163q-46 0 -84 15q-38 13 -38 50q0 22 14.5 36t34.5 14q10 0 22 -4q25 -7 42 -7q27 0 43.5 12.5t31.5 43.5l4 11l-196 438q-7 16 -7 29q0 25 17 42t43 17q41 0 59 -46l142 -351l132 351q18 46 58 46q24 0 41 -16.5t17 -40.5q0 -14 -5 -29l-193 -463 q-34 -81 -74 -114.5t-104 -33.5z"/>
<glyph glyph-name="z" unicode="z" horiz-adv-x="560" d="M108 0q-25 0 -42 14t-17 35v2q0 30 27 58l281 320h-249q-21 0 -35.5 14.5t-14.5 34.5q0 21 14.5 35.5t35.5 14.5h348q25 0 41.5 -13.5t16.5 -34.5v-3q0 -29 -26 -58l-282 -320h260q21 0 35.5 -14.5t14.5 -35.5q0 -20 -14.5 -34.5t-35.5 -14.5h-358z"/>
<glyph glyph-name="braceleft" unicode="{" horiz-adv-x="487" d="M385 -135q-111 24 -153.5 70t-42.5 124q0 7 1 35t1 37q0 55 -22 81t-72 27q-24 1 -37.5 14.5t-13.5 33.5t13.5 33.5t37.5 14.5q51 2 72.5 27.5t21.5 81.5q0 9 -1 37t-1 35q0 77 42.5 123t153.5 70q23 5 39 -7t16 -34q0 -32 -28 -41q-69 -21 -90 -48t-21 -81 q0 -10 1 -36.5t1 -37.5q0 -56 -26 -88t-78 -49q53 -17 78.5 -49t25.5 -88q0 -11 -1 -37.5t-1 -36.5q0 -54 21 -81t90 -48q28 -9 28 -41q0 -22 -16 -34t-39 -7z"/>
<glyph glyph-name="bar" unicode="|" horiz-adv-x="331" d="M117 -85v840q0 20 14 34t34 14t34.5 -14t14.5 -34v-840q0 -20 -14.5 -34t-34.5 -14t-34 14t-14 34z"/>
<glyph glyph-name="braceright" unicode="}" horiz-adv-x="487" d="M102 709q111 -24 153.5 -70t42.5 -123q0 -7 -1 -35t-1 -37q0 -56 22 -81.5t73 -27.5q23 -1 36.5 -14.5t13.5 -33.5t-13.5 -33.5t-36.5 -14.5q-51 -1 -73 -27t-22 -81q0 -9 1 -37t1 -35q0 -78 -42.5 -124t-153.5 -70q-23 -5 -39 7t-16 34q0 32 29 41q69 21 89.5 48 t20.5 81q0 10 -1 36.5t-1 37.5q0 56 26 88t78 49q-53 17 -78.5 49t-25.5 88q0 11 1 37.5t1 36.5q0 54 -20.5 81t-89.5 48q-29 9 -29 41q0 22 16 34t39 7z"/>
<glyph glyph-name="asciitilde" unicode="~" horiz-adv-x="495" d="M134 247q-11 -20 -32 -20q-15 0 -26 10t-11 24t4 22q17 46 40 68.5t62 22.5q30 0 79 -19.5t64 -19.5q30 0 47 31q11 21 32 21q15 0 26 -10.5t11 -23.5q0 -14 -4 -23q-17 -46 -40 -68.5t-62 -22.5q-30 0 -79 20t-64 20q-30 0 -47 -32z"/>
<glyph glyph-name="uni00A0" unicode=" " horiz-adv-x="300"/>
<glyph glyph-name="exclamdown" unicode="¡" horiz-adv-x="302" d="M188 448l35 -408q2 -18 -8.5 -30.5t-27.5 -12.5h-72q-17 0 -27 12.5t-8 30.5l35 408q1 17 11 26.5t25 9.5t25.5 -10t11.5 -26zM222 627q0 -30 -20 -50t-51 -20q-30 0 -50.5 20t-20.5 50v9q0 29 20.5 49t50.5 20q31 0 51 -20t20 -49v-9z"/>
<glyph glyph-name="cent" unicode="¢" horiz-adv-x="581" d="M219 41l11 55q-79 28 -128.5 98.5t-49.5 158.5v2q0 115 78.5 195t195.5 80h8l9 46q7 35 43 35q20 0 33 -15.5t8 -36.5l-8 -42q49 -16 95 -55q18 -16 18 -41q0 -23 -16 -38.5t-38 -15.5q-20 0 -34 12q-27 22 -50 32l-64 -326q65 1 118 48q16 12 34 12q20 0 34.5 -15 t14.5 -36q0 -23 -16 -37q-80 -77 -194 -77h-7l-11 -56q-7 -35 -42 -35q-21 0 -33.5 15.5t-8.5 36.5zM170 355q0 -51 22.5 -91.5t62.5 -61.5l63 323q-63 -2 -105.5 -50.5t-42.5 -117.5v-2z"/>
<glyph glyph-name="sterling" unicode="£" horiz-adv-x="644" d="M58 43q0 33 33 44l51 15v176h-32q-22 0 -37 15t-15 37q0 21 15 36.5t37 15.5h32v92q0 112 62 174q60 62 168 62q119 0 195 -81q19 -19 19 -44t-17.5 -42.5t-43.5 -17.5q-27 0 -44 19q-49 52 -107 52q-44 0 -74 -28q-33 -35 -33 -97v-89h202q21 0 36.5 -15.5t15.5 -36.5 q0 -22 -15.5 -37t-36.5 -15h-202v-171h276q23 0 38.5 -15.5t15.5 -38.5q0 -22 -15.5 -37.5t-38.5 -15.5h-438q-21 0 -34 12.5t-13 30.5z"/>
<glyph glyph-name="yen" unicode="¥" horiz-adv-x="686" d="M402 264v-73h154q18 0 31 -13t13 -32q0 -18 -13 -31t-31 -13h-154v-48q0 -25 -17 -42t-42 -17t-42 17t-17 42v48h-154q-18 0 -31 13t-13 31q0 19 13 32t31 13h154v73h-154q-18 0 -31 13t-13 31q0 19 13 32t31 13h119l-184 252q-15 21 -15 42q0 24 17.5 41t43.5 17 q35 0 58 -34l175 -261l177 260q23 35 56 35q25 0 42 -15.5t17 -41.5q0 -23 -15 -43l-186 -252h121q18 0 31 -13t13 -32q0 -18 -13 -31t-31 -13h-154z"/>
<glyph glyph-name="section" unicode="§" horiz-adv-x="632" d="M326 -10q-122 0 -208 72q-18 16 -18 38q0 21 14.5 35.5t35.5 14.5q17 0 31 -12q67 -56 144 -56q39 0 60 13.5t21 35.5v2q0 22 -28 37.5t-104 32.5q-117 26 -166.5 59t-49.5 87v2q0 88 107 116q-55 35 -55 95v2q0 67 52.5 106.5t143.5 39.5q122 0 208 -72q18 -16 18 -38 q0 -21 -14.5 -35t-35.5 -14q-18 0 -31 11q-67 56 -144 56q-39 0 -60 -13.5t-21 -35.5v-2q0 -21 27 -36.5t105 -33.5q118 -27 167 -59.5t49 -86.5v-2q0 -88 -107 -116q56 -34 56 -95v-2q0 -66 -53 -106t-144 -40zM388 278q34 0 55.5 15.5t21.5 38.5v2q0 22 -27 38t-90 32 q-71 18 -104 18q-34 0 -55.5 -15.5t-21.5 -38.5v-2q0 -22 27 -38t91 -32q69 -18 103 -18z"/>
<glyph glyph-name="dieresis" unicode="¨" horiz-adv-x="500" d="M350 720q27 0 46 -17.5t19 -44.5v-7q0 -27 -19 -44t-46 -17q-28 0 -47 17t-19 44v7q0 27 19 44.5t47 17.5zM151 720q27 0 46 -17.5t19 -44.5v-7q0 -27 -19 -44t-46 -17q-28 0 -47 17t-19 44v7q0 27 19 44.5t47 17.5z"/>
<glyph glyph-name="copyright" unicode="©" horiz-adv-x="830" d="M414 -12q-151 0 -256 105.5t-105 254.5v2q0 149 106 255.5t257 106.5t256 -105.5t105 -254.5v-2q0 -149 -106 -255.5t-257 -106.5zM414 24q138 0 231.5 95.5t93.5 230.5v2q0 135 -93 229.5t-230 94.5q-138 0 -231.5 -95.5t-93.5 -230.5v-2q0 -135 93 -229.5t230 -94.5z M419 159q-82 0 -137 56t-55 138v2q0 82 55 139t139 57q77 0 130 -43q16 -11 16 -30q0 -16 -10.5 -26.5t-25.5 -10.5q-11 0 -24 10q-41 32 -86 32q-50 0 -84 -37t-34 -90v-2q0 -52 34 -89.5t84 -37.5t92 36q11 9 22 9q14 0 24.5 -10.5t10.5 -24.5q0 -16 -11 -25 q-61 -53 -140 -53z"/>
<glyph glyph-name="ordfeminine" unicode="ª" horiz-adv-x="390" d="M159 403q-44 0 -73.5 24t-29.5 66v2q0 45 33 69t87 24q36 0 76 -11v5q0 61 -70 61q-29 0 -58 -11q-9 -3 -15 -3q-13 0 -21.5 8.5t-8.5 20.5q0 21 19 28q43 17 93 17q65 0 97 -33q31 -30 31 -89v-144q0 -13 -10.5 -23t-24.5 -10q-13 0 -23 9t-10 22v8q-35 -40 -92 -40z M77 282q-12 0 -20.5 8.5t-8.5 20.5t8.5 20.5t20.5 8.5h222q12 0 21 -8.5t9 -20.5t-9 -20.5t-21 -8.5h-222zM177 454q32 0 53.5 17t21.5 43v18q-31 11 -63 11q-30 0 -47 -12t-17 -33v-2q0 -19 14.5 -30.5t37.5 -11.5z"/>
<glyph glyph-name="guillemotleft" unicode="«" horiz-adv-x="606" d="M489 42q-26 0 -42 21l-129 166q-15 20 -15 35q0 17 15 35l126 163q17 24 45 24q21 0 35 -14.5t14 -35.5q0 -18 -14 -34l-105 -137l107 -140q13 -16 13 -33q-1 -21 -15 -35.5t-35 -14.5zM237 42q-26 0 -42 21l-129 166q-14 19 -14 35q0 18 14 35l126 163q19 24 46 24 q20 0 34 -15t14 -35q0 -17 -13 -34l-106 -137l108 -140q12 -15 12 -33q0 -21 -14.5 -35.5t-35.5 -14.5z"/>
<glyph glyph-name="registered" unicode="®" horiz-adv-x="382" d="M191 360q-73 0 -123.5 51t-50.5 123v1q0 72 51 123.5t123 51.5q73 0 123.5 -51t50.5 -123v-1q0 -72 -51 -123.5t-123 -51.5zM191 379q65 0 109.5 46t44.5 110v1q0 64 -44.5 109.5t-109.5 45.5t-109.5 -46t-44.5 -110v-1q0 -64 44.5 -109.5t109.5 -45.5zM119 466v140 q0 10 6.5 16.5t15.5 6.5h63q33 0 53 -15.5t20 -44.5q0 -40 -36 -55l27 -33q6 -6 6 -16q0 -9 -6 -15t-16 -6q-9 0 -18 9l-42 52h-29v-39q0 -9 -6.5 -15.5t-15.5 -6.5t-15.5 6.5t-6.5 15.5zM163 541h38q31 0 31 25t-31 25h-38v-50z"/>
<glyph glyph-name="macron" unicode="¯" horiz-adv-x="500" d="M383 606h-266q-18 0 -31 13t-13 31t13 31t31 13h266q18 0 31 -13t13 -31t-13 -31t-31 -13z"/>
<glyph glyph-name="degree" unicode="°" horiz-adv-x="471" d="M236 381q-66 0 -116.5 48.5t-50.5 113.5v2q0 65 50.5 113t116.5 48t116 -48t50 -113v-2q0 -65 -50 -113.5t-116 -48.5zM236 447q40 0 67 28.5t27 67.5v2q0 39 -27 67t-67 28q-41 0 -68 -28t-27 -67v-2q0 -39 27.5 -67.5t67.5 -28.5z"/>
<glyph glyph-name="plusminus" unicode="±" horiz-adv-x="634" d="M262 238l1 135h-141q-22 0 -37.5 15.5t-15.5 37.5t15.5 37.5t37.5 15.5h141l-1 135q0 23 16 39t39 16t39 -16t16 -39l-1 -135h140q22 0 38 -15.5t16 -37.5t-16 -37.5t-38 -15.5h-140l1 -135q0 -23 -16 -39t-39 -16t-39 16t-16 39zM120 0q-21 0 -36 15t-15 36q0 22 15 37 t36 15h394q21 0 36 -15t15 -37q0 -21 -15 -36t-36 -15h-394z"/>
<glyph glyph-name="acute" unicode="´" horiz-adv-x="500" d="M207 590q-30 0 -30 21q0 10 8 22l57 88q18 29 48 29q25 0 48.5 -12.5t23.5 -26.5q0 -15 -17 -30l-67 -64q-29 -27 -71 -27z"/>
<glyph glyph-name="paragraph" unicode="¶" horiz-adv-x="557" d="M346 56v188h-18q-128 0 -208 59.5t-80 167.5v2q0 105 74.5 166t196.5 61h97q26 0 44 -18t18 -44v-582q0 -26 -18 -43.5t-44 -17.5t-44 18t-18 43z"/>
<glyph glyph-name="periodcentered" unicode="·" horiz-adv-x="269" d="M64 311q0 29 20.5 49t50.5 20q29 0 49.5 -20t20.5 -49v-9q0 -30 -20.5 -50t-49.5 -20q-30 0 -50.5 20t-20.5 50v9z"/>
<glyph glyph-name="cedilla" unicode="¸" horiz-adv-x="500" d="M312 10l-61 -141q-12 -29 -39 -29q-20 0 -45 14.5t-25 29.5q0 12 8 23l71 103h91z"/>
<glyph glyph-name="ordmasculine" unicode="º" horiz-adv-x="390" d="M194 402q-64 0 -107 43.5t-43 106.5v2q0 63 43.5 107t108.5 44t107.5 -43.5t42.5 -106.5v-2q0 -63 -43.5 -107t-108.5 -44zM75 282q-12 0 -20.5 8.5t-8.5 20.5t8.5 20.5t20.5 8.5h240q12 0 20.5 -8.5t8.5 -20.5t-8.5 -20.5t-20.5 -8.5h-240zM196 464q36 0 58 25.5 t22 62.5v2q0 37 -23.5 63t-58.5 26t-57.5 -25.5t-22.5 -62.5v-2q0 -37 23.5 -63t58.5 -26z"/>
<glyph glyph-name="guillemotright" unicode="»" horiz-adv-x="606" d="M369 486q25 0 42 -22l129 -165q15 -20 15 -36q0 -15 -15 -35l-126 -162q-19 -24 -46 -24q-20 0 -34 15t-14 35q0 17 13 34l106 136l-108 140q-12 16 -12 34q0 21 14.5 35.5t35.5 14.5zM117 486q25 0 42 -22l129 -165q15 -20 15 -36q0 -15 -15 -35l-126 -162 q-17 -24 -45 -24q-21 0 -35 14.5t-14 35.5q0 18 14 34l105 136l-107 140q-13 16 -13 34q1 21 15 35.5t35 14.5z"/>
<glyph glyph-name="questiondown" unicode="¿" horiz-adv-x="541" d="M290 484h6q17 0 29 -11.5t14 -28.5l10 -86q3 -20 -8 -33.5t-31 -16.5q-145 -14 -145 -108v-2q0 -43 30.5 -69t83.5 -26q75 0 136 55q17 14 37 14q23 0 39.5 -16t16.5 -39q0 -26 -20 -43q-88 -83 -212 -83q-106 0 -170 55t-64 148v2q0 168 201 202l5 46q2 17 13.5 28.5 t28.5 11.5zM367 627q0 -30 -20 -50t-51 -20t-51 20t-20 50v9q0 29 20 49t51 20t51 -20t20 -49v-9z"/>
<glyph glyph-name="Agrave" unicode="À" horiz-adv-x="773" d="M42 52q0 12 8 28l260 580q23 50 74 50h6q50 0 73 -50l260 -580q7 -13 7 -26q0 -25 -16.5 -42t-41.5 -17q-42 0 -60 43l-57 131h-340l-59 -135q-16 -39 -57 -39q-24 0 -40.5 16.5t-16.5 40.5zM262 278h246l-123 283zM389 763q-42 0 -70 27l-68 64q-17 15 -17 30 q0 14 23.5 26.5t48.5 12.5q30 0 48 -29l57 -88q9 -13 9 -22q0 -21 -31 -21z"/>
<glyph glyph-name="Aacute" unicode="Á" horiz-adv-x="773" d="M42 52q0 12 8 28l260 580q23 50 74 50h6q50 0 73 -50l260 -580q7 -13 7 -26q0 -25 -16.5 -42t-41.5 -17q-42 0 -60 43l-57 131h-340l-59 -135q-16 -39 -57 -39q-24 0 -40.5 16.5t-16.5 40.5zM262 278h246l-123 283zM382 763q-30 0 -30 21q0 10 8 22l57 88q18 29 48 29 q25 0 48.5 -12.5t23.5 -26.5q0 -15 -17 -30l-67 -64q-29 -27 -71 -27z"/>
<glyph glyph-name="Acircumflex" unicode="Â" horiz-adv-x="773" d="M42 52q0 12 8 28l260 580q23 50 74 50h6q50 0 73 -50l260 -580q7 -13 7 -26q0 -25 -16.5 -42t-41.5 -17q-42 0 -60 43l-57 131h-340l-59 -135q-16 -39 -57 -39q-24 0 -40.5 16.5t-16.5 40.5zM262 278h246l-123 283zM384 835l-52 -45q-32 -27 -74 -27q-27 0 -27 20 q0 8 12 24l66 83q24 29 58 29h36q35 0 58 -29l66 -83q12 -16 12 -24q0 -20 -29 -20q-41 0 -74 27z"/>
<glyph glyph-name="Atilde" unicode="Ã" horiz-adv-x="773" d="M42 52q0 12 8 28l260 580q23 50 74 50h6q50 0 73 -50l260 -580q7 -13 7 -26q0 -25 -16.5 -42t-41.5 -17q-42 0 -60 43l-57 131h-340l-59 -135q-16 -39 -57 -39q-24 0 -40.5 16.5t-16.5 40.5zM262 278h246l-123 283zM277 776q-13 -20 -33 -20q-15 0 -26 10t-11 23 q0 9 4 23q17 46 40.5 68.5t61.5 22.5q30 0 79 -20t65 -20q29 0 46 32q13 20 33 20q15 0 26 -10t11 -23q0 -9 -4 -23q-17 -46 -40.5 -68.5t-61.5 -22.5q-30 0 -79 20t-65 20q-29 0 -46 -32z"/>
<glyph glyph-name="Adieresis" unicode="Ä" horiz-adv-x="773" d="M42 52q0 12 8 28l260 580q23 50 74 50h6q50 0 73 -50l260 -580q7 -13 7 -26q0 -25 -16.5 -42t-41.5 -17q-42 0 -60 43l-57 131h-340l-59 -135q-16 -39 -57 -39q-24 0 -40.5 16.5t-16.5 40.5zM262 278h246l-123 283zM485 893q27 0 46 -17.5t19 -44.5v-7q0 -27 -19 -44 t-46 -17q-28 0 -47 17t-19 44v7q0 27 19 44.5t47 17.5zM286 893q27 0 46 -17.5t19 -44.5v-7q0 -27 -19 -44t-46 -17q-28 0 -47 17t-19 44v7q0 27 19 44.5t47 17.5z"/>
<glyph glyph-name="Aring" unicode="Å" horiz-adv-x="790" d="M461 684l271 -605q7 -13 7 -25q0 -24 -17 -41.5t-42 -17.5q-40 0 -60 43l-57 131h-340l-58 -135q-18 -39 -57 -39q-24 0 -41 16.5t-17 40.5q0 7 7 26l272 606q-48 33 -48 87v2q0 44 34.5 76.5t79.5 32.5t79.5 -32.5t34.5 -76.5v-2q0 -56 -48 -87zM395 710q25 0 43.5 18 t18.5 43v2q0 25 -18.5 43t-43.5 18t-43.5 -18t-18.5 -43v-2q0 -25 18.5 -43t43.5 -18zM270 278h246l-123 283z"/>
<glyph glyph-name="AE" unicode="Æ" horiz-adv-x="1045" d="M34 45q0 20 10 35l337 577q24 43 72 43h481q22 0 38.5 -16t16.5 -39t-16 -39t-39 -16h-324v-182h279q23 0 39 -16.5t16 -39.5q0 -22 -16 -38t-39 -16h-279v-188h329q23 0 39 -16t16 -39t-16 -39t-39 -16h-390q-26 0 -44 18t-18 44v107h-264l-81 -141q-20 -34 -54 -34 q-23 0 -38.5 14.5t-15.5 36.5zM286 278h201v315h-20z"/>
<glyph glyph-name="Ccedilla" unicode="Ç" horiz-adv-x="738" d="M669 82q-99 -88 -233 -93l-51 -120q-12 -29 -39 -29q-20 0 -45 14.5t-25 29.5q0 12 8 23l60 88q-125 23 -205 121.5t-80 231.5v2q0 152 102 257t259 105q137 0 240 -79q24 -18 24 -49q0 -25 -17.5 -42.5t-43.5 -17.5q-21 0 -37 12q-78 63 -167 63q-99 0 -165 -71.5 t-66 -175.5v-2q0 -104 66 -176t165 -72q96 0 175 67q16 14 37 14q23 0 40.5 -17t17.5 -40q0 -26 -20 -44z"/>
<glyph glyph-name="Egrave" unicode="È" horiz-adv-x="670" d="M152 0q-26 0 -44 18t-18 44v576q0 26 18 44t44 18h407q23 0 39 -16t16 -39t-16 -39t-39 -16h-346v-182h301q23 0 39 -16.5t16 -39.5q0 -22 -16 -38t-39 -16h-301v-188h351q22 0 38.5 -16t16.5 -39t-16 -39t-39 -16h-412zM354 753q-42 0 -70 27l-68 64q-17 15 -17 30 q0 14 23.5 26.5t48.5 12.5q30 0 48 -29l57 -88q9 -14 9 -22q0 -21 -31 -21z"/>
<glyph glyph-name="Eacute" unicode="É" horiz-adv-x="670" d="M348 753q-30 0 -30 21q0 10 8 22l57 88q18 29 48 29q25 0 48.5 -12.5t23.5 -26.5q0 -15 -17 -30l-67 -64q-29 -27 -71 -27zM152 0q-26 0 -44 18t-18 44v576q0 26 18 44t44 18h407q23 0 39 -16t16 -39t-16 -39t-39 -16h-346v-182h301q23 0 39 -16.5t16 -39.5 q0 -22 -16 -38t-39 -16h-301v-188h351q22 0 38.5 -16t16.5 -39t-16 -39t-39 -16h-412z"/>
<glyph glyph-name="Ecircumflex" unicode="Ê" horiz-adv-x="670" d="M350 825l-52 -45q-32 -27 -74 -27q-27 0 -27 20q0 8 12 24l66 83q24 29 58 29h36q35 0 58 -29l66 -83q12 -16 12 -24q0 -20 -29 -20q-41 0 -74 27zM152 0q-26 0 -44 18t-18 44v576q0 26 18 44t44 18h407q23 0 39 -16t16 -39t-16 -39t-39 -16h-346v-182h301q23 0 39 -16.5 t16 -39.5q0 -22 -16 -38t-39 -16h-301v-188h351q22 0 38.5 -16t16.5 -39t-16 -39t-39 -16h-412z"/>
<glyph glyph-name="Edieresis" unicode="Ë" horiz-adv-x="670" d="M451 883q27 0 46 -17.5t19 -44.5v-7q0 -27 -19 -44t-46 -17q-28 0 -47 17t-19 44v7q0 27 19 44.5t47 17.5zM252 883q27 0 46 -17.5t19 -44.5v-7q0 -27 -19 -44t-46 -17q-28 0 -47 17t-19 44v7q0 27 19 44.5t47 17.5zM152 0q-26 0 -44 18t-18 44v576q0 26 18 44t44 18h407 q23 0 39 -16t16 -39t-16 -39t-39 -16h-346v-182h301q23 0 39 -16.5t16 -39.5q0 -22 -16 -38t-39 -16h-301v-188h351q22 0 38.5 -16t16.5 -39t-16 -39t-39 -16h-412z"/>
<glyph glyph-name="Igrave" unicode="Ì" horiz-adv-x="317" d="M97 56v588q0 26 18 43.5t44 17.5q25 0 43 -17.5t18 -43.5v-588q0 -26 -18 -43.5t-43 -17.5q-26 0 -44 17.5t-18 43.5zM162 753q-42 0 -70 27l-68 64q-17 15 -17 30q0 14 23.5 26.5t48.5 12.5q30 0 48 -29l57 -88q9 -14 9 -22q0 -21 -31 -21z"/>
<glyph glyph-name="Iacute" unicode="Í" horiz-adv-x="317" d="M97 56v588q0 26 18 43.5t44 17.5q25 0 43 -17.5t18 -43.5v-588q0 -26 -18 -43.5t-43 -17.5q-26 0 -44 17.5t-18 43.5zM156 753q-30 0 -30 21q0 10 8 22l57 88q18 29 48 29q25 0 48.5 -12.5t23.5 -26.5q0 -15 -17 -30l-67 -64q-29 -27 -71 -27z"/>
<glyph glyph-name="Icircumflex" unicode="Î" horiz-adv-x="317" d="M97 56v588q0 26 18 43.5t44 17.5q25 0 43 -17.5t18 -43.5v-588q0 -26 -18 -43.5t-43 -17.5q-26 0 -44 17.5t-18 43.5zM158 825l-52 -45q-32 -27 -74 -27q-27 0 -27 20q0 8 12 24l66 83q24 29 58 29h36q35 0 58 -29l66 -83q12 -16 12 -24q0 -20 -29 -20q-41 0 -74 27z"/>
<glyph glyph-name="Idieresis" unicode="Ï" horiz-adv-x="317" d="M97 56v588q0 26 18 43.5t44 17.5q25 0 43 -17.5t18 -43.5v-588q0 -26 -18 -43.5t-43 -17.5q-26 0 -44 17.5t-18 43.5zM259 883q27 0 46 -17.5t19 -44.5v-7q0 -27 -19 -44t-46 -17q-28 0 -47 17t-19 44v7q0 27 19 44.5t47 17.5zM60 883q27 0 46 -17.5t19 -44.5v-7 q0 -27 -19 -44t-46 -17q-28 0 -47 17t-19 44v7q0 27 19 44.5t47 17.5z"/>
<glyph glyph-name="Eth" unicode="Ð" horiz-adv-x="812" d="M94 407h26v231q0 26 18 44t44 18h199q163 0 267.5 -99.5t104.5 -248.5v-2q0 -150 -104.5 -250t-267.5 -100h-199q-26 0 -44 18t-18 44v235h-26q-22 0 -38 16t-16 39t15.5 39t38.5 16zM242 588v-181h127q23 0 38.5 -16t15.5 -39t-16 -39t-38 -16h-127v-185h139 q109 0 176 66t67 170v2q0 104 -67 171t-176 67h-139z"/>
<glyph glyph-name="Ntilde" unicode="Ñ" horiz-adv-x="790" d="M90 55v587q0 26 18 44t44 18h13q35 0 64 -36l350 -453v430q0 25 17.5 42.5t42.5 17.5t43 -17.5t18 -42.5v-588q0 -26 -17.5 -43.5t-42.5 -17.5h-5q-35 0 -64 37l-360 466v-444q0 -25 -17.5 -42.5t-42.5 -17.5t-43 17.5t-18 42.5zM286 766q-13 -20 -33 -20q-15 0 -26 10 t-11 23q0 9 4 23q17 46 40.5 68.5t61.5 22.5q30 0 79 -20t65 -20q29 0 46 32q13 20 33 20q15 0 26 -10t11 -23q0 -9 -4 -23q-17 -46 -40.5 -68.5t-61.5 -22.5q-30 0 -79 20t-65 20q-29 0 -46 -32z"/>
<glyph glyph-name="Ograve" unicode="Ò" horiz-adv-x="850" d="M424 -12q-159 0 -262 105t-103 255v2q0 150 104 256t263 106t262 -105t103 -255v-2q0 -150 -104 -256t-263 -106zM426 102q103 0 169.5 71t66.5 175v2q0 104 -67.5 176.5t-170.5 72.5t-169.5 -71.5t-66.5 -175.5v-2q0 -104 67.5 -176t170.5 -72zM428 763q-42 0 -70 27 l-68 64q-17 15 -17 30q0 14 23.5 26.5t48.5 12.5q30 0 48 -29l57 -88q9 -13 9 -22q0 -21 -31 -21z"/>
<glyph glyph-name="Oacute" unicode="Ó" horiz-adv-x="850" d="M421 763q-30 0 -30 21q0 10 8 22l57 88q18 29 48 29q25 0 48.5 -12.5t23.5 -26.5q0 -15 -17 -30l-67 -64q-29 -27 -71 -27zM424 -12q-159 0 -262 105t-103 255v2q0 150 104 256t263 106t262 -105t103 -255v-2q0 -150 -104 -256t-263 -106zM426 102q103 0 169.5 71 t66.5 175v2q0 104 -67.5 176.5t-170.5 72.5t-169.5 -71.5t-66.5 -175.5v-2q0 -104 67.5 -176t170.5 -72z"/>
<glyph glyph-name="Ocircumflex" unicode="Ô" horiz-adv-x="850" d="M424 835l-52 -45q-32 -27 -74 -27q-27 0 -27 20q0 8 12 24l66 83q24 29 58 29h36q35 0 58 -29l66 -83q12 -16 12 -24q0 -20 -29 -20q-41 0 -74 27zM424 -12q-159 0 -262 105t-103 255v2q0 150 104 256t263 106t262 -105t103 -255v-2q0 -150 -104 -256t-263 -106zM426 102 q103 0 169.5 71t66.5 175v2q0 104 -67.5 176.5t-170.5 72.5t-169.5 -71.5t-66.5 -175.5v-2q0 -104 67.5 -176t170.5 -72z"/>
<glyph glyph-name="Otilde" unicode="Õ" horiz-adv-x="850" d="M424 -12q-159 0 -262 105t-103 255v2q0 150 104 256t263 106t262 -105t103 -255v-2q0 -150 -104 -256t-263 -106zM426 102q103 0 169.5 71t66.5 175v2q0 104 -67.5 176.5t-170.5 72.5t-169.5 -71.5t-66.5 -175.5v-2q0 -104 67.5 -176t170.5 -72zM316 776q-13 -20 -33 -20 q-15 0 -26 10t-11 23q0 9 4 23q17 46 40.5 68.5t61.5 22.5q30 0 79 -20t65 -20q29 0 46 32q13 20 33 20q15 0 26 -10t11 -23q0 -9 -4 -23q-17 -46 -40.5 -68.5t-61.5 -22.5q-30 0 -79 20t-65 20q-29 0 -46 -32z"/>
<glyph glyph-name="Odieresis" unicode="Ö" horiz-adv-x="850" d="M525 893q27 0 46 -17.5t19 -44.5v-7q0 -27 -19 -44t-46 -17q-28 0 -47 17t-19 44v7q0 27 19 44.5t47 17.5zM326 893q27 0 46 -17.5t19 -44.5v-7q0 -27 -19 -44t-46 -17q-28 0 -47 17t-19 44v7q0 27 19 44.5t47 17.5zM424 -12q-159 0 -262 105t-103 255v2q0 150 104 256 t263 106t262 -105t103 -255v-2q0 -150 -104 -256t-263 -106zM426 102q103 0 169.5 71t66.5 175v2q0 104 -67.5 176.5t-170.5 72.5t-169.5 -71.5t-66.5 -175.5v-2q0 -104 67.5 -176t170.5 -72z"/>
<glyph glyph-name="multiply" unicode="×" horiz-adv-x="634" d="M520 481l-130 -128l131 -128q17 -17 17 -40t-16 -38.5t-38 -15.5t-40 16l-128 132l-129 -131q-15 -17 -39 -17q-22 0 -37 15t-15 37q0 24 18 40l130 128l-132 128q-16 18 -16 40q0 23 16 38.5t38 15.5q23 0 40 -17l128 -131l129 131q15 17 38 17t38 -15.5t15 -37.5 q0 -23 -18 -39z"/>
<glyph glyph-name="Oslash" unicode="Ø" horiz-adv-x="850" d="M424 -12q-124 0 -218 67l-48 -48q-15 -17 -38 -17q-19 0 -31 11.5t-12 28.5q0 20 17 37l47 49q-82 99 -82 232v2q0 150 104 256t263 106q125 0 218 -68l48 49q17 17 38 17q18 0 30.5 -11.5t12.5 -27.5q0 -21 -17 -38l-47 -49q82 -99 82 -232v-2q0 -150 -104 -256 t-263 -106zM186 350q0 -79 42 -143l334 349q-61 45 -138 45q-103 0 -170.5 -72.5t-67.5 -176.5v-2zM426 99q103 0 170.5 72.5t67.5 176.5v2q0 77 -42 143l-335 -350q61 -44 139 -44z"/>
<glyph glyph-name="Ugrave" unicode="Ù" horiz-adv-x="757" d="M377 -11q-139 0 -218.5 79t-79.5 229v347q0 26 18 43.5t44 17.5q25 0 43 -17.5t18 -43.5v-342q0 -96 46.5 -147.5t130.5 -51.5q83 0 129.5 49.5t46.5 144.5v347q0 26 18 43.5t44 17.5q25 0 43 -17.5t18 -43.5v-341q0 -153 -80 -233.5t-221 -80.5zM381 753q-42 0 -70 27 l-68 64q-17 15 -17 30q0 14 23.5 26.5t48.5 12.5q30 0 48 -29l57 -88q9 -14 9 -22q0 -21 -31 -21z"/>
<glyph glyph-name="Uacute" unicode="Ú" horiz-adv-x="757" d="M375 753q-30 0 -30 21q0 10 8 22l57 88q18 29 48 29q25 0 48.5 -12.5t23.5 -26.5q0 -15 -17 -30l-67 -64q-29 -27 -71 -27zM377 -11q-139 0 -218.5 79t-79.5 229v347q0 26 18 43.5t44 17.5q25 0 43 -17.5t18 -43.5v-342q0 -96 46.5 -147.5t130.5 -51.5q83 0 129.5 49.5 t46.5 144.5v347q0 26 18 43.5t44 17.5q25 0 43 -17.5t18 -43.5v-341q0 -153 -80 -233.5t-221 -80.5z"/>
<glyph glyph-name="Ucircumflex" unicode="Û" horiz-adv-x="757" d="M377 825l-52 -45q-32 -27 -74 -27q-27 0 -27 20q0 8 12 24l66 83q24 29 58 29h36q35 0 58 -29l66 -83q12 -16 12 -24q0 -20 -29 -20q-41 0 -74 27zM377 -11q-139 0 -218.5 79t-79.5 229v347q0 26 18 43.5t44 17.5q25 0 43 -17.5t18 -43.5v-342q0 -96 46.5 -147.5 t130.5 -51.5q83 0 129.5 49.5t46.5 144.5v347q0 26 18 43.5t44 17.5q25 0 43 -17.5t18 -43.5v-341q0 -153 -80 -233.5t-221 -80.5z"/>
<glyph glyph-name="Udieresis" unicode="Ü" horiz-adv-x="757" d="M478 883q27 0 46 -17.5t19 -44.5v-7q0 -27 -19 -44t-46 -17q-28 0 -47 17t-19 44v7q0 27 19 44.5t47 17.5zM279 883q27 0 46 -17.5t19 -44.5v-7q0 -27 -19 -44t-46 -17q-28 0 -47 17t-19 44v7q0 27 19 44.5t47 17.5zM377 -11q-139 0 -218.5 79t-79.5 229v347 q0 26 18 43.5t44 17.5q25 0 43 -17.5t18 -43.5v-342q0 -96 46.5 -147.5t130.5 -51.5q83 0 129.5 49.5t46.5 144.5v347q0 26 18 43.5t44 17.5q25 0 43 -17.5t18 -43.5v-341q0 -153 -80 -233.5t-221 -80.5z"/>
<glyph glyph-name="Yacute" unicode="Ý" horiz-adv-x="696" d="M287 56v216l-241 331q-14 21 -14 43q0 25 18 42t44 17q35 0 60 -37l195 -281l198 282q25 37 59 37q26 0 43 -17.5t17 -42.5q0 -21 -17 -44l-239 -327v-219q0 -26 -18 -43.5t-44 -17.5t-43.5 17.5t-17.5 43.5zM345 753q-30 0 -30 21q0 10 8 22l57 88q18 29 48 29 q25 0 48.5 -12.5t23.5 -26.5q0 -15 -17 -30l-67 -64q-29 -27 -71 -27z"/>
<glyph glyph-name="Thorn" unicode="Þ" horiz-adv-x="673" d="M90 56v588q0 26 18 43.5t44 17.5t43.5 -17.5t17.5 -43.5v-53h153q122 0 194 -64t72 -170v-2q0 -114 -79.5 -176.5t-200.5 -62.5h-139v-60q0 -26 -17.5 -43.5t-43.5 -17.5t-44 17.5t-18 43.5zM213 226h143q69 0 110 35t41 91v2q0 60 -40.5 92.5t-110.5 32.5h-143v-253z "/>
<glyph glyph-name="germandbls" unicode="ß" horiz-adv-x="620" d="M291 47q0 38 43 48q116 18 116 104v2q0 77 -115 106q-44 13 -44 53q0 33 26 50q92 51 92 126v2q0 43 -27.5 69.5t-73.5 26.5q-50 0 -81 -35t-31 -93v-452q0 -25 -17.5 -42t-43.5 -17q-25 0 -42 17t-17 42v448q0 109 64 172t174 63q99 0 157.5 -53.5t58.5 -134.5v-2 q0 -110 -111 -171q152 -51 152 -178v-2q0 -92 -66.5 -144.5t-158.5 -54.5q-25 0 -40 14t-15 36z"/>
<glyph glyph-name="agrave" unicode="à" horiz-adv-x="587" d="M228 -11q-78 0 -132.5 43.5t-54.5 119.5v2q0 83 59 126.5t159 43.5q73 0 142 -22v13q0 56 -33.5 85.5t-97.5 29.5t-117 -21q-10 -3 -19 -3q-21 0 -36 14.5t-15 35.5q0 35 33 48q82 31 170 31q118 0 175 -59q57 -56 57 -163v-260q0 -25 -17 -41.5t-42 -16.5 q-26 0 -42.5 15t-16.5 36v20q-64 -77 -172 -77zM262 77q61 0 101 31.5t40 81.5v36q-54 21 -120 21q-58 0 -91 -23.5t-33 -64.5v-2q0 -37 29 -58.5t74 -21.5zM297 590q-42 0 -70 27l-68 64q-17 15 -17 30q0 14 23.5 26.5t48.5 12.5q30 0 48 -29l57 -88q9 -13 9 -22 q0 -21 -31 -21z"/>
<glyph glyph-name="aacute" unicode="á" horiz-adv-x="587" d="M228 -11q-78 0 -132.5 43.5t-54.5 119.5v2q0 83 59 126.5t159 43.5q73 0 142 -22v13q0 56 -33.5 85.5t-97.5 29.5t-117 -21q-10 -3 -19 -3q-21 0 -36 14.5t-15 35.5q0 35 33 48q82 31 170 31q118 0 175 -59q57 -56 57 -163v-260q0 -25 -17 -41.5t-42 -16.5 q-26 0 -42.5 15t-16.5 36v20q-64 -77 -172 -77zM262 77q61 0 101 31.5t40 81.5v36q-54 21 -120 21q-58 0 -91 -23.5t-33 -64.5v-2q0 -37 29 -58.5t74 -21.5zM291 590q-30 0 -30 21q0 10 8 22l57 88q18 29 48 29q25 0 48.5 -12.5t23.5 -26.5q0 -15 -17 -30l-67 -64 q-29 -27 -71 -27z"/>
<glyph glyph-name="acircumflex" unicode="â" horiz-adv-x="587" d="M228 -11q-78 0 -132.5 43.5t-54.5 119.5v2q0 83 59 126.5t159 43.5q73 0 142 -22v13q0 56 -33.5 85.5t-97.5 29.5t-117 -21q-10 -3 -19 -3q-21 0 -36 14.5t-15 35.5q0 35 33 48q82 31 170 31q118 0 175 -59q57 -56 57 -163v-260q0 -25 -17 -41.5t-42 -16.5 q-26 0 -42.5 15t-16.5 36v20q-64 -77 -172 -77zM262 77q61 0 101 31.5t40 81.5v36q-54 21 -120 21q-58 0 -91 -23.5t-33 -64.5v-2q0 -37 29 -58.5t74 -21.5zM293 662l-52 -45q-32 -27 -74 -27q-27 0 -27 20q0 8 12 24l66 83q24 29 58 29h36q35 0 58 -29l66 -83 q12 -16 12 -24q0 -20 -29 -20q-41 0 -74 27z"/>
<glyph glyph-name="atilde" unicode="ã" horiz-adv-x="587" d="M228 -11q-78 0 -132.5 43.5t-54.5 119.5v2q0 83 59 126.5t159 43.5q73 0 142 -22v13q0 56 -33.5 85.5t-97.5 29.5t-117 -21q-10 -3 -19 -3q-21 0 -36 14.5t-15 35.5q0 35 33 48q82 31 170 31q118 0 175 -59q57 -56 57 -163v-260q0 -25 -17 -41.5t-42 -16.5 q-26 0 -42.5 15t-16.5 36v20q-64 -77 -172 -77zM186 603q-13 -20 -33 -20q-15 0 -26 10t-11 23q0 9 4 23q17 46 40.5 68.5t61.5 22.5q30 0 79 -20t65 -20q29 0 46 32q13 20 33 20q15 0 26 -10t11 -23q0 -9 -4 -23q-17 -46 -40.5 -68.5t-61.5 -22.5q-30 0 -79 20t-65 20 q-29 0 -46 -32zM262 77q61 0 101 31.5t40 81.5v36q-54 21 -120 21q-58 0 -91 -23.5t-33 -64.5v-2q0 -37 29 -58.5t74 -21.5z"/>
<glyph glyph-name="adieresis" unicode="ä" horiz-adv-x="587" d="M228 -11q-78 0 -132.5 43.5t-54.5 119.5v2q0 83 59 126.5t159 43.5q73 0 142 -22v13q0 56 -33.5 85.5t-97.5 29.5t-117 -21q-10 -3 -19 -3q-21 0 -36 14.5t-15 35.5q0 35 33 48q82 31 170 31q118 0 175 -59q57 -56 57 -163v-260q0 -25 -17 -41.5t-42 -16.5 q-26 0 -42.5 15t-16.5 36v20q-64 -77 -172 -77zM262 77q61 0 101 31.5t40 81.5v36q-54 21 -120 21q-58 0 -91 -23.5t-33 -64.5v-2q0 -37 29 -58.5t74 -21.5zM394 720q27 0 46 -17.5t19 -44.5v-7q0 -27 -19 -44t-46 -17q-28 0 -47 17t-19 44v7q0 27 19 44.5t47 17.5zM195 720 q27 0 46 -17.5t19 -44.5v-7q0 -27 -19 -44t-46 -17q-28 0 -47 17t-19 44v7q0 27 19 44.5t47 17.5z"/>
<glyph glyph-name="aring" unicode="å" horiz-adv-x="587" d="M228 -11q-78 0 -132.5 43.5t-54.5 119.5v2q0 83 59 126.5t159 43.5q73 0 142 -22v13q0 56 -33.5 85.5t-97.5 29.5t-117 -21q-10 -3 -19 -3q-21 0 -36 14.5t-15 35.5q0 35 33 48q82 31 170 31q118 0 175 -59q57 -56 57 -163v-260q0 -25 -17 -41.5t-42 -16.5 q-26 0 -42.5 15t-16.5 36v20q-64 -77 -172 -77zM294 593q-45 0 -79.5 32.5t-34.5 76.5v2q0 45 34.5 77t79.5 32t79.5 -32t34.5 -77v-2q0 -44 -34.5 -76.5t-79.5 -32.5zM262 77q61 0 101 31.5t40 81.5v36q-54 21 -120 21q-58 0 -91 -23.5t-33 -64.5v-2q0 -37 29 -58.5 t74 -21.5zM294 641q25 0 43.5 18t18.5 43v2q0 25 -18.5 43t-43.5 18t-43.5 -18t-18.5 -43v-2q0 -25 18.5 -43t43.5 -18z"/>
<glyph glyph-name="ae" unicode="æ" horiz-adv-x="952" d="M514 301h272q-6 61 -41 100t-93 39q-55 0 -92.5 -38.5t-45.5 -100.5zM260 78q84 0 157 68q-16 40 -20 81q-56 20 -116 20q-58 0 -90 -23.5t-32 -64.5v-2q0 -36 29 -57.5t72 -21.5zM855 58q-78 -70 -190 -70q-127 0 -204 90q-107 -89 -221 -89q-86 0 -142.5 43.5 t-56.5 119.5v2q0 83 58.5 126.5t157.5 43.5q71 0 140 -22v13q0 56 -33 85.5t-96 29.5q-60 0 -115 -21q-10 -3 -19 -3q-21 0 -36 14.5t-15 35.5q0 35 33 48q77 31 168 31q137 0 186 -86q69 90 185 90q78 0 136.5 -40.5t85 -98t26.5 -121.5q0 -25 -16.5 -41.5t-40.5 -16.5 h-330q10 -63 51 -98.5t100 -35.5q70 0 126 46q13 11 30 11q21 0 35 -14t14 -35q0 -22 -17 -37z"/>
<glyph glyph-name="ccedilla" unicode="ç" horiz-adv-x="571" d="M512 63q-72 -69 -170 -74l-52 -120q-12 -29 -39 -29q-20 0 -45 14.5t-25 29.5q0 12 8 23l61 90q-90 22 -146.5 95.5t-56.5 168.5v2q0 114 78.5 195t196.5 81q109 0 185 -66q19 -17 19 -42q0 -23 -16.5 -39t-39.5 -16q-20 0 -36 12q-54 45 -113 45q-65 0 -109 -49 t-44 -119v-2q0 -71 44.5 -120t113.5 -49q63 0 118 47q15 13 33 13q22 0 37 -15.5t15 -37.5q0 -24 -17 -38z"/>
<glyph glyph-name="egrave" unicode="è" horiz-adv-x="604" d="M167 301h271q-6 61 -41 100t-93 39q-55 0 -92 -38.5t-45 -100.5zM508 58q-78 -70 -190 -70q-116 0 -193.5 76.5t-77.5 197.5v2q0 115 73 195t185 80q80 0 139 -40.5t85.5 -98t26.5 -121.5q0 -25 -16.5 -41.5t-40.5 -16.5h-331q10 -63 51 -98.5t101 -35.5q69 0 125 46 q14 11 31 11q20 0 34 -14t14 -35t-16 -37zM306 590q-42 0 -70 27l-68 64q-17 15 -17 30q0 14 23.5 26.5t48.5 12.5q30 0 48 -29l57 -88q9 -13 9 -22q0 -21 -31 -21z"/>
<glyph glyph-name="eacute" unicode="é" horiz-adv-x="604" d="M300 590q-30 0 -30 21q0 10 8 22l57 88q18 29 48 29q25 0 48.5 -12.5t23.5 -26.5q0 -15 -17 -30l-67 -64q-29 -27 -71 -27zM167 301h271q-6 61 -41 100t-93 39q-55 0 -92 -38.5t-45 -100.5zM508 58q-78 -70 -190 -70q-116 0 -193.5 76.5t-77.5 197.5v2q0 115 73 195 t185 80q80 0 139 -40.5t85.5 -98t26.5 -121.5q0 -25 -16.5 -41.5t-40.5 -16.5h-331q10 -63 51 -98.5t101 -35.5q69 0 125 46q14 11 31 11q20 0 34 -14t14 -35t-16 -37z"/>
<glyph glyph-name="ecircumflex" unicode="ê" horiz-adv-x="604" d="M302 662l-52 -45q-32 -27 -74 -27q-27 0 -27 20q0 8 12 24l66 83q24 29 58 29h36q35 0 58 -29l66 -83q12 -16 12 -24q0 -20 -29 -20q-41 0 -74 27zM167 301h271q-6 61 -41 100t-93 39q-55 0 -92 -38.5t-45 -100.5zM508 58q-78 -70 -190 -70q-116 0 -193.5 76.5 t-77.5 197.5v2q0 115 73 195t185 80q80 0 139 -40.5t85.5 -98t26.5 -121.5q0 -25 -16.5 -41.5t-40.5 -16.5h-331q10 -63 51 -98.5t101 -35.5q69 0 125 46q14 11 31 11q20 0 34 -14t14 -35t-16 -37z"/>
<glyph glyph-name="edieresis" unicode="ë" horiz-adv-x="604" d="M403 720q27 0 46 -17.5t19 -44.5v-7q0 -27 -19 -44t-46 -17q-28 0 -47 17t-19 44v7q0 27 19 44.5t47 17.5zM204 720q27 0 46 -17.5t19 -44.5v-7q0 -27 -19 -44t-46 -17q-28 0 -47 17t-19 44v7q0 27 19 44.5t47 17.5zM167 301h271q-6 61 -41 100t-93 39q-55 0 -92 -38.5 t-45 -100.5zM508 58q-78 -70 -190 -70q-116 0 -193.5 76.5t-77.5 197.5v2q0 115 73 195t185 80q80 0 139 -40.5t85.5 -98t26.5 -121.5q0 -25 -16.5 -41.5t-40.5 -16.5h-331q10 -63 51 -98.5t101 -35.5q69 0 125 46q14 11 31 11q20 0 34 -14t14 -35t-16 -37z"/>
<glyph glyph-name="igrave" unicode="ì" horiz-adv-x="286" d="M83 55v418q0 26 17.5 43.5t42.5 17.5t43 -18t18 -43v-418q0 -25 -17.5 -42.5t-43.5 -17.5q-25 0 -42.5 17.5t-17.5 42.5zM146 590q-42 0 -70 27l-68 64q-17 15 -17 30q0 14 23.5 26.5t48.5 12.5q30 0 48 -29l57 -88q9 -13 9 -22q0 -21 -31 -21z"/>
<glyph glyph-name="iacute" unicode="í" horiz-adv-x="286" d="M140 590q-30 0 -30 21q0 10 8 22l57 88q18 29 48 29q25 0 48.5 -12.5t23.5 -26.5q0 -15 -17 -30l-67 -64q-29 -27 -71 -27zM83 55v418q0 26 17.5 43.5t42.5 17.5t43 -18t18 -43v-418q0 -25 -17.5 -42.5t-43.5 -17.5q-25 0 -42.5 17.5t-17.5 42.5z"/>
<glyph glyph-name="icircumflex" unicode="î" horiz-adv-x="286" d="M142 662l-52 -45q-32 -27 -74 -27q-27 0 -27 20q0 8 12 24l66 83q24 29 58 29h36q35 0 58 -29l66 -83q12 -16 12 -24q0 -20 -29 -20q-41 0 -74 27zM83 55v418q0 26 17.5 43.5t42.5 17.5t43 -18t18 -43v-418q0 -25 -17.5 -42.5t-43.5 -17.5q-25 0 -42.5 17.5t-17.5 42.5z "/>
<glyph glyph-name="idieresis" unicode="ï" horiz-adv-x="286" d="M243 720q27 0 46 -17.5t19 -44.5v-7q0 -27 -19 -44t-46 -17q-28 0 -47 17t-19 44v7q0 27 19 44.5t47 17.5zM44 720q27 0 46 -17.5t19 -44.5v-7q0 -27 -19 -44t-46 -17q-28 0 -47 17t-19 44v7q0 27 19 44.5t47 17.5zM83 55v418q0 26 17.5 43.5t42.5 17.5t43 -18t18 -43 v-418q0 -25 -17.5 -42.5t-43.5 -17.5q-25 0 -42.5 17.5t-17.5 42.5z"/>
<glyph glyph-name="eth" unicode="ð" horiz-adv-x="642" d="M418 445l-104 143l-109 -48q-7 -3 -17 -3q-16 0 -27 11t-11 27q0 26 27 36l91 40q-10 14 -10 32q0 23 16 39t39 16q29 0 48 -27l11 -16l87 38q12 4 17 4q16 0 27 -11.5t11 -27.5q0 -26 -26 -36l-72 -31l90 -128q46 -67 66.5 -123t20.5 -121q0 -114 -75.5 -192.5 t-201.5 -78.5q-115 0 -192 76t-77 185q0 105 66.5 171t165.5 66q71 0 139 -41zM474 247q0 63 -44 106.5t-113 43.5q-68 0 -109.5 -42.5t-41.5 -108.5q0 -64 44 -109.5t111 -45.5q68 0 110.5 45t42.5 111z"/>
<glyph glyph-name="ntilde" unicode="ñ" horiz-adv-x="620" d="M76 55v418q0 26 17.5 43.5t42.5 17.5q26 0 43.5 -18t17.5 -43v-26q64 92 165 92q88 0 138 -54.5t50 -147.5v-282q0 -25 -17 -42.5t-43 -17.5t-43.5 17.5t-17.5 42.5v245q0 62 -29.5 95.5t-83.5 33.5q-53 0 -86 -35t-33 -96v-243q0 -25 -17.5 -42.5t-43.5 -17.5 q-25 0 -42.5 17.5t-17.5 42.5zM203 603q-13 -20 -33 -20q-15 0 -26 10t-11 23q0 9 4 23q17 46 40.5 68.5t61.5 22.5q30 0 79 -20t65 -20q29 0 46 32q13 20 33 20q15 0 26 -10t11 -23q0 -9 -4 -23q-17 -46 -40.5 -68.5t-61.5 -22.5q-30 0 -79 20t-65 20q-29 0 -46 -32z"/>
<glyph glyph-name="ograve" unicode="ò" horiz-adv-x="657" d="M327 -12q-120 0 -200 79.5t-80 193.5v2q0 115 81 195.5t201 80.5t200.5 -80t80.5 -194v-2q0 -114 -81 -194.5t-202 -80.5zM329 94q72 0 116 48.5t44 118.5v2q0 71 -46 120.5t-116 49.5q-71 0 -115 -48.5t-44 -119.5v-2q0 -70 46 -119.5t115 -49.5zM331 590q-42 0 -70 27 l-68 64q-17 15 -17 30q0 14 23.5 26.5t48.5 12.5q30 0 48 -29l57 -88q9 -13 9 -22q0 -21 -31 -21z"/>
<glyph glyph-name="oacute" unicode="ó" horiz-adv-x="657" d="M325 590q-30 0 -30 21q0 10 8 22l57 88q18 29 48 29q25 0 48.5 -12.5t23.5 -26.5q0 -15 -17 -30l-67 -64q-29 -27 -71 -27zM327 -12q-120 0 -200 79.5t-80 193.5v2q0 115 81 195.5t201 80.5t200.5 -80t80.5 -194v-2q0 -114 -81 -194.5t-202 -80.5zM329 94q72 0 116 48.5 t44 118.5v2q0 71 -46 120.5t-116 49.5q-71 0 -115 -48.5t-44 -119.5v-2q0 -70 46 -119.5t115 -49.5z"/>
<glyph glyph-name="ocircumflex" unicode="ô" horiz-adv-x="657" d="M327 662l-52 -45q-32 -27 -74 -27q-27 0 -27 20q0 8 12 24l66 83q24 29 58 29h36q35 0 58 -29l66 -83q12 -16 12 -24q0 -20 -29 -20q-41 0 -74 27zM327 -12q-120 0 -200 79.5t-80 193.5v2q0 115 81 195.5t201 80.5t200.5 -80t80.5 -194v-2q0 -114 -81 -194.5t-202 -80.5z M329 94q72 0 116 48.5t44 118.5v2q0 71 -46 120.5t-116 49.5q-71 0 -115 -48.5t-44 -119.5v-2q0 -70 46 -119.5t115 -49.5z"/>
<glyph glyph-name="otilde" unicode="õ" horiz-adv-x="657" d="M327 -12q-120 0 -200 79.5t-80 193.5v2q0 115 81 195.5t201 80.5t200.5 -80t80.5 -194v-2q0 -114 -81 -194.5t-202 -80.5zM329 94q72 0 116 48.5t44 118.5v2q0 71 -46 120.5t-116 49.5q-71 0 -115 -48.5t-44 -119.5v-2q0 -70 46 -119.5t115 -49.5zM219 603 q-13 -20 -33 -20q-15 0 -26 10t-11 23q0 9 4 23q17 46 40.5 68.5t61.5 22.5q30 0 79 -20t65 -20q29 0 46 32q13 20 33 20q15 0 26 -10t11 -23q0 -9 -4 -23q-17 -46 -40.5 -68.5t-61.5 -22.5q-30 0 -79 20t-65 20q-29 0 -46 -32z"/>
<glyph glyph-name="odieresis" unicode="ö" horiz-adv-x="657" d="M428 720q27 0 46 -17.5t19 -44.5v-7q0 -27 -19 -44t-46 -17q-28 0 -47 17t-19 44v7q0 27 19 44.5t47 17.5zM229 720q27 0 46 -17.5t19 -44.5v-7q0 -27 -19 -44t-46 -17q-28 0 -47 17t-19 44v7q0 27 19 44.5t47 17.5zM327 -12q-120 0 -200 79.5t-80 193.5v2 q0 115 81 195.5t201 80.5t200.5 -80t80.5 -194v-2q0 -114 -81 -194.5t-202 -80.5zM329 94q72 0 116 48.5t44 118.5v2q0 71 -46 120.5t-116 49.5q-71 0 -115 -48.5t-44 -119.5v-2q0 -70 46 -119.5t115 -49.5z"/>
<glyph glyph-name="divide" unicode="÷" horiz-adv-x="634" d="M519 300h-404q-22 0 -37 15.5t-15 36.5t15 36.5t37 15.5h404q22 0 37 -15.5t15 -36.5t-15 -36.5t-37 -15.5zM317 629q28 0 48.5 -19.5t20.5 -46.5v-5q0 -28 -20 -47.5t-49 -19.5t-49 19.5t-20 47.5v5q0 27 20.5 46.5t48.5 19.5zM317 213q29 0 49 -19.5t20 -47.5v-5 q0 -28 -20 -47t-49 -19t-49 19t-20 47v5q0 28 20 47.5t49 19.5z"/>
<glyph glyph-name="oslash" unicode="ø" horiz-adv-x="657" d="M327 -12q-90 0 -162 48l-29 -30q-18 -18 -38 -18q-16 0 -27.5 11t-11.5 26q0 20 17 37l29 30q-58 72 -58 169v2q0 115 81 195.5t201 80.5q91 0 162 -49l30 31q18 18 38 18q16 0 27.5 -10.5t11.5 -25.5q0 -19 -17 -38l-30 -30q59 -75 59 -170v-2q0 -114 -81 -194.5 t-202 -80.5zM165 263q0 -47 22 -88l229 234q-40 27 -89 27q-72 0 -117 -49.5t-45 -121.5v-2zM329 91q73 0 118 49.5t45 120.5v2q0 48 -23 88l-229 -234q38 -26 89 -26z"/>
<glyph glyph-name="ugrave" unicode="ù" horiz-adv-x="620" d="M545 473v-418q0 -25 -18 -42.5t-43 -17.5t-43 17.5t-18 42.5v27q-63 -93 -165 -93q-88 0 -138 55t-50 148v281q0 25 17.5 43t42.5 18q26 0 43.5 -18t17.5 -43v-245q0 -61 29.5 -94.5t83.5 -33.5q53 0 86 34.5t33 95.5v243q0 25 17.5 43t43.5 18q25 0 43 -18t18 -43z M309 590q-42 0 -70 27l-68 64q-17 15 -17 30q0 14 23.5 26.5t48.5 12.5q30 0 48 -29l57 -88q9 -13 9 -22q0 -21 -31 -21z"/>
<glyph glyph-name="uacute" unicode="ú" horiz-adv-x="620" d="M303 590q-30 0 -30 21q0 10 8 22l57 88q18 29 48 29q25 0 48.5 -12.5t23.5 -26.5q0 -15 -17 -30l-67 -64q-29 -27 -71 -27zM545 473v-418q0 -25 -18 -42.5t-43 -17.5t-43 17.5t-18 42.5v27q-63 -93 -165 -93q-88 0 -138 55t-50 148v281q0 25 17.5 43t42.5 18 q26 0 43.5 -18t17.5 -43v-245q0 -61 29.5 -94.5t83.5 -33.5q53 0 86 34.5t33 95.5v243q0 25 17.5 43t43.5 18q25 0 43 -18t18 -43z"/>
<glyph glyph-name="ucircumflex" unicode="û" horiz-adv-x="620" d="M305 662l-52 -45q-32 -27 -74 -27q-27 0 -27 20q0 8 12 24l66 83q24 29 58 29h36q35 0 58 -29l66 -83q12 -16 12 -24q0 -20 -29 -20q-41 0 -74 27zM545 473v-418q0 -25 -18 -42.5t-43 -17.5t-43 17.5t-18 42.5v27q-63 -93 -165 -93q-88 0 -138 55t-50 148v281 q0 25 17.5 43t42.5 18q26 0 43.5 -18t17.5 -43v-245q0 -61 29.5 -94.5t83.5 -33.5q53 0 86 34.5t33 95.5v243q0 25 17.5 43t43.5 18q25 0 43 -18t18 -43z"/>
<glyph glyph-name="udieresis" unicode="ü" horiz-adv-x="620" d="M406 720q27 0 46 -17.5t19 -44.5v-7q0 -27 -19 -44t-46 -17q-28 0 -47 17t-19 44v7q0 27 19 44.5t47 17.5zM207 720q27 0 46 -17.5t19 -44.5v-7q0 -27 -19 -44t-46 -17q-28 0 -47 17t-19 44v7q0 27 19 44.5t47 17.5zM545 473v-418q0 -25 -18 -42.5t-43 -17.5t-43 17.5 t-18 42.5v27q-63 -93 -165 -93q-88 0 -138 55t-50 148v281q0 25 17.5 43t42.5 18q26 0 43.5 -18t17.5 -43v-245q0 -61 29.5 -94.5t83.5 -33.5q53 0 86 34.5t33 95.5v243q0 25 17.5 43t43.5 18q25 0 43 -18t18 -43z"/>
<glyph glyph-name="yacute" unicode="ý" horiz-adv-x="587" d="M172 -163q-46 0 -84 15q-38 13 -38 50q0 22 14.5 36t34.5 14q10 0 22 -4q25 -7 42 -7q27 0 43.5 12.5t31.5 43.5l4 11l-196 438q-7 16 -7 29q0 25 17 42t43 17q41 0 59 -46l142 -351l132 351q18 46 58 46q24 0 41 -16.5t17 -40.5q0 -14 -5 -29l-193 -463 q-34 -81 -74 -114.5t-104 -33.5zM291 590q-30 0 -30 21q0 10 8 22l57 88q18 29 48 29q25 0 48.5 -12.5t23.5 -26.5q0 -15 -17 -30l-67 -64q-29 -27 -71 -27z"/>
<glyph glyph-name="thorn" unicode="þ" d="M76 -105v780q0 25 17 42.5t43 17.5t43.5 -17.5t17.5 -42.5v-235q70 99 180 99q99 0 172 -74t73 -200v-2q0 -125 -72.5 -199.5t-172.5 -74.5q-110 0 -180 93v-187q0 -25 -17.5 -42.5t-43.5 -17.5q-25 0 -42.5 17.5t-17.5 42.5zM348 94q64 0 107.5 46.5t43.5 122.5v2 q0 75 -44 122t-107 47t-108.5 -47.5t-45.5 -121.5v-2q0 -74 45.5 -121.5t108.5 -47.5z"/>
<glyph glyph-name="ydieresis" unicode="ÿ" horiz-adv-x="587" d="M172 -163q-46 0 -84 15q-38 13 -38 50q0 22 14.5 36t34.5 14q10 0 22 -4q25 -7 42 -7q27 0 43.5 12.5t31.5 43.5l4 11l-196 438q-7 16 -7 29q0 25 17 42t43 17q41 0 59 -46l142 -351l132 351q18 46 58 46q24 0 41 -16.5t17 -40.5q0 -14 -5 -29l-193 -463 q-34 -81 -74 -114.5t-104 -33.5zM394 720q27 0 46 -17.5t19 -44.5v-7q0 -27 -19 -44t-46 -17q-28 0 -47 17t-19 44v7q0 27 19 44.5t47 17.5zM195 720q27 0 46 -17.5t19 -44.5v-7q0 -27 -19 -44t-46 -17q-28 0 -47 17t-19 44v7q0 27 19 44.5t47 17.5z"/>
<glyph glyph-name="Amacron" unicode="Ā" horiz-adv-x="773" d="M42 52q0 12 8 28l260 580q23 50 74 50h6q50 0 73 -50l260 -580q7 -13 7 -26q0 -25 -16.5 -42t-41.5 -17q-42 0 -60 43l-57 131h-340l-59 -135q-16 -39 -57 -39q-24 0 -40.5 16.5t-16.5 40.5zM262 278h246l-123 283zM518 779h-266q-18 0 -31 13t-13 31t13 31t31 13h266 q18 0 31 -13t13 -31t-13 -31t-31 -13z"/>
<glyph glyph-name="amacron" unicode="ā" horiz-adv-x="587" d="M228 -11q-78 0 -132.5 43.5t-54.5 119.5v2q0 83 59 126.5t159 43.5q73 0 142 -22v13q0 56 -33.5 85.5t-97.5 29.5t-117 -21q-10 -3 -19 -3q-21 0 -36 14.5t-15 35.5q0 35 33 48q82 31 170 31q118 0 175 -59q57 -56 57 -163v-260q0 -25 -17 -41.5t-42 -16.5 q-26 0 -42.5 15t-16.5 36v20q-64 -77 -172 -77zM262 77q61 0 101 31.5t40 81.5v36q-54 21 -120 21q-58 0 -91 -23.5t-33 -64.5v-2q0 -37 29 -58.5t74 -21.5zM427 606h-266q-18 0 -31 13t-13 31t13 31t31 13h266q18 0 31 -13t13 -31t-13 -31t-31 -13z"/>
<glyph glyph-name="Abreve" unicode="Ă" horiz-adv-x="773" d="M42 52q0 12 8 28l260 580q23 50 74 50h6q50 0 73 -50l260 -580q7 -13 7 -26q0 -25 -16.5 -42t-41.5 -17q-42 0 -60 43l-57 131h-340l-59 -135q-16 -39 -57 -39q-24 0 -40.5 16.5t-16.5 40.5zM262 278h246l-123 283zM385 766q-108 0 -153 80q-8 16 -8 31q0 18 12 30.5 t30 12.5q25 0 38 -23q26 -46 81 -46q57 0 81 46q13 23 38 23q18 0 30 -12.5t12 -30.5q0 -15 -8 -31q-45 -80 -153 -80z"/>
<glyph glyph-name="abreve" unicode="ă" horiz-adv-x="587" d="M228 -11q-78 0 -132.5 43.5t-54.5 119.5v2q0 83 59 126.5t159 43.5q73 0 142 -22v13q0 56 -33.5 85.5t-97.5 29.5t-117 -21q-10 -3 -19 -3q-21 0 -36 14.5t-15 35.5q0 35 33 48q82 31 170 31q118 0 175 -59q57 -56 57 -163v-260q0 -25 -17 -41.5t-42 -16.5 q-26 0 -42.5 15t-16.5 36v20q-64 -77 -172 -77zM262 77q61 0 101 31.5t40 81.5v36q-54 21 -120 21q-58 0 -91 -23.5t-33 -64.5v-2q0 -37 29 -58.5t74 -21.5zM294 593q-108 0 -153 80q-8 16 -8 31q0 18 12 30.5t30 12.5q25 0 38 -23q26 -46 81 -46q57 0 81 46q13 23 38 23 q18 0 30 -12.5t12 -30.5q0 -15 -8 -31q-45 -80 -153 -80z"/>
<glyph glyph-name="Aogonek" unicode="Ą" horiz-adv-x="790" d="M50 52q0 8 8 28l260 580q23 50 74 50h7q50 0 73 -50l261 -582q7 -16 7 -26q0 -24 -23 -48q-38 -37 -38 -67t44 -41q33 -8 33 -31q0 -31 -40 -31q-53 0 -90.5 21t-37.5 63t46 90l-71 161h-340l-58 -135q-17 -39 -58 -39q-24 0 -40.5 16.5t-16.5 40.5zM270 278h246 l-123 283z"/>
<glyph glyph-name="aogonek" unicode="ą" horiz-adv-x="587" d="M362 -85q0 46 53 96q-15 14 -15 54v1q-64 -77 -172 -77q-78 0 -132.5 43.5t-54.5 119.5v2q0 83 59 126.5t159 43.5q73 0 142 -22v13q0 56 -33.5 85.5t-97.5 29.5t-117 -21q-10 -3 -19 -3q-21 0 -36 14.5t-15 35.5q0 35 33 48q82 31 170 31q118 0 175 -59q57 -56 57 -163 v-261q0 -25 -24 -48q-40 -39 -40 -68t43 -40q33 -8 33 -31q0 -31 -40 -31q-53 0 -90.5 20.5t-37.5 60.5zM262 77q61 0 101 31.5t40 81.5v36q-54 21 -120 21q-58 0 -91 -23.5t-33 -64.5v-2q0 -37 29 -58.5t74 -21.5z"/>
<glyph glyph-name="Cacute" unicode="Ć" horiz-adv-x="738" d="M405 763q-30 0 -30 21q0 10 8 22l57 88q18 29 48 29q25 0 48.5 -12.5t23.5 -26.5q0 -15 -17 -30l-67 -64q-29 -27 -71 -27zM415 -12q-152 0 -254 104t-102 256v2q0 152 102 257t259 105q137 0 240 -79q24 -18 24 -49q0 -25 -17.5 -42.5t-43.5 -17.5q-21 0 -37 12 q-78 63 -167 63q-99 0 -165 -71.5t-66 -175.5v-2q0 -104 66 -176t165 -72q96 0 175 67q16 14 37 14q23 0 40.5 -17t17.5 -40q0 -26 -20 -44q-107 -94 -254 -94z"/>
<glyph glyph-name="cacute" unicode="ć" horiz-adv-x="571" d="M312 590q-30 0 -30 21q0 10 8 22l57 88q18 29 48 29q25 0 48.5 -12.5t23.5 -26.5q0 -15 -17 -30l-67 -64q-29 -27 -71 -27zM320 -12q-117 0 -195 79.5t-78 193.5v2q0 114 78.5 195t196.5 81q109 0 185 -66q19 -17 19 -42q0 -23 -16.5 -39t-39.5 -16q-20 0 -36 12 q-54 45 -113 45q-65 0 -109 -49t-44 -119v-2q0 -71 44.5 -120t113.5 -49q63 0 118 47q15 13 33 13q22 0 37 -15.5t15 -37.5q0 -24 -17 -38q-78 -75 -192 -75z"/>
<glyph glyph-name="Cdotaccent" unicode="Ċ" horiz-adv-x="738" d="M415 -12q-152 0 -254 104t-102 256v2q0 152 102 257t259 105q137 0 240 -79q24 -18 24 -49q0 -25 -17.5 -42.5t-43.5 -17.5q-21 0 -37 12q-78 63 -167 63q-99 0 -165 -71.5t-66 -175.5v-2q0 -104 66 -176t165 -72q96 0 175 67q16 14 37 14q23 0 40.5 -17t17.5 -40 q0 -26 -20 -44q-107 -94 -254 -94zM476 831v-7q0 -27 -19.5 -44t-48.5 -17q-28 0 -47.5 17t-19.5 44v7q0 27 19.5 44.5t47.5 17.5t48 -17.5t20 -44.5z"/>
<glyph glyph-name="cdotaccent" unicode="ċ" horiz-adv-x="571" d="M320 -12q-117 0 -195 79.5t-78 193.5v2q0 114 78.5 195t196.5 81q109 0 185 -66q19 -17 19 -42q0 -23 -16.5 -39t-39.5 -16q-20 0 -36 12q-54 45 -113 45q-65 0 -109 -49t-44 -119v-2q0 -71 44.5 -120t113.5 -49q63 0 118 47q15 13 33 13q22 0 37 -15.5t15 -37.5 q0 -24 -17 -38q-78 -75 -192 -75zM383 658v-7q0 -27 -19.5 -44t-48.5 -17q-28 0 -47.5 17t-19.5 44v7q0 27 19.5 44.5t47.5 17.5t48 -17.5t20 -44.5z"/>
<glyph glyph-name="Ccaron" unicode="Č" horiz-adv-x="738" d="M409 848l52 45q33 27 74 27q27 0 27 -20q0 -8 -12 -24l-66 -83q-23 -29 -58 -29h-36q-34 0 -58 29l-66 83q-12 16 -12 24q0 20 29 20q42 0 74 -27zM415 -12q-152 0 -254 104t-102 256v2q0 152 102 257t259 105q137 0 240 -79q24 -18 24 -49q0 -25 -17.5 -42.5 t-43.5 -17.5q-21 0 -37 12q-78 63 -167 63q-99 0 -165 -71.5t-66 -175.5v-2q0 -104 66 -176t165 -72q96 0 175 67q16 14 37 14q23 0 40.5 -17t17.5 -40q0 -26 -20 -44q-107 -94 -254 -94z"/>
<glyph glyph-name="ccaron" unicode="č" horiz-adv-x="571" d="M316 675l52 45q33 27 74 27q27 0 27 -20q0 -8 -12 -24l-66 -83q-23 -29 -58 -29h-36q-34 0 -58 29l-66 83q-12 16 -12 24q0 20 29 20q42 0 74 -27zM320 -12q-117 0 -195 79.5t-78 193.5v2q0 114 78.5 195t196.5 81q109 0 185 -66q19 -17 19 -42q0 -23 -16.5 -39 t-39.5 -16q-20 0 -36 12q-54 45 -113 45q-65 0 -109 -49t-44 -119v-2q0 -71 44.5 -120t113.5 -49q63 0 118 47q15 13 33 13q22 0 37 -15.5t15 -37.5q0 -24 -17 -38q-78 -75 -192 -75z"/>
<glyph glyph-name="Dcaron" unicode="Ď" horiz-adv-x="782" d="M378 838l52 45q33 27 74 27q27 0 27 -20q0 -8 -12 -24l-66 -83q-23 -29 -58 -29h-36q-34 0 -58 29l-66 83q-12 16 -12 24q0 20 29 20q42 0 74 -27zM90 62v576q0 26 18 44t44 18h199q163 0 267.5 -99.5t104.5 -248.5v-2q0 -150 -104.5 -250t-267.5 -100h-199q-26 0 -44 18 t-18 44zM213 112h138q109 0 176 66t67 170v2q0 104 -67 171t-176 67h-138v-476z"/>
<glyph glyph-name="dcaron" unicode="ď" d="M651 567l3 124q1 19 13 31.5t31 12.5h18q31 0 31 -29q0 -11 -4 -23l-37 -121q-8 -25 -29 -25q-12 0 -19.5 8t-6.5 22zM595 675v-620q0 -25 -17.5 -42.5t-42.5 -17.5q-26 0 -43.5 17.5t-17.5 42.5v33q-70 -99 -180 -99q-99 0 -172 74.5t-73 199.5v2q0 126 72.5 200 t172.5 74q109 0 180 -93v229q0 25 17.5 42.5t42.5 17.5q26 0 43.5 -17.5t17.5 -42.5zM323 434q-64 0 -108 -46t-44 -123v-2q0 -75 44.5 -122t107.5 -47t108 47.5t45 121.5v2q0 74 -45 121.5t-108 47.5z"/>
<glyph glyph-name="Dcroat" unicode="Đ" horiz-adv-x="812" d="M94 407h26v231q0 26 18 44t44 18h199q163 0 267.5 -99.5t104.5 -248.5v-2q0 -150 -104.5 -250t-267.5 -100h-199q-26 0 -44 18t-18 44v235h-26q-22 0 -38 16t-16 39t15.5 39t38.5 16zM242 588v-181h127q23 0 38.5 -16t15.5 -39t-16 -39t-38 -16h-127v-185h139 q109 0 176 66t67 170v2q0 104 -67 171t-176 67h-139z"/>
<glyph glyph-name="dcroat" unicode="đ" d="M595 675v-1h38q15 0 25.5 -11t10.5 -25q0 -15 -10.5 -25.5t-25.5 -10.5h-38v-547q0 -25 -17.5 -42.5t-42.5 -17.5q-26 0 -43.5 17.5t-17.5 42.5v33q-70 -99 -180 -99q-99 0 -172 74.5t-73 199.5v2q0 126 72.5 200t172.5 74q109 0 180 -93v156h-133q-15 0 -25.5 10.5 t-10.5 25.5q0 14 10.5 25t25.5 11h133v1q0 25 17.5 42.5t42.5 17.5q26 0 43.5 -17.5t17.5 -42.5zM323 434q-64 0 -108 -46t-44 -123v-2q0 -75 44.5 -122t107.5 -47t108 47.5t45 121.5v2q0 74 -45 121.5t-108 47.5z"/>
<glyph glyph-name="Emacron" unicode="Ē" horiz-adv-x="670" d="M152 0q-26 0 -44 18t-18 44v576q0 26 18 44t44 18h407q23 0 39 -16t16 -39t-16 -39t-39 -16h-346v-182h301q23 0 39 -16.5t16 -39.5q0 -22 -16 -38t-39 -16h-301v-188h351q22 0 38.5 -16t16.5 -39t-16 -39t-39 -16h-412zM484 769h-266q-18 0 -31 13t-13 31t13 31t31 13 h266q18 0 31 -13t13 -31t-13 -31t-31 -13z"/>
<glyph glyph-name="emacron" unicode="ē" horiz-adv-x="604" d="M167 301h271q-6 61 -41 100t-93 39q-55 0 -92 -38.5t-45 -100.5zM508 58q-78 -70 -190 -70q-116 0 -193.5 76.5t-77.5 197.5v2q0 115 73 195t185 80q80 0 139 -40.5t85.5 -98t26.5 -121.5q0 -25 -16.5 -41.5t-40.5 -16.5h-331q10 -63 51 -98.5t101 -35.5q69 0 125 46 q14 11 31 11q20 0 34 -14t14 -35t-16 -37zM436 606h-266q-18 0 -31 13t-13 31t13 31t31 13h266q18 0 31 -13t13 -31t-13 -31t-31 -13z"/>
<glyph glyph-name="Ebreve" unicode="Ĕ" horiz-adv-x="670" d="M152 0q-26 0 -44 18t-18 44v576q0 26 18 44t44 18h407q23 0 39 -16t16 -39t-16 -39t-39 -16h-346v-182h301q23 0 39 -16.5t16 -39.5q0 -22 -16 -38t-39 -16h-301v-188h351q22 0 38.5 -16t16.5 -39t-16 -39t-39 -16h-412zM351 756q-108 0 -153 80q-8 16 -8 31 q0 18 12 30.5t30 12.5q25 0 38 -23q26 -46 81 -46q57 0 81 46q13 23 38 23q18 0 30 -12.5t12 -30.5q0 -15 -8 -31q-45 -80 -153 -80z"/>
<glyph glyph-name="ebreve" unicode="ĕ" horiz-adv-x="604" d="M167 301h271q-6 61 -41 100t-93 39q-55 0 -92 -38.5t-45 -100.5zM508 58q-78 -70 -190 -70q-116 0 -193.5 76.5t-77.5 197.5v2q0 115 73 195t185 80q80 0 139 -40.5t85.5 -98t26.5 -121.5q0 -25 -16.5 -41.5t-40.5 -16.5h-331q10 -63 51 -98.5t101 -35.5q69 0 125 46 q14 11 31 11q20 0 34 -14t14 -35t-16 -37zM303 593q-108 0 -153 80q-8 16 -8 31q0 18 12 30.5t30 12.5q25 0 38 -23q26 -46 81 -46q57 0 81 46q13 23 38 23q18 0 30 -12.5t12 -30.5q0 -15 -8 -31q-45 -80 -153 -80z"/>
<glyph glyph-name="Edotaccent" unicode="Ė" horiz-adv-x="670" d="M152 0q-26 0 -44 18t-18 44v576q0 26 18 44t44 18h407q23 0 39 -16t16 -39t-16 -39t-39 -16h-346v-182h301q23 0 39 -16.5t16 -39.5q0 -22 -16 -38t-39 -16h-301v-188h351q22 0 38.5 -16t16.5 -39t-16 -39t-39 -16h-412zM419 821v-7q0 -27 -19.5 -44t-48.5 -17 q-28 0 -47.5 17t-19.5 44v7q0 27 19.5 44.5t47.5 17.5t48 -17.5t20 -44.5z"/>
<glyph glyph-name="edotaccent" unicode="ė" horiz-adv-x="604" d="M167 301h271q-6 61 -41 100t-93 39q-55 0 -92 -38.5t-45 -100.5zM508 58q-78 -70 -190 -70q-116 0 -193.5 76.5t-77.5 197.5v2q0 115 73 195t185 80q80 0 139 -40.5t85.5 -98t26.5 -121.5q0 -25 -16.5 -41.5t-40.5 -16.5h-331q10 -63 51 -98.5t101 -35.5q69 0 125 46 q14 11 31 11q20 0 34 -14t14 -35t-16 -37zM371 658v-7q0 -27 -19.5 -44t-48.5 -17q-28 0 -47.5 17t-19.5 44v7q0 27 19.5 44.5t47.5 17.5t48 -17.5t20 -44.5z"/>
<glyph glyph-name="Eogonek" unicode="Ę" horiz-adv-x="670" d="M152 0q-26 0 -44 18t-18 44v576q0 26 18 44t44 18h407q23 0 39 -16t16 -39t-16 -39t-39 -16h-346v-182h301q23 0 39 -16.5t16 -39.5q0 -22 -16 -38t-39 -16h-301v-188h350q24 0 40 -15t16 -36q0 -18 -6.5 -28.5t-24.5 -27.5q-42 -36 -42 -66t43 -41q34 -7 34 -31 q0 -31 -40 -31q-54 0 -91.5 20.5t-37.5 63.5q0 38 41 82h-343z"/>
<glyph glyph-name="eogonek" unicode="ę" horiz-adv-x="604" d="M556 279q0 -25 -16.5 -41.5t-40.5 -16.5h-331q10 -63 51 -98.5t101 -35.5q69 0 125 46q14 11 31 11q20 0 34 -14t14 -35q0 -19 -16 -37q-8 -8 -21 -19.5t-22 -20.5q-44 -41 -44 -76q0 -21 10.5 -30.5t33.5 -15.5q33 -8 33 -31q0 -31 -39 -31q-57 0 -93 22t-36 64 q0 33 34 72q-30 -4 -46 -4q-116 0 -193.5 76.5t-77.5 197.5v2q0 115 73 195t185 80q80 0 139 -40.5t85.5 -98t26.5 -121.5zM167 301h271q-6 61 -41 100t-93 39q-55 0 -92 -38.5t-45 -100.5z"/>
<glyph glyph-name="Ecaron" unicode="Ě" horiz-adv-x="670" d="M352 838l52 45q33 27 74 27q27 0 27 -20q0 -8 -12 -24l-66 -83q-23 -29 -58 -29h-36q-34 0 -58 29l-66 83q-12 16 -12 24q0 20 29 20q42 0 74 -27zM152 0q-26 0 -44 18t-18 44v576q0 26 18 44t44 18h407q23 0 39 -16t16 -39t-16 -39t-39 -16h-346v-182h301q23 0 39 -16.5 t16 -39.5q0 -22 -16 -38t-39 -16h-301v-188h351q22 0 38.5 -16t16.5 -39t-16 -39t-39 -16h-412z"/>
<glyph glyph-name="ecaron" unicode="ě" horiz-adv-x="604" d="M304 675l52 45q33 27 74 27q27 0 27 -20q0 -8 -12 -24l-66 -83q-23 -29 -58 -29h-36q-34 0 -58 29l-66 83q-12 16 -12 24q0 20 29 20q42 0 74 -27zM167 301h271q-6 61 -41 100t-93 39q-55 0 -92 -38.5t-45 -100.5zM508 58q-78 -70 -190 -70q-116 0 -193.5 76.5 t-77.5 197.5v2q0 115 73 195t185 80q80 0 139 -40.5t85.5 -98t26.5 -121.5q0 -25 -16.5 -41.5t-40.5 -16.5h-331q10 -63 51 -98.5t101 -35.5q69 0 125 46q14 11 31 11q20 0 34 -14t14 -35t-16 -37z"/>
<glyph glyph-name="Gbreve" unicode="Ğ" horiz-adv-x="784" d="M422 -12q-162 0 -262.5 102.5t-100.5 257.5v2q0 150 102.5 256t258.5 106q140 0 239 -71q25 -19 25 -50q0 -25 -18 -43t-43 -18q-18 0 -38 14q-75 55 -170 55q-96 0 -161.5 -72.5t-65.5 -174.5v-2q0 -109 66 -179.5t172 -70.5q98 0 169 53v131h-138q-23 0 -39 15.5 t-16 37.5t16 38t39 16h195q26 0 44 -18t18 -44v-187q0 -51 -43 -78q-114 -76 -249 -76zM412 766q-108 0 -153 80q-8 16 -8 31q0 18 12 30.5t30 12.5q25 0 38 -23q26 -46 81 -46q57 0 81 46q13 23 38 23q18 0 30 -12.5t12 -30.5q0 -15 -8 -31q-45 -80 -153 -80z"/>
<glyph glyph-name="gbreve" unicode="ğ" d="M311 -162q-107 0 -204 47q-34 13 -34 48q0 20 15 35t36 15q12 0 22 -5q75 -42 162 -42q81 0 124 41.5t43 120.5v41q-75 -97 -186 -97q-98 0 -169 67.5t-71 179.5v2q0 112 71.5 180t168.5 68q110 0 185 -90v25q0 25 17.5 42.5t42.5 17.5q26 0 43.5 -18t17.5 -43v-365 q0 -132 -67 -199q-71 -71 -217 -71zM321 145q64 0 109.5 41t45.5 104v2q0 63 -45.5 104t-109.5 41t-107 -40.5t-43 -104.5v-2q0 -64 43.5 -104.5t106.5 -40.5zM326 593q-108 0 -153 80q-8 16 -8 31q0 18 12 30.5t30 12.5q25 0 38 -23q26 -46 81 -46q57 0 81 46q13 23 38 23 q18 0 30 -12.5t12 -30.5q0 -15 -8 -31q-45 -80 -153 -80z"/>
<glyph glyph-name="Gdotaccent" unicode="Ġ" horiz-adv-x="784" d="M422 -12q-162 0 -262.5 102.5t-100.5 257.5v2q0 150 102.5 256t258.5 106q140 0 239 -71q25 -19 25 -50q0 -25 -18 -43t-43 -18q-18 0 -38 14q-75 55 -170 55q-96 0 -161.5 -72.5t-65.5 -174.5v-2q0 -109 66 -179.5t172 -70.5q98 0 169 53v131h-138q-23 0 -39 15.5 t-16 37.5t16 38t39 16h195q26 0 44 -18t18 -44v-187q0 -51 -43 -78q-114 -76 -249 -76zM480 831v-7q0 -27 -19.5 -44t-48.5 -17q-28 0 -47.5 17t-19.5 44v7q0 27 19.5 44.5t47.5 17.5t48 -17.5t20 -44.5z"/>
<glyph glyph-name="gdotaccent" unicode="ġ" d="M311 -162q-107 0 -204 47q-34 13 -34 48q0 20 15 35t36 15q12 0 22 -5q75 -42 162 -42q81 0 124 41.5t43 120.5v41q-75 -97 -186 -97q-98 0 -169 67.5t-71 179.5v2q0 112 71.5 180t168.5 68q110 0 185 -90v25q0 25 17.5 42.5t42.5 17.5q26 0 43.5 -18t17.5 -43v-365 q0 -132 -67 -199q-71 -71 -217 -71zM321 145q64 0 109.5 41t45.5 104v2q0 63 -45.5 104t-109.5 41t-107 -40.5t-43 -104.5v-2q0 -64 43.5 -104.5t106.5 -40.5zM394 658v-7q0 -27 -19.5 -44t-48.5 -17q-28 0 -47.5 17t-19.5 44v7q0 27 19.5 44.5t47.5 17.5t48 -17.5t20 -44.5 z"/>
<glyph glyph-name="Gcommaaccent" unicode="Ģ" horiz-adv-x="784" d="M403 -169q-54 9 -54 53v2q0 23 17 38t44 15q29 0 46.5 -19t17.5 -51v-3q0 -71 -43 -108q-36 -33 -86 -33q-26 0 -26 21q0 16 21 21q65 14 63 64zM422 -12q-162 0 -262.5 102.5t-100.5 257.5v2q0 150 102.5 256t258.5 106q140 0 239 -71q25 -19 25 -50q0 -25 -18 -43 t-43 -18q-18 0 -38 14q-75 55 -170 55q-96 0 -161.5 -72.5t-65.5 -174.5v-2q0 -109 66 -179.5t172 -70.5q98 0 169 53v131h-138q-23 0 -39 15.5t-16 37.5t16 38t39 16h195q26 0 44 -18t18 -44v-187q0 -51 -43 -78q-114 -76 -249 -76z"/>
<glyph glyph-name="gcommaaccent" unicode="ģ" d="M333 697q54 -9 54 -53v-2q0 -23 -17 -38t-44 -15q-29 0 -46.5 19t-17.5 51v3q0 71 43 108q36 33 86 33q26 0 26 -21q0 -16 -21 -21q-65 -14 -63 -64zM311 -162q-107 0 -204 47q-34 13 -34 48q0 20 15 35t36 15q12 0 22 -5q75 -42 162 -42q81 0 124 41.5t43 120.5v41 q-75 -97 -186 -97q-98 0 -169 67.5t-71 179.5v2q0 112 71.5 180t168.5 68q110 0 185 -90v25q0 25 17.5 42.5t42.5 17.5q26 0 43.5 -18t17.5 -43v-365q0 -132 -67 -199q-71 -71 -217 -71zM321 145q64 0 109.5 41t45.5 104v2q0 63 -45.5 104t-109.5 41t-107 -40.5t-43 -104.5 v-2q0 -64 43.5 -104.5t106.5 -40.5z"/>
<glyph glyph-name="Hbar" unicode="Ħ" horiz-adv-x="778" d="M99 56v455h-33q-18 0 -31 13t-13 30q0 18 13 31t31 13h33v46q0 26 18 43.5t44 17.5q25 0 43 -17.5t18 -43.5v-46h334v46q0 26 18 43.5t43 17.5q26 0 44 -17.5t18 -43.5v-46h32q18 0 31 -13t13 -31q0 -17 -13 -30t-31 -13h-32v-455q0 -26 -18 -43.5t-44 -17.5 q-25 0 -43 17.5t-18 43.5v239h-334v-239q0 -26 -18 -43.5t-43 -17.5q-26 0 -44 17.5t-18 43.5zM222 409h334v102h-334v-102z"/>
<glyph glyph-name="hbar" unicode="ħ" horiz-adv-x="620" d="M76 55v547h-38q-15 0 -25.5 10.5t-10.5 25.5q0 14 10.5 25t25.5 11h38v1q0 25 17.5 42.5t42.5 17.5t43 -17.5t18 -42.5v-1h133q15 0 25.5 -11t10.5 -25q0 -15 -10.5 -25.5t-25.5 -10.5h-133v-155q64 92 165 92q88 0 138 -54.5t50 -147.5v-282q0 -25 -17 -42.5t-43 -17.5 t-43.5 17.5t-17.5 42.5v245q0 62 -29.5 95.5t-83.5 33.5q-53 0 -86 -35t-33 -96v-243q0 -25 -17.5 -42.5t-43.5 -17.5q-25 0 -42.5 17.5t-17.5 42.5z"/>
<glyph glyph-name="Imacron" unicode="Ī" horiz-adv-x="317" d="M97 56v588q0 26 18 43.5t44 17.5q25 0 43 -17.5t18 -43.5v-588q0 -26 -18 -43.5t-43 -17.5q-26 0 -44 17.5t-18 43.5zM292 769h-266q-18 0 -31 13t-13 31t13 31t31 13h266q18 0 31 -13t13 -31t-13 -31t-31 -13z"/>
<glyph glyph-name="imacron" unicode="ī" horiz-adv-x="286" d="M83 55v418q0 26 17.5 43.5t42.5 17.5t43 -18t18 -43v-418q0 -25 -17.5 -42.5t-43.5 -17.5q-25 0 -42.5 17.5t-17.5 42.5zM276 606h-266q-18 0 -31 13t-13 31t13 31t31 13h266q18 0 31 -13t13 -31t-13 -31t-31 -13z"/>
<glyph glyph-name="Ibreve" unicode="Ĭ" horiz-adv-x="317" d="M97 56v588q0 26 18 43.5t44 17.5q25 0 43 -17.5t18 -43.5v-588q0 -26 -18 -43.5t-43 -17.5q-26 0 -44 17.5t-18 43.5zM159 756q-108 0 -153 80q-8 16 -8 31q0 18 12 30.5t30 12.5q25 0 38 -23q26 -46 81 -46q57 0 81 46q13 23 38 23q18 0 30 -12.5t12 -30.5q0 -15 -8 -31 q-45 -80 -153 -80z"/>
<glyph glyph-name="ibreve" unicode="ĭ" horiz-adv-x="286" d="M83 55v418q0 26 17.5 43.5t42.5 17.5t43 -18t18 -43v-418q0 -25 -17.5 -42.5t-43.5 -17.5q-25 0 -42.5 17.5t-17.5 42.5zM143 593q-108 0 -153 80q-8 16 -8 31q0 18 12 30.5t30 12.5q25 0 38 -23q26 -46 81 -46q57 0 81 46q13 23 38 23q18 0 30 -12.5t12 -30.5 q0 -15 -8 -31q-45 -80 -153 -80z"/>
<glyph glyph-name="Iogonek" unicode="Į" horiz-adv-x="317" d="M67 -82q0 42 48 93q-18 16 -18 41v592q0 26 18 43.5t44 17.5q25 0 43 -17.5t18 -43.5v-589q0 -27 -23 -50q-39 -40 -39 -68q0 -30 44 -41q34 -7 34 -31q0 -31 -40 -31q-54 0 -91.5 21t-37.5 63z"/>
<glyph glyph-name="iogonek" unicode="į" horiz-adv-x="286" d="M204 473v-421q0 -25 -24 -48q-40 -39 -40 -68t43 -40q33 -8 33 -31q0 -31 -40 -31q-53 0 -90.5 20.5t-37.5 60.5q0 48 53 96q-18 16 -18 40v422q0 26 17.5 43.5t42.5 17.5t43 -18t18 -43zM74 664v6q0 27 19.5 43t49.5 16t49.5 -16t19.5 -43v-6q0 -27 -19.5 -43.5 t-49.5 -16.5t-49.5 16.5t-19.5 43.5z"/>
<glyph glyph-name="Idotaccent" unicode="İ" horiz-adv-x="317" d="M97 56v588q0 26 18 43.5t44 17.5q25 0 43 -17.5t18 -43.5v-588q0 -26 -18 -43.5t-43 -17.5q-26 0 -44 17.5t-18 43.5zM227 821v-7q0 -27 -19.5 -44t-48.5 -17q-28 0 -47.5 17t-19.5 44v7q0 27 19.5 44.5t47.5 17.5t48 -17.5t20 -44.5z"/>
<glyph glyph-name="dotlessi" unicode="ı" horiz-adv-x="286" d="M83 55v418q0 26 17.5 43.5t42.5 17.5t43 -18t18 -43v-418q0 -25 -17.5 -42.5t-43.5 -17.5q-25 0 -42.5 17.5t-17.5 42.5z"/>
<glyph glyph-name="Kcommaaccent" unicode="Ķ" horiz-adv-x="713" d="M356 -161q-54 9 -54 53v2q0 23 17 38t44 15q29 0 46.5 -19t17.5 -51v-3q0 -71 -43 -108q-36 -33 -86 -33q-26 0 -26 21q0 16 21 21q65 14 63 64zM90 56v588q0 26 18 43.5t44 17.5t43.5 -17.5t17.5 -43.5v-296l332 334q21 23 51 23q25 0 41 -17t16 -40q0 -26 -22 -46 l-218 -210l236 -293q17 -22 17 -44q0 -25 -18 -42.5t-44 -17.5q-30 0 -52 29l-225 287l-114 -110v-145q0 -26 -17.5 -43.5t-43.5 -17.5t-44 17.5t-18 43.5z"/>
<glyph glyph-name="kcommaaccent" unicode="ķ" horiz-adv-x="580" d="M295 -166q-54 9 -54 53v2q0 23 17 38t44 15q29 0 46.5 -19t17.5 -51v-3q0 -71 -43 -108q-36 -33 -86 -33q-26 0 -26 21q0 17 21 21q65 14 63 64zM76 55v620q0 25 17.5 42.5t42.5 17.5t43 -17.5t18 -42.5v-390l227 223q26 26 52 26q23 0 38 -16t15 -39q0 -26 -27 -51 l-140 -129l160 -209q16 -22 16 -40q0 -24 -16.5 -39.5t-40.5 -15.5q-32 0 -53 27l-151 201l-80 -76v-92q0 -25 -17.5 -42.5t-43.5 -17.5q-25 0 -42.5 17.5t-17.5 42.5z"/>
<glyph glyph-name="Lacute" unicode="Ĺ" horiz-adv-x="619" d="M169 753q-30 0 -30 21q0 10 8 22l57 88q18 29 48 29q25 0 48.5 -12.5t23.5 -26.5q0 -15 -17 -30l-67 -64q-29 -27 -71 -27zM90 62v582q0 26 18 43.5t44 17.5t43.5 -17.5t17.5 -43.5v-532h317q23 0 39.5 -16.5t16.5 -39.5t-16.5 -39.5t-39.5 -16.5h-378q-26 0 -44 18 t-18 44z"/>
<glyph glyph-name="lacute" unicode="ĺ" horiz-adv-x="286" d="M141 770q-30 0 -30 21q0 10 8 22l57 88q18 29 48 29q25 0 48.5 -12.5t23.5 -26.5q0 -15 -17 -30l-67 -64q-29 -27 -71 -27zM83 55v620q0 25 17.5 42.5t42.5 17.5t43 -17.5t18 -42.5v-620q0 -25 -17.5 -42.5t-43.5 -17.5q-25 0 -42.5 17.5t-17.5 42.5z"/>
<glyph glyph-name="Lcommaaccent" unicode="Ļ" horiz-adv-x="619" d="M325 -166q-54 9 -54 53v2q0 23 17 38t44 15q29 0 46.5 -19t17.5 -51v-3q0 -71 -43 -108q-36 -33 -86 -33q-26 0 -26 21q0 17 21 21q65 14 63 64zM90 62v582q0 26 18 43.5t44 17.5t43.5 -17.5t17.5 -43.5v-532h317q23 0 39.5 -16.5t16.5 -39.5t-16.5 -39.5t-39.5 -16.5 h-378q-26 0 -44 18t-18 44z"/>
<glyph glyph-name="lcommaaccent" unicode="ļ" horiz-adv-x="286" d="M135 -166q-54 9 -54 53v2q0 23 17 38t44 15q29 0 46.5 -19t17.5 -51v-3q0 -71 -43 -108q-36 -33 -86 -33q-26 0 -26 21q0 17 21 21q65 14 63 64zM83 55v620q0 25 17.5 42.5t42.5 17.5t43 -17.5t18 -42.5v-620q0 -25 -17.5 -42.5t-43.5 -17.5q-25 0 -42.5 17.5t-17.5 42.5 z"/>
<glyph glyph-name="Lcaron" unicode="Ľ" horiz-adv-x="619" d="M297 534l3 124q1 19 13 31.5t31 12.5h18q31 0 31 -29q0 -11 -4 -23l-37 -121q-8 -25 -29 -25q-12 0 -19.5 8t-6.5 22zM90 62v582q0 26 18 43.5t44 17.5t43.5 -17.5t17.5 -43.5v-532h317q23 0 39.5 -16.5t16.5 -39.5t-16.5 -39.5t-39.5 -16.5h-378q-26 0 -44 18t-18 44z "/>
<glyph glyph-name="lcaron" unicode="ľ" horiz-adv-x="286" d="M260 567l3 124q1 19 13 31.5t31 12.5h18q31 0 31 -29q0 -11 -4 -23l-37 -121q-8 -25 -29 -25q-12 0 -19.5 8t-6.5 22zM83 55v620q0 25 17.5 42.5t42.5 17.5t43 -17.5t18 -42.5v-620q0 -25 -17.5 -42.5t-43.5 -17.5q-25 0 -42.5 17.5t-17.5 42.5z"/>
<glyph glyph-name="Ldot" unicode="Ŀ" horiz-adv-x="619" d="M90 62v582q0 26 18 43.5t44 17.5t43.5 -17.5t17.5 -43.5v-532h317q23 0 39.5 -16.5t16.5 -39.5t-16.5 -39.5t-39.5 -16.5h-378q-26 0 -44 18t-18 44zM543 381v-7q0 -27 -19.5 -44t-48.5 -17q-28 0 -47.5 17t-19.5 44v7q0 27 19.5 44.5t47.5 17.5t48 -17.5t20 -44.5z"/>
<glyph glyph-name="ldot" unicode="ŀ" horiz-adv-x="367" d="M382 380v-11q0 -23 -15.5 -39t-39.5 -16t-39.5 16t-15.5 39v11q0 23 15.5 39t39.5 16t39.5 -16t15.5 -39zM83 55v620q0 25 17.5 42.5t42.5 17.5t43 -17.5t18 -42.5v-620q0 -25 -17.5 -42.5t-43.5 -17.5q-25 0 -42.5 17.5t-17.5 42.5z"/>
<glyph glyph-name="Lslash" unicode="Ł" horiz-adv-x="649" d="M410 366l-168 -51v-203h318q23 0 39.5 -16.5t16.5 -39.5t-16.5 -39.5t-39.5 -16.5h-378q-26 0 -44 18t-18 44v216l-6 -2q-3 0 -7.5 -1t-7.5 -1.5t-5 -0.5q-23 0 -38.5 16.5t-15.5 39.5q0 40 39 52l41 12v251q0 26 18 43.5t43 17.5t43 -17.5t18 -43.5v-214l133 40 q10 3 20 3q22 0 38 -16t16 -39q0 -41 -39 -52z"/>
<glyph glyph-name="lslash" unicode="ł" horiz-adv-x="346" d="M277 346l-44 -14v-277q0 -25 -17.5 -42.5t-42.5 -17.5t-42.5 17.5t-17.5 42.5v241l-9 -2q-10 -3 -20 -3q-23 0 -38.5 16t-15.5 39q0 40 39 52q19 6 44 13v264q0 25 17.5 42.5t42.5 17.5t42.5 -17.5t17.5 -42.5v-228l9 3q10 3 20 3q23 0 38.5 -16t15.5 -39q0 -42 -39 -52z "/>
<glyph glyph-name="Nacute" unicode="Ń" horiz-adv-x="790" d="M391 753q-30 0 -30 21q0 10 8 22l57 88q18 29 48 29q25 0 48.5 -12.5t23.5 -26.5q0 -15 -17 -30l-67 -64q-29 -27 -71 -27zM90 55v587q0 26 18 44t44 18h13q35 0 64 -36l350 -453v430q0 25 17.5 42.5t42.5 17.5t43 -17.5t18 -42.5v-588q0 -26 -17.5 -43.5t-42.5 -17.5h-5 q-35 0 -64 37l-360 466v-444q0 -25 -17.5 -42.5t-42.5 -17.5t-43 17.5t-18 42.5z"/>
<glyph glyph-name="nacute" unicode="ń" horiz-adv-x="620" d="M309 590q-30 0 -30 21q0 10 8 22l57 88q18 29 48 29q25 0 48.5 -12.5t23.5 -26.5q0 -15 -17 -30l-67 -64q-29 -27 -71 -27zM76 55v418q0 26 17.5 43.5t42.5 17.5q26 0 43.5 -18t17.5 -43v-26q64 92 165 92q88 0 138 -54.5t50 -147.5v-282q0 -25 -17 -42.5t-43 -17.5 t-43.5 17.5t-17.5 42.5v245q0 62 -29.5 95.5t-83.5 33.5q-53 0 -86 -35t-33 -96v-243q0 -25 -17.5 -42.5t-43.5 -17.5q-25 0 -42.5 17.5t-17.5 42.5z"/>
<glyph glyph-name="Ncommaaccent" unicode="Ņ" horiz-adv-x="790" d="M386 -161q-54 9 -54 53v2q0 23 17 38t44 15q29 0 46.5 -19t17.5 -51v-3q0 -71 -43 -108q-36 -33 -86 -33q-26 0 -26 21q0 16 21 21q65 14 63 64zM90 55v587q0 26 18 44t44 18h13q35 0 64 -36l350 -453v430q0 25 17.5 42.5t42.5 17.5t43 -17.5t18 -42.5v-588 q0 -26 -17.5 -43.5t-42.5 -17.5h-5q-35 0 -64 37l-360 466v-444q0 -25 -17.5 -42.5t-42.5 -17.5t-43 17.5t-18 42.5z"/>
<glyph glyph-name="ncommaaccent" unicode="ņ" horiz-adv-x="620" d="M304 -166q-54 9 -54 53v2q0 23 17 38t44 15q29 0 46.5 -19t17.5 -51v-3q0 -71 -43 -108q-36 -33 -86 -33q-26 0 -26 21q0 17 21 21q65 14 63 64zM76 55v418q0 26 17.5 43.5t42.5 17.5q26 0 43.5 -18t17.5 -43v-26q64 92 165 92q88 0 138 -54.5t50 -147.5v-282 q0 -25 -17 -42.5t-43 -17.5t-43.5 17.5t-17.5 42.5v245q0 62 -29.5 95.5t-83.5 33.5q-53 0 -86 -35t-33 -96v-243q0 -25 -17.5 -42.5t-43.5 -17.5q-25 0 -42.5 17.5t-17.5 42.5z"/>
<glyph glyph-name="Ncaron" unicode="Ň" horiz-adv-x="790" d="M396 838l52 45q33 27 74 27q27 0 27 -20q0 -8 -12 -24l-66 -83q-23 -29 -58 -29h-36q-34 0 -58 29l-66 83q-12 16 -12 24q0 20 29 20q42 0 74 -27zM90 55v587q0 26 18 44t44 18h13q35 0 64 -36l350 -453v430q0 25 17.5 42.5t42.5 17.5t43 -17.5t18 -42.5v-588 q0 -26 -17.5 -43.5t-42.5 -17.5h-5q-35 0 -64 37l-360 466v-444q0 -25 -17.5 -42.5t-42.5 -17.5t-43 17.5t-18 42.5z"/>
<glyph glyph-name="ncaron" unicode="ň" horiz-adv-x="620" d="M313 675l52 45q33 27 74 27q27 0 27 -20q0 -8 -12 -24l-66 -83q-23 -29 -58 -29h-36q-34 0 -58 29l-66 83q-12 16 -12 24q0 20 29 20q42 0 74 -27zM76 55v418q0 26 17.5 43.5t42.5 17.5q26 0 43.5 -18t17.5 -43v-26q64 92 165 92q88 0 138 -54.5t50 -147.5v-282 q0 -25 -17 -42.5t-43 -17.5t-43.5 17.5t-17.5 42.5v245q0 62 -29.5 95.5t-83.5 33.5q-53 0 -86 -35t-33 -96v-243q0 -25 -17.5 -42.5t-43.5 -17.5q-25 0 -42.5 17.5t-17.5 42.5z"/>
<glyph glyph-name="Omacron" unicode="Ō" horiz-adv-x="850" d="M558 779h-266q-18 0 -31 13t-13 31t13 31t31 13h266q18 0 31 -13t13 -31t-13 -31t-31 -13zM424 -12q-159 0 -262 105t-103 255v2q0 150 104 256t263 106t262 -105t103 -255v-2q0 -150 -104 -256t-263 -106zM426 102q103 0 169.5 71t66.5 175v2q0 104 -67.5 176.5 t-170.5 72.5t-169.5 -71.5t-66.5 -175.5v-2q0 -104 67.5 -176t170.5 -72z"/>
<glyph glyph-name="omacron" unicode="ō" horiz-adv-x="657" d="M461 606h-266q-18 0 -31 13t-13 31t13 31t31 13h266q18 0 31 -13t13 -31t-13 -31t-31 -13zM327 -12q-120 0 -200 79.5t-80 193.5v2q0 115 81 195.5t201 80.5t200.5 -80t80.5 -194v-2q0 -114 -81 -194.5t-202 -80.5zM329 94q72 0 116 48.5t44 118.5v2q0 71 -46 120.5 t-116 49.5q-71 0 -115 -48.5t-44 -119.5v-2q0 -70 46 -119.5t115 -49.5z"/>
<glyph glyph-name="Obreve" unicode="Ŏ" horiz-adv-x="850" d="M424 -12q-159 0 -262 105t-103 255v2q0 150 104 256t263 106t262 -105t103 -255v-2q0 -150 -104 -256t-263 -106zM426 102q103 0 169.5 71t66.5 175v2q0 104 -67.5 176.5t-170.5 72.5t-169.5 -71.5t-66.5 -175.5v-2q0 -104 67.5 -176t170.5 -72zM425 766q-108 0 -153 80 q-8 16 -8 31q0 18 12 30.5t30 12.5q25 0 38 -23q26 -46 81 -46q57 0 81 46q13 23 38 23q18 0 30 -12.5t12 -30.5q0 -15 -8 -31q-45 -80 -153 -80z"/>
<glyph glyph-name="obreve" unicode="ŏ" horiz-adv-x="657" d="M327 -12q-120 0 -200 79.5t-80 193.5v2q0 115 81 195.5t201 80.5t200.5 -80t80.5 -194v-2q0 -114 -81 -194.5t-202 -80.5zM329 94q72 0 116 48.5t44 118.5v2q0 71 -46 120.5t-116 49.5q-71 0 -115 -48.5t-44 -119.5v-2q0 -70 46 -119.5t115 -49.5zM328 593 q-108 0 -153 80q-8 16 -8 31q0 18 12 30.5t30 12.5q25 0 38 -23q26 -46 81 -46q57 0 81 46q13 23 38 23q18 0 30 -12.5t12 -30.5q0 -15 -8 -31q-45 -80 -153 -80z"/>
<glyph glyph-name="Ohungarumlaut" unicode="Ő" horiz-adv-x="850" d="M503 763q-29 0 -29 21q0 10 8 22l58 88q17 29 46 29q24 0 47 -12t23 -26t-17 -31l-67 -64q-29 -27 -69 -27zM320 763q-29 0 -29 21q0 10 8 22l58 88q17 29 46 29q24 0 47 -12t23 -26t-17 -31l-67 -64q-28 -27 -69 -27zM424 -12q-159 0 -262 105t-103 255v2q0 150 104 256 t263 106t262 -105t103 -255v-2q0 -150 -104 -256t-263 -106zM426 102q103 0 169.5 71t66.5 175v2q0 104 -67.5 176.5t-170.5 72.5t-169.5 -71.5t-66.5 -175.5v-2q0 -104 67.5 -176t170.5 -72z"/>
<glyph glyph-name="ohungarumlaut" unicode="ő" horiz-adv-x="657" d="M407 590q-29 0 -29 21q0 10 8 22l58 88q17 29 46 29q24 0 47 -12t23 -26t-17 -31l-67 -64q-29 -27 -69 -27zM224 590q-29 0 -29 21q0 10 8 22l58 88q17 29 46 29q24 0 47 -12t23 -26t-17 -31l-67 -64q-28 -27 -69 -27zM327 -12q-120 0 -200 79.5t-80 193.5v2 q0 115 81 195.5t201 80.5t200.5 -80t80.5 -194v-2q0 -114 -81 -194.5t-202 -80.5zM329 94q72 0 116 48.5t44 118.5v2q0 71 -46 120.5t-116 49.5q-71 0 -115 -48.5t-44 -119.5v-2q0 -70 46 -119.5t115 -49.5z"/>
<glyph glyph-name="OE" unicode="Œ" horiz-adv-x="1098" d="M431 0q-164 0 -268 99t-104 249v2q0 150 104.5 250t267.5 100h556q23 0 39.5 -16t16.5 -39t-16.5 -39t-39.5 -16h-324v-182h279q23 0 39.5 -16.5t16.5 -39.5q0 -22 -16.5 -38t-39.5 -16h-279v-188h329q23 0 39.5 -16t16.5 -39t-16.5 -39t-39.5 -16h-561zM431 112h109v476 h-109q-109 0 -176 -66t-67 -170v-2q0 -104 67 -171t176 -67z"/>
<glyph glyph-name="oe" unicode="œ" horiz-adv-x="1040" d="M602 301h272q-7 62 -41.5 100.5t-92.5 38.5q-55 0 -92.5 -38.5t-45.5 -100.5zM326 94q70 0 113 48.5t43 118.5v2q0 71 -45 120.5t-113 49.5q-69 0 -112.5 -49t-43.5 -119v-2q0 -70 45 -119.5t113 -49.5zM943 58q-78 -70 -189 -70q-68 0 -125 29.5t-93 81.5 q-35 -51 -91.5 -81t-123.5 -30q-114 0 -194 80t-80 193v2q0 114 81 195t198 81q66 0 121.5 -29t89.5 -80q34 51 87 80t117 29q117 0 183.5 -79.5t66.5 -180.5q0 -25 -16.5 -41.5t-40.5 -16.5h-331q10 -63 51.5 -98.5t100.5 -35.5q69 0 125 46q14 11 31 11q21 0 34.5 -14 t13.5 -35q0 -23 -16 -37z"/>
<glyph glyph-name="Racute" unicode="Ŕ" horiz-adv-x="723" d="M90 56v582q0 26 18 44t44 18h250q130 0 202 -70q58 -60 58 -151v-2q0 -81 -42.5 -133.5t-116.5 -75.5l134 -169q20 -25 20 -47q0 -25 -18 -41t-41 -16q-36 0 -60 32l-170 217h-155v-188q0 -26 -17.5 -43.5t-43.5 -17.5t-44 17.5t-18 43.5zM213 353h180q66 0 105 32t39 85 v2q0 56 -38 86t-107 30h-179v-235zM365 753q-30 0 -30 21q0 10 8 22l57 88q18 29 48 29q25 0 48.5 -12.5t23.5 -26.5q0 -15 -17 -30l-67 -64q-29 -27 -71 -27z"/>
<glyph glyph-name="racute" unicode="ŕ" horiz-adv-x="413" d="M220 590q-30 0 -30 21q0 10 8 22l57 88q18 29 48 29q25 0 48.5 -12.5t23.5 -26.5q0 -15 -17 -30l-67 -64q-29 -27 -71 -27zM76 55v418q0 26 17.5 43.5t42.5 17.5q26 0 43.5 -18t17.5 -43v-54q22 51 58 83.5t75 32.5q28 0 44 -16.5t16 -43.5q0 -23 -13.5 -38.5 t-34.5 -19.5q-67 -12 -106 -63.5t-39 -142.5v-156q0 -25 -18 -42.5t-43 -17.5t-42.5 17.5t-17.5 42.5z"/>
<glyph glyph-name="Rcommaaccent" unicode="Ŗ" horiz-adv-x="723" d="M90 56v582q0 26 18 44t44 18h250q130 0 202 -70q58 -60 58 -151v-2q0 -81 -42.5 -133.5t-116.5 -75.5l134 -169q20 -25 20 -47q0 -25 -18 -41t-41 -16q-36 0 -60 32l-170 217h-155v-188q0 -26 -17.5 -43.5t-43.5 -17.5t-44 17.5t-18 43.5zM213 353h180q66 0 105 32t39 85 v2q0 56 -38 86t-107 30h-179v-235zM360 -161q-54 9 -54 53v2q0 23 17 38t44 15q29 0 46.5 -19t17.5 -51v-3q0 -71 -43 -108q-36 -33 -86 -33q-26 0 -26 21q0 16 21 21q65 14 63 64z"/>
<glyph glyph-name="rcommaaccent" unicode="ŗ" horiz-adv-x="413" d="M135 -166q-54 9 -54 53v2q0 23 17 38t44 15q29 0 46.5 -19t17.5 -51v-3q0 -71 -43 -108q-36 -33 -86 -33q-26 0 -26 21q0 17 21 21q65 14 63 64zM76 55v418q0 26 17.5 43.5t42.5 17.5q26 0 43.5 -18t17.5 -43v-54q22 51 58 83.5t75 32.5q28 0 44 -16.5t16 -43.5 q0 -23 -13.5 -38.5t-34.5 -19.5q-67 -12 -106 -63.5t-39 -142.5v-156q0 -25 -18 -42.5t-43 -17.5t-42.5 17.5t-17.5 42.5z"/>
<glyph glyph-name="Rcaron" unicode="Ř" horiz-adv-x="723" d="M90 56v582q0 26 18 44t44 18h250q130 0 202 -70q58 -60 58 -151v-2q0 -81 -42.5 -133.5t-116.5 -75.5l134 -169q20 -25 20 -47q0 -25 -18 -41t-41 -16q-36 0 -60 32l-170 217h-155v-188q0 -26 -17.5 -43.5t-43.5 -17.5t-44 17.5t-18 43.5zM213 353h180q66 0 105 32t39 85 v2q0 56 -38 86t-107 30h-179v-235zM369 838l52 45q33 27 74 27q27 0 27 -20q0 -8 -12 -24l-66 -83q-23 -29 -58 -29h-36q-34 0 -58 29l-66 83q-12 16 -12 24q0 20 29 20q42 0 74 -27z"/>
<glyph glyph-name="rcaron" unicode="ř" horiz-adv-x="413" d="M225 675l52 45q33 27 74 27q27 0 27 -20q0 -8 -12 -24l-66 -83q-23 -29 -58 -29h-36q-34 0 -58 29l-66 83q-12 16 -12 24q0 20 29 20q42 0 74 -27zM76 55v418q0 26 17.5 43.5t42.5 17.5q26 0 43.5 -18t17.5 -43v-54q22 51 58 83.5t75 32.5q28 0 44 -16.5t16 -43.5 q0 -23 -13.5 -38.5t-34.5 -19.5q-67 -12 -106 -63.5t-39 -142.5v-156q0 -25 -18 -42.5t-43 -17.5t-42.5 17.5t-17.5 42.5z"/>
<glyph glyph-name="Sacute" unicode="Ś" horiz-adv-x="640" d="M322 763q-30 0 -30 21q0 10 8 22l57 88q18 29 48 29q25 0 48.5 -12.5t23.5 -26.5q0 -15 -17 -30l-67 -64q-29 -27 -71 -27zM335 -10q-145 0 -263 88q-24 17 -24 47q0 24 17 40.5t41 16.5q21 0 36 -11q91 -72 196 -72q57 0 90.5 24.5t33.5 63.5v2q0 39 -32 62t-126 45 q-60 15 -100 30t-72 39t-46.5 58.5t-14.5 81.5v2q0 90 67 146.5t172 56.5q125 0 222 -65q27 -15 27 -49q0 -24 -17 -40.5t-41 -16.5q-17 0 -32 9q-82 53 -161 53q-52 0 -83 -23.5t-31 -59.5v-2q0 -41 33.5 -63.5t133.5 -46.5q116 -28 170 -74.5t54 -130.5v-2q0 -97 -69 -153 t-181 -56z"/>
<glyph glyph-name="sacute" unicode="ś" horiz-adv-x="501" d="M250 590q-30 0 -30 21q0 10 8 22l57 88q18 29 48 29q25 0 48.5 -12.5t23.5 -26.5q0 -15 -17 -30l-67 -64q-29 -27 -71 -27zM257 -10q-110 0 -201 63q-23 12 -23 42q0 20 14 34.5t35 14.5q14 0 26 -7q76 -51 152 -51q39 0 60.5 15.5t21.5 41.5v2q0 38 -106 70q-8 3 -12 4 q-36 10 -60 20t-51 27.5t-40.5 44.5t-13.5 63v2q0 73 53.5 117t134.5 44q85 0 166 -43q29 -15 29 -46q0 -21 -14.5 -35t-35.5 -14q-12 0 -24 6q-70 36 -124 36q-34 0 -54 -14.5t-20 -37.5v-2q0 -25 27 -39.5t82 -32.5q7 -2 10 -3q35 -11 59 -21.5t50.5 -28.5t40.5 -44 t14 -60v-2q0 -80 -55 -123t-141 -43z"/>
<glyph glyph-name="Scedilla" unicode="Ş" horiz-adv-x="640" d="M585 199q0 -88 -57.5 -142.5t-153.5 -64.5l-53 -123q-12 -29 -39 -29q-20 0 -45 14.5t-25 29.5q0 12 8 23l59 87q-115 14 -207 84q-24 17 -24 47q0 24 17 40.5t41 16.5q21 0 36 -11q91 -72 196 -72q57 0 90.5 24.5t33.5 63.5v2q0 39 -32 62t-126 45q-60 15 -100 30 t-72 39t-46.5 58.5t-14.5 81.5v2q0 90 67 146.5t172 56.5q125 0 222 -65q27 -15 27 -49q0 -24 -17 -40.5t-41 -16.5q-17 0 -32 9q-82 53 -161 53q-52 0 -83 -23.5t-31 -59.5v-2q0 -41 33.5 -63.5t133.5 -46.5q116 -28 170 -74.5t54 -130.5v-2z"/>
<glyph glyph-name="scedilla" unicode="ş" horiz-adv-x="501" d="M453 156q0 -71 -44 -113t-116 -51l-53 -123q-12 -29 -39 -29q-20 0 -45 14.5t-25 29.5q0 12 8 23l60 88q-76 12 -143 58q-23 12 -23 42q0 20 14 34.5t35 14.5q14 0 26 -7q76 -51 152 -51q39 0 60.5 15.5t21.5 41.5v2q0 38 -106 70q-8 3 -12 4q-36 10 -60 20t-51 27.5 t-40.5 44.5t-13.5 63v2q0 73 53.5 117t134.5 44q85 0 166 -43q29 -15 29 -46q0 -21 -14.5 -35t-35.5 -14q-12 0 -24 6q-70 36 -124 36q-34 0 -54 -14.5t-20 -37.5v-2q0 -25 27 -39.5t82 -32.5q7 -2 10 -3q35 -11 59 -21.5t50.5 -28.5t40.5 -44t14 -60v-2z"/>
<glyph glyph-name="Scaron" unicode="Š" horiz-adv-x="640" d="M326 848l52 45q33 27 74 27q27 0 27 -20q0 -8 -12 -24l-66 -83q-23 -29 -58 -29h-36q-34 0 -58 29l-66 83q-12 16 -12 24q0 20 29 20q42 0 74 -27zM335 -10q-145 0 -263 88q-24 17 -24 47q0 24 17 40.5t41 16.5q21 0 36 -11q91 -72 196 -72q57 0 90.5 24.5t33.5 63.5v2 q0 39 -32 62t-126 45q-60 15 -100 30t-72 39t-46.5 58.5t-14.5 81.5v2q0 90 67 146.5t172 56.5q125 0 222 -65q27 -15 27 -49q0 -24 -17 -40.5t-41 -16.5q-17 0 -32 9q-82 53 -161 53q-52 0 -83 -23.5t-31 -59.5v-2q0 -41 33.5 -63.5t133.5 -46.5q116 -28 170 -74.5 t54 -130.5v-2q0 -97 -69 -153t-181 -56z"/>
<glyph glyph-name="scaron" unicode="š" horiz-adv-x="501" d="M254 675l52 45q33 27 74 27q27 0 27 -20q0 -8 -12 -24l-66 -83q-23 -29 -58 -29h-36q-34 0 -58 29l-66 83q-12 16 -12 24q0 20 29 20q42 0 74 -27zM257 -10q-110 0 -201 63q-23 12 -23 42q0 20 14 34.5t35 14.5q14 0 26 -7q76 -51 152 -51q39 0 60.5 15.5t21.5 41.5v2 q0 38 -106 70q-8 3 -12 4q-36 10 -60 20t-51 27.5t-40.5 44.5t-13.5 63v2q0 73 53.5 117t134.5 44q85 0 166 -43q29 -15 29 -46q0 -21 -14.5 -35t-35.5 -14q-12 0 -24 6q-70 36 -124 36q-34 0 -54 -14.5t-20 -37.5v-2q0 -25 27 -39.5t82 -32.5q7 -2 10 -3q35 -11 59 -21.5 t50.5 -28.5t40.5 -44t14 -60v-2q0 -80 -55 -123t-141 -43z"/>
<glyph glyph-name="Tcommaaccent" unicode="Ţ" horiz-adv-x="648" d="M315 -166q-54 9 -54 53v2q0 23 17 38t44 15q29 0 46.5 -19t17.5 -51v-3q0 -71 -43 -108q-36 -33 -86 -33q-26 0 -26 21q0 17 21 21q65 14 63 64zM262 56v530h-170q-24 0 -40.5 17t-16.5 40t16.5 40t40.5 17h465q23 0 39.5 -17t16.5 -40t-16.5 -40t-39.5 -17h-171v-530 q0 -25 -18 -43t-44 -18t-44 18t-18 43z"/>
<glyph glyph-name="tcommaaccent" unicode="ţ" horiz-adv-x="411" d="M215 -166q-54 9 -54 53v2q0 23 17 38t44 15q29 0 46.5 -19t17.5 -51v-3q0 -71 -43 -108q-36 -33 -86 -33q-26 0 -26 21q0 17 21 21q65 14 63 64zM253 -9q-152 0 -152 155v278h-20q-22 0 -37 15t-15 37t15 37t37 15h20v90q0 25 18 42.5t43 17.5t42.5 -17.5t17.5 -42.5v-90 h95q22 0 37.5 -15t15.5 -37t-15.5 -37t-37.5 -15h-95v-259q0 -66 65 -66q8 0 18.5 1.5t11.5 1.5q21 0 36 -14.5t15 -35.5q0 -34 -32 -47q-40 -14 -83 -14z"/>
<glyph glyph-name="Tcaron" unicode="Ť" horiz-adv-x="648" d="M325 838l52 45q33 27 74 27q27 0 27 -20q0 -8 -12 -24l-66 -83q-23 -29 -58 -29h-36q-34 0 -58 29l-66 83q-12 16 -12 24q0 20 29 20q42 0 74 -27zM262 56v530h-170q-24 0 -40.5 17t-16.5 40t16.5 40t40.5 17h465q23 0 39.5 -17t16.5 -40t-16.5 -40t-39.5 -17h-171v-530 q0 -25 -18 -43t-44 -18t-44 18t-18 43z"/>
<glyph glyph-name="tcaron" unicode="ť" horiz-adv-x="411" d="M305 612l3 124q1 19 13 31.5t31 12.5h18q31 0 31 -29q0 -11 -4 -23l-37 -121q-8 -25 -29 -25q-12 0 -19.5 8t-6.5 22zM253 -9q-152 0 -152 155v278h-20q-22 0 -37 15t-15 37t15 37t37 15h20v90q0 25 18 42.5t43 17.5t42.5 -17.5t17.5 -42.5v-90h95q22 0 37.5 -15 t15.5 -37t-15.5 -37t-37.5 -15h-95v-259q0 -66 65 -66q8 0 18.5 1.5t11.5 1.5q21 0 36 -14.5t15 -35.5q0 -34 -32 -47q-40 -14 -83 -14z"/>
<glyph glyph-name="Umacron" unicode="Ū" horiz-adv-x="757" d="M377 -11q-139 0 -218.5 79t-79.5 229v347q0 26 18 43.5t44 17.5q25 0 43 -17.5t18 -43.5v-342q0 -96 46.5 -147.5t130.5 -51.5q83 0 129.5 49.5t46.5 144.5v347q0 26 18 43.5t44 17.5q25 0 43 -17.5t18 -43.5v-341q0 -153 -80 -233.5t-221 -80.5zM511 769h-266 q-18 0 -31 13t-13 31t13 31t31 13h266q18 0 31 -13t13 -31t-13 -31t-31 -13z"/>
<glyph glyph-name="umacron" unicode="ū" horiz-adv-x="620" d="M545 473v-418q0 -25 -18 -42.5t-43 -17.5t-43 17.5t-18 42.5v27q-63 -93 -165 -93q-88 0 -138 55t-50 148v281q0 25 17.5 43t42.5 18q26 0 43.5 -18t17.5 -43v-245q0 -61 29.5 -94.5t83.5 -33.5q53 0 86 34.5t33 95.5v243q0 25 17.5 43t43.5 18q25 0 43 -18t18 -43z M439 606h-266q-18 0 -31 13t-13 31t13 31t31 13h266q18 0 31 -13t13 -31t-13 -31t-31 -13z"/>
<glyph glyph-name="Ubreve" unicode="Ŭ" horiz-adv-x="757" d="M377 -11q-139 0 -218.5 79t-79.5 229v347q0 26 18 43.5t44 17.5q25 0 43 -17.5t18 -43.5v-342q0 -96 46.5 -147.5t130.5 -51.5q83 0 129.5 49.5t46.5 144.5v347q0 26 18 43.5t44 17.5q25 0 43 -17.5t18 -43.5v-341q0 -153 -80 -233.5t-221 -80.5zM378 752q-108 0 -153 80 q-8 16 -8 31q0 18 12 30.5t30 12.5q25 0 38 -23q26 -46 81 -46q57 0 81 46q13 23 38 23q18 0 30 -12.5t12 -30.5q0 -15 -8 -31q-45 -80 -153 -80z"/>
<glyph glyph-name="ubreve" unicode="ŭ" horiz-adv-x="620" d="M545 473v-418q0 -25 -18 -42.5t-43 -17.5t-43 17.5t-18 42.5v27q-63 -93 -165 -93q-88 0 -138 55t-50 148v281q0 25 17.5 43t42.5 18q26 0 43.5 -18t17.5 -43v-245q0 -61 29.5 -94.5t83.5 -33.5q53 0 86 34.5t33 95.5v243q0 25 17.5 43t43.5 18q25 0 43 -18t18 -43z M306 593q-108 0 -153 80q-8 16 -8 31q0 18 12 30.5t30 12.5q25 0 38 -23q26 -46 81 -46q57 0 81 46q13 23 38 23q18 0 30 -12.5t12 -30.5q0 -15 -8 -31q-45 -80 -153 -80z"/>
<glyph glyph-name="Uring" unicode="Ů" horiz-adv-x="757" d="M378 742q-45 0 -79.5 32.5t-34.5 76.5v2q0 45 34.5 77t79.5 32t79.5 -32t34.5 -77v-2q0 -44 -34.5 -76.5t-79.5 -32.5zM378 790q25 0 43.5 18t18.5 43v2q0 25 -18.5 43t-43.5 18t-43.5 -18t-18.5 -43v-2q0 -25 18.5 -43t43.5 -18zM377 -11q-139 0 -218.5 79t-79.5 229 v347q0 26 18 43.5t44 17.5q25 0 43 -17.5t18 -43.5v-342q0 -96 46.5 -147.5t130.5 -51.5q83 0 129.5 49.5t46.5 144.5v347q0 26 18 43.5t44 17.5q25 0 43 -17.5t18 -43.5v-341q0 -153 -80 -233.5t-221 -80.5z"/>
<glyph glyph-name="uring" unicode="ů" horiz-adv-x="620" d="M306 592q-45 0 -79.5 32.5t-34.5 76.5v2q0 45 34.5 77t79.5 32t79.5 -32t34.5 -77v-2q0 -44 -34.5 -76.5t-79.5 -32.5zM306 640q25 0 43.5 18t18.5 43v2q0 25 -18.5 43t-43.5 18t-43.5 -18t-18.5 -43v-2q0 -25 18.5 -43t43.5 -18zM545 473v-418q0 -25 -18 -42.5 t-43 -17.5t-43 17.5t-18 42.5v27q-63 -93 -165 -93q-88 0 -138 55t-50 148v281q0 25 17.5 43t42.5 18q26 0 43.5 -18t17.5 -43v-245q0 -61 29.5 -94.5t83.5 -33.5q53 0 86 34.5t33 95.5v243q0 25 17.5 43t43.5 18q25 0 43 -18t18 -43z"/>
<glyph glyph-name="Uhungarumlaut" unicode="Ű" horiz-adv-x="757" d="M377 -11q-139 0 -218.5 79t-79.5 229v347q0 26 18 43.5t44 17.5q25 0 43 -17.5t18 -43.5v-342q0 -96 46.5 -147.5t130.5 -51.5q83 0 129.5 49.5t46.5 144.5v347q0 26 18 43.5t44 17.5q25 0 43 -17.5t18 -43.5v-341q0 -153 -80 -233.5t-221 -80.5zM457 753q-29 0 -29 21 q0 10 8 22l58 88q17 29 46 29q24 0 47 -12t23 -26t-17 -31l-67 -64q-29 -27 -69 -27zM274 753q-29 0 -29 21q0 10 8 22l58 88q17 29 46 29q24 0 47 -12t23 -26t-17 -31l-67 -64q-28 -27 -69 -27z"/>
<glyph glyph-name="uhungarumlaut" unicode="ű" horiz-adv-x="620" d="M545 473v-418q0 -25 -18 -42.5t-43 -17.5t-43 17.5t-18 42.5v27q-63 -93 -165 -93q-88 0 -138 55t-50 148v281q0 25 17.5 43t42.5 18q26 0 43.5 -18t17.5 -43v-245q0 -61 29.5 -94.5t83.5 -33.5q53 0 86 34.5t33 95.5v243q0 25 17.5 43t43.5 18q25 0 43 -18t18 -43z M385 590q-29 0 -29 21q0 10 8 22l58 88q17 29 46 29q24 0 47 -12t23 -26t-17 -31l-67 -64q-29 -27 -69 -27zM202 590q-29 0 -29 21q0 10 8 22l58 88q17 29 46 29q24 0 47 -12t23 -26t-17 -31l-67 -64q-28 -27 -69 -27z"/>
<glyph glyph-name="Uogonek" unicode="Ų" horiz-adv-x="757" d="M294 -82q0 36 33 74q-117 14 -182.5 92t-65.5 213v347q0 26 18 43.5t44 17.5q25 0 43 -17.5t18 -43.5v-342q0 -96 46.5 -147.5t130.5 -51.5q83 0 129.5 49.5t46.5 144.5v347q0 26 18 43.5t44 17.5q25 0 43 -17.5t18 -43.5v-341q0 -144 -71 -223.5t-197 -88.5 q-24 -27 -24 -54q0 -30 44 -41q33 -8 33 -31q0 -31 -40 -31q-53 0 -91 21t-38 63z"/>
<glyph glyph-name="uogonek" unicode="ų" horiz-adv-x="620" d="M545 473v-421q0 -25 -24 -48q-40 -39 -40 -68t43 -40q33 -8 33 -31q0 -31 -40 -31q-53 0 -90.5 20.5t-37.5 60.5q0 48 53 96q-8 7 -13.5 29t-5.5 38v4q-63 -93 -165 -93q-88 0 -138 55t-50 148v281q0 25 17.5 43t42.5 18q26 0 43.5 -18t17.5 -43v-245q0 -61 29.5 -94.5 t83.5 -33.5q53 0 86 34.5t33 95.5v243q0 25 17.5 43t43.5 18q25 0 43 -18t18 -43z"/>
<glyph glyph-name="Wcircumflex" unicode="Ŵ" horiz-adv-x="1099" d="M548 825l-52 -45q-32 -27 -74 -27q-27 0 -27 20q0 8 12 24l66 83q24 29 58 29h36q35 0 58 -29l66 -83q12 -16 12 -24q0 -20 -29 -20q-41 0 -74 27zM254 41l-207 580q-5 12 -5 24q0 25 18.5 42.5t44.5 17.5q22 0 38.5 -12.5t22.5 -32.5l161 -481l158 479q17 49 62 49h9 q47 0 62 -49l158 -479l161 482q16 44 60 44q25 0 43 -17t18 -42q0 -11 -6 -25l-207 -580q-18 -51 -64 -51h-12q-45 0 -63 51l-156 457l-156 -457q-18 -51 -64 -51h-12q-45 0 -64 51z"/>
<glyph glyph-name="wcircumflex" unicode="ŵ" horiz-adv-x="853" d="M424 662l-52 -45q-32 -27 -74 -27q-27 0 -27 20q0 8 12 24l66 83q24 29 58 29h36q35 0 58 -29l66 -83q12 -16 12 -24q0 -20 -29 -20q-41 0 -74 27zM253 -9q-49 0 -67 54l-142 402q-6 16 -6 31q0 23 16.5 39.5t42.5 16.5q44 0 59 -48l102 -320l103 320q15 48 62 48h7 q47 0 62 -48l104 -320l103 321q14 47 59 47q24 0 40.5 -16.5t16.5 -39.5q0 -12 -5 -27l-144 -406q-19 -54 -67 -54h-4q-50 0 -66 52l-103 314l-104 -314q-16 -52 -65 -52h-4z"/>
<glyph glyph-name="Ycircumflex" unicode="Ŷ" horiz-adv-x="696" d="M287 56v216l-241 331q-14 21 -14 43q0 25 18 42t44 17q35 0 60 -37l195 -281l198 282q25 37 59 37q26 0 43 -17.5t17 -42.5q0 -21 -17 -44l-239 -327v-219q0 -26 -18 -43.5t-44 -17.5t-43.5 17.5t-17.5 43.5zM347 825l-52 -45q-32 -27 -74 -27q-27 0 -27 20q0 8 12 24 l66 83q24 29 58 29h36q35 0 58 -29l66 -83q12 -16 12 -24q0 -20 -29 -20q-41 0 -74 27z"/>
<glyph glyph-name="ycircumflex" unicode="ŷ" horiz-adv-x="587" d="M172 -163q-46 0 -84 15q-38 13 -38 50q0 22 14.5 36t34.5 14q10 0 22 -4q25 -7 42 -7q27 0 43.5 12.5t31.5 43.5l4 11l-196 438q-7 16 -7 29q0 25 17 42t43 17q41 0 59 -46l142 -351l132 351q18 46 58 46q24 0 41 -16.5t17 -40.5q0 -14 -5 -29l-193 -463 q-34 -81 -74 -114.5t-104 -33.5zM293 662l-52 -45q-32 -27 -74 -27q-27 0 -27 20q0 8 12 24l66 83q24 29 58 29h36q35 0 58 -29l66 -83q12 -16 12 -24q0 -20 -29 -20q-41 0 -74 27z"/>
<glyph glyph-name="Ydieresis" unicode="Ÿ" horiz-adv-x="696" d="M287 56v216l-241 331q-14 21 -14 43q0 25 18 42t44 17q35 0 60 -37l195 -281l198 282q25 37 59 37q26 0 43 -17.5t17 -42.5q0 -21 -17 -44l-239 -327v-219q0 -26 -18 -43.5t-44 -17.5t-43.5 17.5t-17.5 43.5zM448 883q27 0 46 -17.5t19 -44.5v-7q0 -27 -19 -44t-46 -17 q-28 0 -47 17t-19 44v7q0 27 19 44.5t47 17.5zM249 883q27 0 46 -17.5t19 -44.5v-7q0 -27 -19 -44t-46 -17q-28 0 -47 17t-19 44v7q0 27 19 44.5t47 17.5z"/>
<glyph glyph-name="Zacute" unicode="Ź" horiz-adv-x="702" d="M354 753q-30 0 -30 21q0 10 8 22l57 88q18 29 48 29q25 0 48.5 -12.5t23.5 -26.5q0 -15 -17 -30l-67 -64q-29 -27 -71 -27zM116 0q-22 0 -38.5 16t-16.5 38v3q0 31 23 57l394 477h-351q-22 0 -38 16t-16 38t16 38.5t38 16.5h460q22 0 38.5 -16t16.5 -38v-3q0 -29 -22 -57 l-395 -477h364q23 0 39 -16.5t16 -38.5t-16 -38t-39 -16h-473z"/>
<glyph glyph-name="zacute" unicode="ź" horiz-adv-x="560" d="M279 590q-30 0 -30 21q0 10 8 22l57 88q18 29 48 29q25 0 48.5 -12.5t23.5 -26.5q0 -15 -17 -30l-67 -64q-29 -27 -71 -27zM108 0q-25 0 -42 14t-17 35v2q0 30 27 58l281 320h-249q-21 0 -35.5 14.5t-14.5 34.5q0 21 14.5 35.5t35.5 14.5h348q25 0 41.5 -13.5t16.5 -34.5 v-3q0 -29 -26 -58l-282 -320h260q21 0 35.5 -14.5t14.5 -35.5q0 -20 -14.5 -34.5t-35.5 -14.5h-358z"/>
<glyph glyph-name="Zdotaccent" unicode="Ż" horiz-adv-x="702" d="M116 0q-22 0 -38.5 16t-16.5 38v3q0 31 23 57l394 477h-351q-22 0 -38 16t-16 38t16 38.5t38 16.5h460q22 0 38.5 -16t16.5 -38v-3q0 -29 -22 -57l-395 -477h364q23 0 39 -16.5t16 -38.5t-16 -38t-39 -16h-473zM425 821v-7q0 -27 -19.5 -44t-48.5 -17q-28 0 -47.5 17 t-19.5 44v7q0 27 19.5 44.5t47.5 17.5t48 -17.5t20 -44.5z"/>
<glyph glyph-name="zdotaccent" unicode="ż" horiz-adv-x="560" d="M108 0q-25 0 -42 14t-17 35v2q0 30 27 58l281 320h-249q-21 0 -35.5 14.5t-14.5 34.5q0 21 14.5 35.5t35.5 14.5h348q25 0 41.5 -13.5t16.5 -34.5v-3q0 -29 -26 -58l-282 -320h260q21 0 35.5 -14.5t14.5 -35.5q0 -20 -14.5 -34.5t-35.5 -14.5h-358zM350 658v-7 q0 -27 -19.5 -44t-48.5 -17q-28 0 -47.5 17t-19.5 44v7q0 27 19.5 44.5t47.5 17.5t48 -17.5t20 -44.5z"/>
<glyph glyph-name="Zcaron" unicode="Ž" horiz-adv-x="702" d="M358 838l52 45q33 27 74 27q27 0 27 -20q0 -8 -12 -24l-66 -83q-23 -29 -58 -29h-36q-34 0 -58 29l-66 83q-12 16 -12 24q0 20 29 20q42 0 74 -27zM116 0q-22 0 -38.5 16t-16.5 38v3q0 31 23 57l394 477h-351q-22 0 -38 16t-16 38t16 38.5t38 16.5h460q22 0 38.5 -16 t16.5 -38v-3q0 -29 -22 -57l-395 -477h364q23 0 39 -16.5t16 -38.5t-16 -38t-39 -16h-473z"/>
<glyph glyph-name="zcaron" unicode="ž" horiz-adv-x="560" d="M283 675l52 45q33 27 74 27q27 0 27 -20q0 -8 -12 -24l-66 -83q-23 -29 -58 -29h-36q-34 0 -58 29l-66 83q-12 16 -12 24q0 20 29 20q42 0 74 -27zM108 0q-25 0 -42 14t-17 35v2q0 30 27 58l281 320h-249q-21 0 -35.5 14.5t-14.5 34.5q0 21 14.5 35.5t35.5 14.5h348 q25 0 41.5 -13.5t16.5 -34.5v-3q0 -29 -26 -58l-282 -320h260q21 0 35.5 -14.5t14.5 -35.5q0 -20 -14.5 -34.5t-35.5 -14.5h-358z"/>
<glyph glyph-name="florin" unicode="ƒ" horiz-adv-x="527" d="M106 -7q-30 0 -47.5 14t-17.5 37q0 20 14 34.5t36 15.5q52 4 63 67l35 195h-34q-21 0 -36 14.5t-15 35.5t15 36t36 15h51l18 94q15 78 55.5 116.5t119.5 38.5q27 0 52 -3q19 -2 32 -16.5t13 -34.5q0 -21 -14.5 -35.5t-35.5 -14.5q-1 0 -9.5 1t-14.5 1q-35 0 -54.5 -18.5 t-26.5 -59.5l-12 -69h81q22 0 36.5 -15t14.5 -36t-14.5 -35.5t-36.5 -14.5h-99l-38 -213q-14 -79 -55 -114.5t-112 -35.5z"/>
<glyph glyph-name="Aringacute" unicode="Ǻ" horiz-adv-x="790" d="M392 907q-30 0 -30 21q0 10 8 22l57 88q18 29 48 29q25 0 48.5 -12.5t23.5 -26.5q0 -15 -17 -30l-67 -64q-29 -27 -71 -27zM461 684l271 -605q7 -13 7 -25q0 -24 -17 -41.5t-42 -17.5q-40 0 -60 43l-57 131h-340l-58 -135q-18 -39 -57 -39q-24 0 -41 16.5t-17 40.5 q0 7 7 26l272 606q-48 33 -48 87v2q0 44 34.5 76.5t79.5 32.5t79.5 -32.5t34.5 -76.5v-2q0 -56 -48 -87zM395 710q25 0 43.5 18t18.5 43v2q0 25 -18.5 43t-43.5 18t-43.5 -18t-18.5 -43v-2q0 -25 18.5 -43t43.5 -18zM270 278h246l-123 283z"/>
<glyph glyph-name="aringacute" unicode="ǻ" horiz-adv-x="587" d="M228 -11q-78 0 -132.5 43.5t-54.5 119.5v2q0 83 59 126.5t159 43.5q73 0 142 -22v13q0 56 -33.5 85.5t-97.5 29.5t-117 -21q-10 -3 -19 -3q-21 0 -36 14.5t-15 35.5q0 35 33 48q82 31 170 31q118 0 175 -59q57 -56 57 -163v-260q0 -25 -17 -41.5t-42 -16.5 q-26 0 -42.5 15t-16.5 36v20q-64 -77 -172 -77zM294 593q-45 0 -79.5 32.5t-34.5 76.5v2q0 45 34.5 77t79.5 32t79.5 -32t34.5 -77v-2q0 -44 -34.5 -76.5t-79.5 -32.5zM262 77q61 0 101 31.5t40 81.5v36q-54 21 -120 21q-58 0 -91 -23.5t-33 -64.5v-2q0 -37 29 -58.5 t74 -21.5zM291 843q-30 0 -30 21q0 10 8 22l57 88q18 29 48 29q25 0 48.5 -12.5t23.5 -26.5q0 -15 -17 -30l-67 -64q-29 -27 -71 -27zM294 641q25 0 43.5 18t18.5 43v2q0 25 -18.5 43t-43.5 18t-43.5 -18t-18.5 -43v-2q0 -25 18.5 -43t43.5 -18z"/>
<glyph glyph-name="AEacute" unicode="Ǽ" horiz-adv-x="1045" d="M618 753q-30 0 -30 21q0 10 8 22l57 88q18 29 48 29q25 0 48.5 -12.5t23.5 -26.5q0 -15 -17 -30l-67 -64q-29 -27 -71 -27zM34 45q0 20 10 35l337 577q24 43 72 43h481q22 0 38.5 -16t16.5 -39t-16 -39t-39 -16h-324v-182h279q23 0 39 -16.5t16 -39.5q0 -22 -16 -38 t-39 -16h-279v-188h329q23 0 39 -16t16 -39t-16 -39t-39 -16h-390q-26 0 -44 18t-18 44v107h-264l-81 -141q-20 -34 -54 -34q-23 0 -38.5 14.5t-15.5 36.5zM286 278h201v315h-20z"/>
<glyph glyph-name="aeacute" unicode="ǽ" horiz-adv-x="952" d="M469 590q-30 0 -30 21q0 10 8 22l57 88q18 29 48 29q25 0 48.5 -12.5t23.5 -26.5q0 -15 -17 -30l-67 -64q-29 -27 -71 -27zM514 301h272q-6 61 -41 100t-93 39q-55 0 -92.5 -38.5t-45.5 -100.5zM260 78q84 0 157 68q-16 40 -20 81q-56 20 -116 20q-58 0 -90 -23.5 t-32 -64.5v-2q0 -36 29 -57.5t72 -21.5zM855 58q-78 -70 -190 -70q-127 0 -204 90q-107 -89 -221 -89q-86 0 -142.5 43.5t-56.5 119.5v2q0 83 58.5 126.5t157.5 43.5q71 0 140 -22v13q0 56 -33 85.5t-96 29.5q-60 0 -115 -21q-10 -3 -19 -3q-21 0 -36 14.5t-15 35.5 q0 35 33 48q77 31 168 31q137 0 186 -86q69 90 185 90q78 0 136.5 -40.5t85 -98t26.5 -121.5q0 -25 -16.5 -41.5t-40.5 -16.5h-330q10 -63 51 -98.5t100 -35.5q70 0 126 46q13 11 30 11q21 0 35 -14t14 -35q0 -22 -17 -37z"/>
<glyph glyph-name="Oslashacute" unicode="Ǿ" horiz-adv-x="850" d="M424 -12q-124 0 -218 67l-48 -48q-15 -17 -38 -17q-19 0 -31 11.5t-12 28.5q0 20 17 37l47 49q-82 99 -82 232v2q0 150 104 256t263 106q125 0 218 -68l48 49q17 17 38 17q18 0 30.5 -11.5t12.5 -27.5q0 -21 -17 -38l-47 -49q82 -99 82 -232v-2q0 -150 -104 -256 t-263 -106zM426 99q103 0 170.5 72.5t67.5 176.5v2q0 77 -42 143l-335 -350q61 -44 139 -44zM186 350q0 -79 42 -143l334 349q-61 45 -138 45q-103 0 -170.5 -72.5t-67.5 -176.5v-2zM421 763q-30 0 -30 21q0 10 8 22l57 88q18 29 48 29q25 0 48.5 -12.5t23.5 -26.5 q0 -15 -17 -30l-67 -64q-29 -27 -71 -27z"/>
<glyph glyph-name="oslashacute" unicode="ǿ" horiz-adv-x="657" d="M327 -12q-90 0 -162 48l-29 -30q-18 -18 -38 -18q-16 0 -27.5 11t-11.5 26q0 20 17 37l29 30q-58 72 -58 169v2q0 115 81 195.5t201 80.5q91 0 162 -49l30 31q18 18 38 18q16 0 27.5 -10.5t11.5 -25.5q0 -19 -17 -38l-30 -30q59 -75 59 -170v-2q0 -114 -81 -194.5 t-202 -80.5zM165 263q0 -47 22 -88l229 234q-40 27 -89 27q-72 0 -117 -49.5t-45 -121.5v-2zM329 91q73 0 118 49.5t45 120.5v2q0 48 -23 88l-229 -234q38 -26 89 -26zM325 590q-30 0 -30 21q0 10 8 22l57 88q18 29 48 29q25 0 48.5 -12.5t23.5 -26.5q0 -15 -17 -30l-67 -64 q-29 -27 -71 -27z"/>
<glyph glyph-name="Scommaaccent" unicode="Ș" horiz-adv-x="640" d="M316 -169q-54 9 -54 53v2q0 23 17 38t44 15q29 0 46.5 -19t17.5 -51v-3q0 -71 -43 -108q-36 -33 -86 -33q-26 0 -26 21q0 16 21 21q65 14 63 64zM335 -10q-145 0 -263 88q-24 17 -24 47q0 24 17 40.5t41 16.5q21 0 36 -11q91 -72 196 -72q57 0 90.5 24.5t33.5 63.5v2 q0 39 -32 62t-126 45q-60 15 -100 30t-72 39t-46.5 58.5t-14.5 81.5v2q0 90 67 146.5t172 56.5q125 0 222 -65q27 -15 27 -49q0 -24 -17 -40.5t-41 -16.5q-17 0 -32 9q-82 53 -161 53q-52 0 -83 -23.5t-31 -59.5v-2q0 -41 33.5 -63.5t133.5 -46.5q116 -28 170 -74.5 t54 -130.5v-2q0 -97 -69 -153t-181 -56z"/>
<glyph glyph-name="scommaaccent" unicode="ș" horiz-adv-x="501" d="M245 -166q-54 9 -54 53v2q0 23 17 38t44 15q29 0 46.5 -19t17.5 -51v-3q0 -71 -43 -108q-36 -33 -86 -33q-26 0 -26 21q0 17 21 21q65 14 63 64zM257 -10q-110 0 -201 63q-23 12 -23 42q0 20 14 34.5t35 14.5q14 0 26 -7q76 -51 152 -51q39 0 60.5 15.5t21.5 41.5v2 q0 38 -106 70q-8 3 -12 4q-36 10 -60 20t-51 27.5t-40.5 44.5t-13.5 63v2q0 73 53.5 117t134.5 44q85 0 166 -43q29 -15 29 -46q0 -21 -14.5 -35t-35.5 -14q-12 0 -24 6q-70 36 -124 36q-34 0 -54 -14.5t-20 -37.5v-2q0 -25 27 -39.5t82 -32.5q7 -2 10 -3q35 -11 59 -21.5 t50.5 -28.5t40.5 -44t14 -60v-2q0 -80 -55 -123t-141 -43z"/>
<glyph glyph-name="schwa" unicode="ə" horiz-adv-x="604" d="M437 227h-271q6 -61 41 -100t93 -39q55 0 92 38.5t45 100.5zM96 470q78 70 190 70q116 0 193.5 -76.5t77.5 -197.5v-2q0 -115 -73 -195t-185 -80q-80 0 -139 40.5t-85.5 98t-26.5 121.5q0 25 16.5 41.5t40.5 16.5h331q-10 63 -51 98.5t-101 35.5q-69 0 -125 -46 q-14 -11 -31 -11q-20 0 -34 14t-14 35t16 37z"/>
<glyph glyph-name="circumflex" unicode="ˆ" horiz-adv-x="500" d="M249 662l-52 -45q-32 -27 -74 -27q-27 0 -27 20q0 8 12 24l66 83q24 29 58 29h36q35 0 58 -29l66 -83q12 -16 12 -24q0 -20 -29 -20q-41 0 -74 27z"/>
<glyph glyph-name="caron" unicode="ˇ" horiz-adv-x="500" d="M251 675l52 45q33 27 74 27q27 0 27 -20q0 -8 -12 -24l-66 -83q-23 -29 -58 -29h-36q-34 0 -58 29l-66 83q-12 16 -12 24q0 20 29 20q42 0 74 -27z"/>
<glyph glyph-name="breve" unicode="˘" horiz-adv-x="500" d="M250 593q-108 0 -153 80q-8 16 -8 31q0 18 12 30.5t30 12.5q25 0 38 -23q26 -46 81 -46q57 0 81 46q13 23 38 23q18 0 30 -12.5t12 -30.5q0 -15 -8 -31q-45 -80 -153 -80z"/>
<glyph glyph-name="dotaccent" unicode="˙" horiz-adv-x="500" d="M318 658v-7q0 -27 -19.5 -44t-48.5 -17q-28 0 -47.5 17t-19.5 44v7q0 27 19.5 44.5t47.5 17.5t48 -17.5t20 -44.5z"/>
<glyph glyph-name="ring" unicode="˚" horiz-adv-x="500" d="M250 593q-45 0 -79.5 32.5t-34.5 76.5v2q0 45 34.5 77t79.5 32t79.5 -32t34.5 -77v-2q0 -44 -34.5 -76.5t-79.5 -32.5zM250 641q25 0 43.5 18t18.5 43v2q0 25 -18.5 43t-43.5 18t-43.5 -18t-18.5 -43v-2q0 -25 18.5 -43t43.5 -18z"/>
<glyph glyph-name="ogonek" unicode="˛" horiz-adv-x="500" d="M182 -82q0 44 52 94l81 -5q-41 -38 -41 -70q0 -30 44 -41q33 -8 33 -31q0 -31 -40 -31q-53 0 -91 21t-38 63z"/>
<glyph glyph-name="tilde" unicode="˜" horiz-adv-x="500" d="M137 603q-13 -20 -33 -20q-15 0 -26 10t-11 23q0 9 4 23q17 46 40.5 68.5t61.5 22.5q30 0 79 -20t65 -20q29 0 46 32q13 20 33 20q15 0 26 -10t11 -23q0 -9 -4 -23q-17 -46 -40.5 -68.5t-61.5 -22.5q-30 0 -79 20t-65 20q-29 0 -46 -32z"/>
<glyph glyph-name="hungarumlaut" unicode="˝" horiz-adv-x="500" d="M283 590q-29 0 -29 21q0 10 8 22l58 88q17 29 46 29q24 0 47 -12t23 -26t-17 -31l-67 -64q-29 -27 -69 -27zM100 590q-29 0 -29 21q0 10 8 22l58 88q17 29 46 29q24 0 47 -12t23 -26t-17 -31l-67 -64q-28 -27 -69 -27z"/>
<glyph glyph-name="commaaccent" unicode="̦" horiz-adv-x="500" d="M242 -166q-54 9 -54 53v2q0 23 17 38t44 15q29 0 46.5 -19t17.5 -51v-3q0 -71 -43 -108q-36 -33 -86 -33q-26 0 -26 21q0 17 21 21q65 14 63 64z"/>
<glyph glyph-name="Wgrave" unicode="Ẁ" horiz-adv-x="1099" d="M254 41l-207 580q-5 12 -5 24q0 25 18.5 42.5t44.5 17.5q22 0 38.5 -12.5t22.5 -32.5l161 -481l158 479q17 49 62 49h9q47 0 62 -49l158 -479l161 482q16 44 60 44q25 0 43 -17t18 -42q0 -11 -6 -25l-207 -580q-18 -51 -64 -51h-12q-45 0 -63 51l-156 457l-156 -457 q-18 -51 -64 -51h-12q-45 0 -64 51zM552 753q-42 0 -70 27l-68 64q-17 15 -17 30q0 14 23.5 26.5t48.5 12.5q30 0 48 -29l57 -88q9 -13 9 -22q0 -21 -31 -21z"/>
<glyph glyph-name="wgrave" unicode="ẁ" horiz-adv-x="853" d="M253 -9q-49 0 -67 54l-142 402q-6 16 -6 31q0 23 16.5 39.5t42.5 16.5q44 0 59 -48l102 -320l103 320q15 48 62 48h7q47 0 62 -48l104 -320l103 321q14 47 59 47q24 0 40.5 -16.5t16.5 -39.5q0 -12 -5 -27l-144 -406q-19 -54 -67 -54h-4q-50 0 -66 52l-103 314l-104 -314 q-16 -52 -65 -52h-4zM428 590q-42 0 -70 27l-68 64q-17 15 -17 30q0 14 23.5 26.5t48.5 12.5q30 0 48 -29l57 -88q9 -13 9 -22q0 -21 -31 -21z"/>
<glyph glyph-name="Wacute" unicode="Ẃ" horiz-adv-x="1099" d="M546 753q-30 0 -30 21q0 10 8 22l57 88q18 29 48 29q25 0 48.5 -12.5t23.5 -26.5q0 -15 -17 -30l-67 -64q-29 -27 -71 -27zM254 41l-207 580q-5 12 -5 24q0 25 18.5 42.5t44.5 17.5q22 0 38.5 -12.5t22.5 -32.5l161 -481l158 479q17 49 62 49h9q47 0 62 -49l158 -479 l161 482q16 44 60 44q25 0 43 -17t18 -42q0 -11 -6 -25l-207 -580q-18 -51 -64 -51h-12q-45 0 -63 51l-156 457l-156 -457q-18 -51 -64 -51h-12q-45 0 -64 51z"/>
<glyph glyph-name="wacute" unicode="ẃ" horiz-adv-x="853" d="M422 590q-30 0 -30 21q0 10 8 22l57 88q18 29 48 29q25 0 48.5 -12.5t23.5 -26.5q0 -15 -17 -30l-67 -64q-29 -27 -71 -27zM253 -9q-49 0 -67 54l-142 402q-6 16 -6 31q0 23 16.5 39.5t42.5 16.5q44 0 59 -48l102 -320l103 320q15 48 62 48h7q47 0 62 -48l104 -320 l103 321q14 47 59 47q24 0 40.5 -16.5t16.5 -39.5q0 -12 -5 -27l-144 -406q-19 -54 -67 -54h-4q-50 0 -66 52l-103 314l-104 -314q-16 -52 -65 -52h-4z"/>
<glyph glyph-name="Wdieresis" unicode="Ẅ" horiz-adv-x="1099" d="M649 883q27 0 46 -17.5t19 -44.5v-7q0 -27 -19 -44t-46 -17q-28 0 -47 17t-19 44v7q0 27 19 44.5t47 17.5zM450 883q27 0 46 -17.5t19 -44.5v-7q0 -27 -19 -44t-46 -17q-28 0 -47 17t-19 44v7q0 27 19 44.5t47 17.5zM254 41l-207 580q-5 12 -5 24q0 25 18.5 42.5 t44.5 17.5q22 0 38.5 -12.5t22.5 -32.5l161 -481l158 479q17 49 62 49h9q47 0 62 -49l158 -479l161 482q16 44 60 44q25 0 43 -17t18 -42q0 -11 -6 -25l-207 -580q-18 -51 -64 -51h-12q-45 0 -63 51l-156 457l-156 -457q-18 -51 -64 -51h-12q-45 0 -64 51z"/>
<glyph glyph-name="wdieresis" unicode="ẅ" horiz-adv-x="853" d="M525 720q27 0 46 -17.5t19 -44.5v-7q0 -27 -19 -44t-46 -17q-28 0 -47 17t-19 44v7q0 27 19 44.5t47 17.5zM326 720q27 0 46 -17.5t19 -44.5v-7q0 -27 -19 -44t-46 -17q-28 0 -47 17t-19 44v7q0 27 19 44.5t47 17.5zM253 -9q-49 0 -67 54l-142 402q-6 16 -6 31 q0 23 16.5 39.5t42.5 16.5q44 0 59 -48l102 -320l103 320q15 48 62 48h7q47 0 62 -48l104 -320l103 321q14 47 59 47q24 0 40.5 -16.5t16.5 -39.5q0 -12 -5 -27l-144 -406q-19 -54 -67 -54h-4q-50 0 -66 52l-103 314l-104 -314q-16 -52 -65 -52h-4z"/>
<glyph glyph-name="Ygrave" unicode="Ỳ" horiz-adv-x="696" d="M287 56v216l-241 331q-14 21 -14 43q0 25 18 42t44 17q35 0 60 -37l195 -281l198 282q25 37 59 37q26 0 43 -17.5t17 -42.5q0 -21 -17 -44l-239 -327v-219q0 -26 -18 -43.5t-44 -17.5t-43.5 17.5t-17.5 43.5zM351 753q-42 0 -70 27l-68 64q-17 15 -17 30q0 14 23.5 26.5 t48.5 12.5q30 0 48 -29l57 -88q9 -14 9 -22q0 -21 -31 -21z"/>
<glyph glyph-name="ygrave" unicode="ỳ" horiz-adv-x="587" d="M172 -163q-46 0 -84 15q-38 13 -38 50q0 22 14.5 36t34.5 14q10 0 22 -4q25 -7 42 -7q27 0 43.5 12.5t31.5 43.5l4 11l-196 438q-7 16 -7 29q0 25 17 42t43 17q41 0 59 -46l142 -351l132 351q18 46 58 46q24 0 41 -16.5t17 -40.5q0 -14 -5 -29l-193 -463 q-34 -81 -74 -114.5t-104 -33.5zM297 590q-42 0 -70 27l-68 64q-17 15 -17 30q0 14 23.5 26.5t48.5 12.5q30 0 48 -29l57 -88q9 -13 9 -22q0 -21 -31 -21z"/>
<glyph glyph-name="enspace" unicode=" " horiz-adv-x="500"/>
<glyph glyph-name="emspace" unicode=" " horiz-adv-x="1000"/>
<glyph glyph-name="threeperemspace" unicode=" " horiz-adv-x="333"/>
<glyph glyph-name="fourperemspace" unicode=" " horiz-adv-x="250"/>
<glyph glyph-name="thinspace" unicode=" " horiz-adv-x="133"/>
<glyph glyph-name="hairspace" unicode=" " horiz-adv-x="75"/>
<glyph glyph-name="endash" unicode="–" horiz-adv-x="528" d="M108 249q-23 0 -40 17t-17 40q0 24 17 41t40 17h312q23 0 40 -17t17 -41q0 -23 -17 -40t-40 -17h-312z"/>
<glyph glyph-name="emdash" unicode="—" horiz-adv-x="898" d="M108 249q-23 0 -40 17t-17 40q0 24 17 41t40 17h682q23 0 40 -17t17 -41q0 -23 -17 -40t-40 -17h-682z"/>
<glyph glyph-name="quoteleft" unicode="‘" horiz-adv-x="269" d="M235 676q0 -20 -24 -27q-71 -22 -68 -89q24 -7 40.5 -25t16.5 -43v-8q0 -29 -19 -48t-49 -19q-33 0 -52.5 24t-19.5 64v10q0 98 50 146q41 43 94 43q31 0 31 -28z"/>
<glyph glyph-name="quoteright" unicode="’" horiz-adv-x="269" d="M35 446q0 20 23 27q71 22 68 90q-24 6 -40.5 23.5t-16.5 43.5v8q0 29 19 48t49 19q33 0 52.5 -24t19.5 -64v-10q0 -97 -49 -146q-43 -43 -94 -43q-31 0 -31 28z"/>
<glyph glyph-name="quotesinglbase" unicode="‚" horiz-adv-x="269" d="M30 -117q0 22 23 27q71 23 68 90q-24 7 -40.5 25t-16.5 43v8q0 29 19 48t49 19q34 0 53 -23.5t19 -64.5v-11q0 -95 -49 -146q-45 -43 -94 -43q-31 0 -31 28z"/>
<glyph glyph-name="quotedblleft" unicode="“" horiz-adv-x="501" d="M467 676q0 -20 -24 -27q-71 -22 -68 -89q24 -7 40.5 -25t16.5 -43v-8q0 -29 -19 -48t-49 -19q-33 0 -52.5 24t-19.5 64v10q0 97 49 146q43 43 94 43q32 0 32 -28zM235 676q0 -20 -24 -27q-71 -22 -68 -89q24 -7 40.5 -25t16.5 -43v-8q0 -29 -19 -48t-49 -19 q-33 0 -52.5 24t-19.5 64v10q0 98 50 146q41 43 94 43q31 0 31 -28z"/>
<glyph glyph-name="quotedblright" unicode="”" horiz-adv-x="501" d="M35 446q0 20 23 27q71 22 68 90q-24 6 -40.5 23.5t-16.5 43.5v8q0 29 19 48t49 19q33 0 52.5 -24t19.5 -64v-10q0 -97 -49 -146q-43 -43 -94 -43q-31 0 -31 28zM266 446q0 20 24 27q71 22 68 90q-24 6 -40.5 23.5t-16.5 43.5v8q0 29 19 48t49 19q33 0 52.5 -24t19.5 -64 v-10q0 -98 -50 -146q-41 -43 -94 -43q-31 0 -31 28z"/>
<glyph glyph-name="quotedblbase" unicode="„" horiz-adv-x="501" d="M30 -117q0 22 23 27q71 23 68 90q-24 7 -40.5 25t-16.5 43v8q0 29 19 48t49 19q34 0 53 -23.5t19 -64.5v-11q0 -95 -49 -146q-45 -43 -94 -43q-31 0 -31 28zM261 -117q0 22 24 27q71 23 68 90q-24 7 -40.5 25t-16.5 43v8q0 29 19 48t49 19q33 0 52.5 -24t19.5 -64v-11 q0 -96 -50 -146q-43 -43 -94 -43q-31 0 -31 28z"/>
<glyph glyph-name="dagger" unicode="†" horiz-adv-x="410" d="M170 270l8 243l-90 -7q-16 -1 -26.5 9t-10.5 25q0 14 10.5 24t25.5 9l90 -7l-9 98q-1 18 10 29.5t27 11.5t27 -11.5t10 -29.5l-8 -98l89 7q15 1 25.5 -8.5t10.5 -24.5t-10.5 -25t-26.5 -9l-89 7l7 -242q1 -16 -9.5 -27t-25.5 -11t-25.5 10.5t-9.5 26.5z"/>
<glyph glyph-name="daggerdbl" unicode="‡" horiz-adv-x="430" d="M178 36l9 98l-90 -7q-15 -1 -25.5 9t-10.5 24q0 15 10.5 25t26.5 9l89 -7l-8 163l8 163l-89 -7q-16 -1 -26.5 9t-10.5 25q0 14 10.5 24t25.5 9l90 -7l-9 98q-1 18 10 29.5t27 11.5t27 -11.5t10 -29.5l-8 -98l89 7q15 1 25.5 -8.5t10.5 -24.5t-10.5 -25t-26.5 -9l-89 7 l8 -163l-8 -163l89 7q16 1 26.5 -9t10.5 -25t-10.5 -24.5t-25.5 -8.5l-89 7l8 -98q1 -18 -10 -29.5t-27 -11.5t-27 11.5t-10 29.5z"/>
<glyph glyph-name="bullet" unicode="•" horiz-adv-x="491" d="M246 211q-59 0 -100.5 41t-41.5 99v2q0 58 42 99.5t100 41.5q57 0 99 -41.5t42 -99.5v-2q0 -58 -41.5 -99t-99.5 -41z"/>
<glyph glyph-name="ellipsis" unicode="…" horiz-adv-x="792" d="M590 74q0 30 19.5 49.5t49.5 19.5t49.5 -19.5t19.5 -49.5v-10q0 -30 -19.5 -49.5t-49.5 -19.5t-49.5 19.5t-19.5 49.5v10zM327 74q0 30 19.5 49.5t49.5 19.5t49.5 -19.5t19.5 -49.5v-10q0 -30 -19.5 -49.5t-49.5 -19.5t-49.5 19.5t-19.5 49.5v10zM64 74q0 30 19.5 49.5 t49.5 19.5t49.5 -19.5t19.5 -49.5v-10q0 -30 -19.5 -49.5t-49.5 -19.5t-49.5 19.5t-19.5 49.5v10z"/>
<glyph glyph-name="perthousand" unicode="‰" horiz-adv-x="1228" d="M212 350q-72 0 -118 51.5t-46 125.5v2q0 75 46.5 127t119.5 52t118.5 -51.5t45.5 -125.5v-2q0 -75 -46.5 -127t-119.5 -52zM154 34q0 13 9 26l459 627q10 18 34 18q17 0 28.5 -11.5t11.5 -27.5q0 -13 -9 -26l-459 -627q-12 -18 -35 -18q-17 0 -28 11.5t-11 27.5zM1014 -8 q-72 0 -118 51.5t-46 125.5v2q0 75 46.5 127t119.5 52q72 0 118 -51.5t46 -125.5v-2q0 -74 -46.5 -126.5t-119.5 -52.5zM635 -8q-72 0 -118 51.5t-46 125.5v2q0 75 46.5 127t119.5 52q72 0 118 -51.5t46 -125.5v-2q0 -74 -46.5 -126.5t-119.5 -52.5zM214 427q34 0 54.5 29 t20.5 71v2q0 43 -22 72.5t-55 29.5q-34 0 -54.5 -29t-20.5 -71v-2q0 -43 22 -72.5t55 -29.5zM1016 69q34 0 54.5 29t20.5 71v2q0 43 -22 72.5t-55 29.5q-34 0 -54.5 -29t-20.5 -71v-2q0 -43 22 -72.5t55 -29.5zM637 69q34 0 54.5 29t20.5 71v2q0 43 -22 72.5t-55 29.5 q-34 0 -54.5 -29t-20.5 -71v-2q0 -43 22 -72.5t55 -29.5z"/>
<glyph glyph-name="guilsinglleft" unicode="‹" horiz-adv-x="354" d="M237 42q-26 0 -42 21l-129 166q-14 19 -14 35q0 18 14 35l126 163q19 24 46 24q20 0 34 -15t14 -35q0 -17 -13 -34l-106 -137l108 -140q12 -15 12 -33q0 -21 -14.5 -35.5t-35.5 -14.5z"/>
<glyph glyph-name="guilsinglright" unicode="›" horiz-adv-x="354" d="M117 486q25 0 42 -22l129 -165q15 -20 15 -36q0 -15 -15 -35l-126 -162q-17 -24 -45 -24q-21 0 -35 14.5t-14 35.5q0 18 14 34l105 136l-107 140q-13 16 -13 34q1 21 15 35.5t35 14.5z"/>
<glyph glyph-name="fraction" unicode="⁄" horiz-adv-x="459" d="M-40 -57q0 13 7 27l419 768q13 25 43 25q20 0 34 -13.5t14 -32.5q0 -13 -7 -27l-419 -768q-13 -25 -43 -25q-20 0 -34 13.5t-14 32.5z"/>
<glyph glyph-name="Euro" unicode="€" horiz-adv-x="720" d="M670 140q0 -21 -12 -35q-90 -117 -224 -117q-109 0 -185 64t-105 173h-54q-18 0 -30.5 12.5t-12.5 30.5q0 17 12.5 30t30.5 13h39q-1 12 -1 38q0 31 2 46h-40q-18 0 -30.5 12.5t-12.5 29.5q0 18 12.5 30.5t30.5 12.5h56q30 104 105 168t179 64q134 0 222 -102 q16 -16 16 -41q0 -24 -17.5 -41t-41.5 -17q-27 0 -43 20q-59 71 -139 71q-53 0 -93 -32.5t-61 -89.5h178q17 0 29.5 -12.5t12.5 -30.5q0 -17 -12.5 -29.5t-29.5 -12.5h-197q-2 -14 -2 -44q0 -27 1 -40h198q17 0 29.5 -13t12.5 -30q0 -18 -12.5 -30.5t-29.5 -12.5h-180 q21 -61 63 -94t101 -33q76 0 137 76q17 20 43 20q23 0 39 -16t16 -38z"/>
<glyph glyph-name="published" unicode="℗" horiz-adv-x="830" d="M414 -12q-151 0 -256 105.5t-105 254.5v2q0 149 106 255.5t257 106.5t256 -105.5t105 -254.5v-2q0 -149 -106 -255.5t-257 -106.5zM414 24q138 0 231.5 95.5t93.5 230.5v2q0 135 -93 229.5t-230 94.5q-138 0 -231.5 -95.5t-93.5 -230.5v-2q0 -135 93 -229.5t230 -94.5z M286 199v311q0 15 11 26t26 11h116q67 0 107 -34.5t40 -93.5v-2q0 -62 -44.5 -96t-110.5 -34h-71v-88q0 -16 -11 -26.5t-26 -10.5t-26 10.5t-11 26.5zM360 352h73q36 0 57 17.5t21 46.5v2q0 30 -20.5 46.5t-57.5 16.5h-73v-129z"/>
<glyph glyph-name="servicemark" unicode="℠" horiz-adv-x="705" d="M356 415v259q0 12 8.5 20.5t20.5 8.5h7q17 0 26 -15l93 -148l94 148q9 15 25 15h7q12 0 20 -8.5t8 -20.5v-259q0 -12 -8 -20t-20 -8t-20 8t-8 20v180l-74 -112q-10 -15 -24 -15q-15 0 -26 15l-72 111v-179q0 -12 -8.5 -20t-20.5 -8q-11 0 -19.5 8t-8.5 20zM33 448 q0 10 7.5 17.5t17.5 7.5t18 -6q47 -33 95 -33q28 0 44 11t16 29q0 17 -15.5 27t-57.5 20q-58 14 -85.5 33t-27.5 58v1q0 41 31.5 67t82.5 26q59 0 103 -29q15 -9 15 -24q0 -11 -7.5 -18.5t-18.5 -7.5q-9 0 -16 5q-39 24 -77 24q-26 0 -41 -10.5t-15 -26.5q0 -18 16 -28 t59 -20q55 -12 83 -33t28 -58q0 -43 -33.5 -68.5t-86.5 -25.5q-68 0 -122 39q-13 10 -13 23z"/>
<glyph glyph-name="trademark" unicode="™" horiz-adv-x="690" d="M121 416v230h-74q-10 0 -18 8t-8 19t7.5 19t18.5 8h207q11 0 18.5 -8t7.5 -19t-8 -19t-18 -8h-74v-230q0 -12 -8.5 -20.5t-21.5 -8.5q-12 0 -20.5 8.5t-8.5 20.5zM341 415v259q0 12 8.5 20.5t20.5 8.5h7q18 0 27 -15l92 -148l94 148q9 15 26 15h7q11 0 19.5 -8.5 t8.5 -20.5v-259q0 -12 -8.5 -20t-20.5 -8q-11 0 -19.5 8t-8.5 20v180l-73 -112q-10 -15 -25 -15q-14 0 -25 15l-73 111v-179q0 -12 -8.5 -20t-19.5 -8q-12 0 -20.5 8t-8.5 20z"/>
<glyph glyph-name="minus" unicode="−" horiz-adv-x="634" d="M514 295h-395q-23 0 -39.5 16.5t-16.5 39.5q0 24 16.5 40.5t39.5 16.5h395q24 0 40.5 -16.5t16.5 -40.5q0 -23 -16.5 -39.5t-40.5 -16.5z"/>
<glyph glyph-name="Q.alt" horiz-adv-x="850" d="M791 350q0 -155 -109 -261l75 -76q26 -28 26 -54q0 -28 -20 -47t-47 -19q-35 0 -63 32l-86 90q-68 -27 -143 -27q-159 0 -262 105t-103 255v2q0 150 104 256t263 106t262 -105t103 -255v-2zM662 348v2q0 104 -67.5 176.5t-170.5 72.5t-169.5 -71.5t-66.5 -175.5v-2 q0 -104 67.5 -176t170.5 -72t169.5 71t66.5 175z"/>
<glyph glyph-name="a.alt" d="M474 446v28q0 25 17.5 42.5t42.5 17.5q26 0 43.5 -18t17.5 -43v-418q0 -25 -17.5 -42.5t-42.5 -17.5q-26 0 -43.5 17.5t-17.5 42.5v33q-70 -99 -180 -99q-99 0 -172 74.5t-73 199.5v2q0 126 72.5 200t172.5 74q109 0 180 -93zM323 434q-64 0 -108 -46t-44 -123v-2 q0 -75 44.5 -122t107.5 -47t108 47.5t45 121.5v2q0 74 -45 121.5t-108 47.5z"/>
<glyph glyph-name="aacute.alt" d="M338 590q-30 0 -30 21q0 10 8 22l57 88q18 29 48 29q25 0 48.5 -12.5t23.5 -26.5q0 -15 -17 -30l-67 -64q-29 -27 -71 -27zM474 446v28q0 25 17.5 42.5t42.5 17.5q26 0 43.5 -18t17.5 -43v-418q0 -25 -17.5 -42.5t-42.5 -17.5q-26 0 -43.5 17.5t-17.5 42.5v33 q-70 -99 -180 -99q-99 0 -172 74.5t-73 199.5v2q0 126 72.5 200t172.5 74q109 0 180 -93zM323 434q-64 0 -108 -46t-44 -123v-2q0 -75 44.5 -122t107.5 -47t108 47.5t45 121.5v2q0 74 -45 121.5t-108 47.5z"/>
<glyph glyph-name="abreve.alt" d="M474 446v28q0 25 17.5 42.5t42.5 17.5q26 0 43.5 -18t17.5 -43v-418q0 -25 -17.5 -42.5t-42.5 -17.5q-26 0 -43.5 17.5t-17.5 42.5v33q-70 -99 -180 -99q-99 0 -172 74.5t-73 199.5v2q0 126 72.5 200t172.5 74q109 0 180 -93zM323 434q-64 0 -108 -46t-44 -123v-2 q0 -75 44.5 -122t107.5 -47t108 47.5t45 121.5v2q0 74 -45 121.5t-108 47.5zM341 593q-108 0 -153 80q-8 16 -8 31q0 18 12 30.5t30 12.5q25 0 38 -23q26 -46 81 -46q57 0 81 46q13 23 38 23q18 0 30 -12.5t12 -30.5q0 -15 -8 -31q-45 -80 -153 -80z"/>
<glyph glyph-name="acircumflex.alt" d="M340 662l-52 -45q-32 -27 -74 -27q-27 0 -27 20q0 8 12 24l66 83q24 29 58 29h36q35 0 58 -29l66 -83q12 -16 12 -24q0 -20 -29 -20q-41 0 -74 27zM474 446v28q0 25 17.5 42.5t42.5 17.5q26 0 43.5 -18t17.5 -43v-418q0 -25 -17.5 -42.5t-42.5 -17.5q-26 0 -43.5 17.5 t-17.5 42.5v33q-70 -99 -180 -99q-99 0 -172 74.5t-73 199.5v2q0 126 72.5 200t172.5 74q109 0 180 -93zM323 434q-64 0 -108 -46t-44 -123v-2q0 -75 44.5 -122t107.5 -47t108 47.5t45 121.5v2q0 74 -45 121.5t-108 47.5z"/>
<glyph glyph-name="adieresis.alt" d="M441 720q27 0 46 -17.5t19 -44.5v-7q0 -27 -19 -44t-46 -17q-28 0 -47 17t-19 44v7q0 27 19 44.5t47 17.5zM242 720q27 0 46 -17.5t19 -44.5v-7q0 -27 -19 -44t-46 -17q-28 0 -47 17t-19 44v7q0 27 19 44.5t47 17.5zM474 446v28q0 25 17.5 42.5t42.5 17.5q26 0 43.5 -18 t17.5 -43v-418q0 -25 -17.5 -42.5t-42.5 -17.5q-26 0 -43.5 17.5t-17.5 42.5v33q-70 -99 -180 -99q-99 0 -172 74.5t-73 199.5v2q0 126 72.5 200t172.5 74q109 0 180 -93zM323 434q-64 0 -108 -46t-44 -123v-2q0 -75 44.5 -122t107.5 -47t108 47.5t45 121.5v2 q0 74 -45 121.5t-108 47.5z"/>
<glyph glyph-name="agrave.alt" d="M474 446v28q0 25 17.5 42.5t42.5 17.5q26 0 43.5 -18t17.5 -43v-418q0 -25 -17.5 -42.5t-42.5 -17.5q-26 0 -43.5 17.5t-17.5 42.5v33q-70 -99 -180 -99q-99 0 -172 74.5t-73 199.5v2q0 126 72.5 200t172.5 74q109 0 180 -93zM323 434q-64 0 -108 -46t-44 -123v-2 q0 -75 44.5 -122t107.5 -47t108 47.5t45 121.5v2q0 74 -45 121.5t-108 47.5zM344 590q-42 0 -70 27l-68 64q-17 15 -17 30q0 14 23.5 26.5t48.5 12.5q30 0 48 -29l57 -88q9 -13 9 -22q0 -21 -31 -21z"/>
<glyph glyph-name="amacron.alt" d="M474 446v28q0 25 17.5 42.5t42.5 17.5q26 0 43.5 -18t17.5 -43v-418q0 -25 -17.5 -42.5t-42.5 -17.5q-26 0 -43.5 17.5t-17.5 42.5v33q-70 -99 -180 -99q-99 0 -172 74.5t-73 199.5v2q0 126 72.5 200t172.5 74q109 0 180 -93zM323 434q-64 0 -108 -46t-44 -123v-2 q0 -75 44.5 -122t107.5 -47t108 47.5t45 121.5v2q0 74 -45 121.5t-108 47.5zM474 606h-266q-18 0 -31 13t-13 31t13 31t31 13h266q18 0 31 -13t13 -31t-13 -31t-31 -13z"/>
<glyph glyph-name="aogonek.alt" d="M323 434q-64 0 -108 -46t-44 -123v-2q0 -75 44.5 -122t107.5 -47t108 47.5t45 121.5v2q0 74 -45 121.5t-108 47.5zM474 446v28q0 25 17.5 42.5t42.5 17.5q26 0 43.5 -18t17.5 -43v-421q0 -27 -24 -48q-39 -38 -39 -68t42 -40q33 -8 33 -31q0 -31 -39 -31q-54 0 -91 20.5 t-37 60.5q0 50 53 96q-8 7 -13.5 31.5t-5.5 40.5v5q-70 -99 -180 -99q-99 0 -172 74.5t-73 199.5v2q0 126 72.5 200t172.5 74q109 0 180 -93z"/>
<glyph glyph-name="aring.alt" d="M341 593q-45 0 -79.5 32.5t-34.5 76.5v2q0 45 34.5 77t79.5 32t79.5 -32t34.5 -77v-2q0 -44 -34.5 -76.5t-79.5 -32.5zM341 641q25 0 43.5 18t18.5 43v2q0 25 -18.5 43t-43.5 18t-43.5 -18t-18.5 -43v-2q0 -25 18.5 -43t43.5 -18zM474 446v28q0 25 17.5 42.5t42.5 17.5 q26 0 43.5 -18t17.5 -43v-418q0 -25 -17.5 -42.5t-42.5 -17.5q-26 0 -43.5 17.5t-17.5 42.5v33q-70 -99 -180 -99q-99 0 -172 74.5t-73 199.5v2q0 126 72.5 200t172.5 74q109 0 180 -93zM323 434q-64 0 -108 -46t-44 -123v-2q0 -75 44.5 -122t107.5 -47t108 47.5t45 121.5v2 q0 74 -45 121.5t-108 47.5z"/>
<glyph glyph-name="aring.alt2" horiz-adv-x="587" d="M228 -11q-78 0 -132.5 43.5t-54.5 119.5v2q0 83 59 126.5t159 43.5q73 0 142 -22v13q0 56 -33.5 85.5t-97.5 29.5t-117 -21q-10 -3 -19 -3q-21 0 -36 14.5t-15 35.5q0 35 33 48q48 18 91 25q-26 29 -26 68v2q0 44 34 76.5t80 32.5q45 0 79.5 -32.5t34.5 -76.5v-2 q0 -43 -34 -74q54 -14 86 -47q57 -56 57 -163v-260q0 -25 -17 -41.5t-42 -16.5q-26 0 -42.5 15t-16.5 36v20q-64 -77 -172 -77zM262 77q61 0 101 31.5t40 81.5v36q-54 21 -120 21q-58 0 -91 -23.5t-33 -64.5v-2q0 -37 29 -58.5t74 -21.5zM295 536q25 0 43.5 18t18.5 43v2 q0 25 -18.5 43t-43.5 18t-43.5 -18t-18.5 -43v-2q0 -25 18.5 -43t43.5 -18z"/>
<glyph glyph-name="aringacute.alt" d="M338 843q-30 0 -30 21q0 10 8 22l57 88q18 29 48 29q25 0 48.5 -12.5t23.5 -26.5q0 -15 -17 -30l-67 -64q-29 -27 -71 -27zM341 593q-45 0 -79.5 32.5t-34.5 76.5v2q0 45 34.5 77t79.5 32t79.5 -32t34.5 -77v-2q0 -44 -34.5 -76.5t-79.5 -32.5zM341 641q25 0 43.5 18 t18.5 43v2q0 25 -18.5 43t-43.5 18t-43.5 -18t-18.5 -43v-2q0 -25 18.5 -43t43.5 -18zM474 446v28q0 25 17.5 42.5t42.5 17.5q26 0 43.5 -18t17.5 -43v-418q0 -25 -17.5 -42.5t-42.5 -17.5q-26 0 -43.5 17.5t-17.5 42.5v33q-70 -99 -180 -99q-99 0 -172 74.5t-73 199.5v2 q0 126 72.5 200t172.5 74q109 0 180 -93zM323 434q-64 0 -108 -46t-44 -123v-2q0 -75 44.5 -122t107.5 -47t108 47.5t45 121.5v2q0 74 -45 121.5t-108 47.5z"/>
<glyph glyph-name="aringacute.alt2" horiz-adv-x="587" d="M228 -11q-78 0 -132.5 43.5t-54.5 119.5v2q0 83 59 126.5t159 43.5q73 0 142 -22v13q0 56 -33.5 85.5t-97.5 29.5t-117 -21q-10 -3 -19 -3q-21 0 -36 14.5t-15 35.5q0 35 33 48q48 18 91 25q-26 29 -26 68v2q0 44 34 76.5t80 32.5q45 0 79.5 -32.5t34.5 -76.5v-2 q0 -43 -34 -74q54 -14 86 -47q57 -56 57 -163v-260q0 -25 -17 -41.5t-42 -16.5q-26 0 -42.5 15t-16.5 36v20q-64 -77 -172 -77zM262 77q61 0 101 31.5t40 81.5v36q-54 21 -120 21q-58 0 -91 -23.5t-33 -64.5v-2q0 -37 29 -58.5t74 -21.5zM295 536q25 0 43.5 18t18.5 43v2 q0 25 -18.5 43t-43.5 18t-43.5 -18t-18.5 -43v-2q0 -25 18.5 -43t43.5 -18zM291 738q-30 0 -30 21q0 10 8 22l57 88q18 29 48 29q25 0 48.5 -12.5t23.5 -26.5q0 -15 -17 -30l-67 -64q-29 -27 -71 -27z"/>
<glyph glyph-name="atilde.alt" d="M474 446v28q0 25 17.5 42.5t42.5 17.5q26 0 43.5 -18t17.5 -43v-418q0 -25 -17.5 -42.5t-42.5 -17.5q-26 0 -43.5 17.5t-17.5 42.5v33q-70 -99 -180 -99q-99 0 -172 74.5t-73 199.5v2q0 126 72.5 200t172.5 74q109 0 180 -93zM323 434q-64 0 -108 -46t-44 -123v-2 q0 -75 44.5 -122t107.5 -47t108 47.5t45 121.5v2q0 74 -45 121.5t-108 47.5zM232 603q-13 -20 -33 -20q-15 0 -26 10t-11 23q0 9 4 23q17 46 40.5 68.5t61.5 22.5q30 0 79 -20t65 -20q29 0 46 32q13 20 33 20q15 0 26 -10t11 -23q0 -9 -4 -23q-17 -46 -40.5 -68.5 t-61.5 -22.5q-30 0 -79 20t-65 20q-29 0 -46 -32z"/>
<glyph glyph-name="three.alt" horiz-adv-x="610" d="M311 -12q-137 0 -235 87q-23 19 -23 46q0 25 17 41.5t41 16.5q22 0 38 -14q71 -66 164 -66q58 0 91.5 27.5t33.5 74.5v2q0 47 -40.5 72.5t-113.5 25.5h-29q-21 0 -36.5 15.5t-15.5 36.5t15.5 36.5t36.5 15.5h32q60 0 96 27.5t36 72.5v2q0 42 -32.5 68t-88.5 26 q-74 0 -136 -64q-17 -17 -39 -17q-24 0 -40.5 16.5t-16.5 39.5q0 24 17 41q87 95 217 95q108 0 174.5 -52.5t66.5 -134.5v-2q0 -113 -104 -164q123 -47 123 -158v-2q0 -92 -67.5 -151.5t-181.5 -59.5z"/>
<glyph glyph-name="registered.alt" horiz-adv-x="830" d="M414 -12q-151 0 -256 105.5t-105 254.5v2q0 149 106 255.5t257 106.5t256 -105.5t105 -254.5v-2q0 -149 -106 -255.5t-257 -106.5zM414 24q138 0 231.5 95.5t93.5 230.5v2q0 135 -93 229.5t-230 94.5q-138 0 -231.5 -95.5t-93.5 -230.5v-2q0 -135 93 -229.5t230 -94.5z M269 201v313q0 15 10.5 25.5t25.5 10.5h133q75 0 115 -40q31 -31 31 -80v-2q0 -85 -84 -113l72 -90q10 -10 10 -25q0 -14 -10 -24.5t-24 -10.5q-18 0 -31 17l-95 120h-81v-101q0 -15 -11 -25.5t-25 -10.5q-15 0 -25.5 10.5t-10.5 25.5zM341 365h94q35 0 55 16t20 43v2 q0 28 -20 43.5t-55 15.5h-94v-120z"/>
<glyph glyph-name="NUL" horiz-adv-x="0"/>
<glyph glyph-name="hfjslug" horiz-adv-x="694" d="M644 -200h-208l-8 14h-163l-8 -14h-207v303q14 0 23 9.5t9 22.5t-9.5 22.5t-22.5 9.5v554h100l30 79h334l29 -79h101v-921zM400 563v-172h15v78h38v14h-38v66h43v14h-58zM184 563v-172h15v79h47v-79h15v172h-15v-79h-47v79h-15zM460 394q10 -4 21 -4q31 0 31 36v137h-16 v-137q0 -22 -16 -22q-8 0 -20 5v-15zM371 465l-13 3q-4 -18 -8 -30h-1l-16 31q23 21 23 42q0 31 -27 31q-12 0 -20 -9t-8 -22t14 -39q-23 -18 -23 -47q0 -16 8 -26.5t21 -10.5q19 0 29 24h1l12 -24l12 6l-17 32q6 14 13 39zM523 323v-46h8v12l8 8l15 -20h10l-20 26l18 20 h-10l-20 -24h-1v24h-8zM488 292l10 -15h9l-12 17q10 4 10 14q0 15 -17 15h-20v-46h8v15h12zM426 276q10 0 17 7t7 17q0 9 -7 16.5t-17 7.5t-17 -7.5t-7 -16.5q0 -10 7 -17t17 -7zM370 301l-13 22h-9l18 -29v-17h8v17l18 29h-9zM193 323v-46h34v7h-26v13h23v7h-23v12h26v7 h-34zM132 323v-46h8v32l25 -32h7v46h-8v-32l-25 32h-7zM241 323l14 -47h8l11 34h1l11 -34h8l14 47h-8l-10 -35h-1l-11 35h-7l-11 -35h-1l-10 35h-8zM327 479q-12 22 -12 32q0 19 14 19q13 0 13 -19q0 -15 -15 -32zM342 423q-8 -21 -20 -21q-16 0 -16 25q0 19 16 35zM487 299 h-11v17h11q10 0 10 -8q0 -9 -10 -9zM426 283q-16 0 -16 17q0 6 4.5 11.5t11.5 5.5t11.5 -5.5t4.5 -11.5q0 -17 -16 -17z"/>
<glyph glyph-name="i.dot" horiz-adv-x="286" d="M74 664v6q0 27 19.5 43t49.5 16t49.5 -16t19.5 -43v-6q0 -27 -19.5 -43.5t-49.5 -16.5t-49.5 16.5t-19.5 43.5zM83 55v418q0 26 17.5 43.5t42.5 17.5t43 -18t18 -43v-418q0 -25 -17.5 -42.5t-43.5 -17.5q-25 0 -42.5 17.5t-17.5 42.5z"/>
<glyph glyph-name="caron.alt" horiz-adv-x="500" d="M205 564l3 124q1 19 13 31.5t31 12.5h18q31 0 31 -29q0 -11 -4 -23l-37 -121q-8 -25 -29 -25q-12 0 -19.5 8t-6.5 22z"/>
</font>
</defs>
</svg>
